<?xml version="1.0" standalone="no"?>
<!DOCTYPE svg PUBLIC "-//W3C//DTD SVG 20010904//EN"
 "http://www.w3.org/TR/2001/REC-SVG-20010904/DTD/svg10.dtd">
<svg version="1.0" xmlns="http://www.w3.org/2000/svg"
 width="800.000000pt" height="800.000000pt" viewBox="0 0 800.000000 800.000000"
 preserveAspectRatio="xMidYMid meet">
<metadata>
Created by potrace 1.11, written by Peter Selinger 2001-2013
</metadata>
<g transform="translate(0.000000,800.000000) scale(0.100000,-0.100000)"
fill="#000000" stroke="none">
<path d="M4610 7960 c-6 -11 -16 -17 -22 -14 -6 4 -8 3 -5 -3 4 -6 0 -14 -9
-17 -10 -4 -13 -2 -8 7 5 9 4 9 -6 0 -12 -11 -11 -15 6 -28 16 -12 16 -14 2
-9 -11 4 -18 1 -18 -6 0 -6 -5 -8 -12 -4 -7 4 -8 3 -4 -5 4 -6 11 -9 16 -6 5
3 12 0 16 -6 4 -8 3 -9 -4 -5 -16 10 -15 -7 1 -23 10 -11 9 -13 -5 -8 -12 4
-15 2 -11 -9 3 -8 11 -13 18 -10 7 2 25 -8 41 -22 16 -15 32 -26 36 -24 5 1 7
-1 7 -5 -3 -20 2 -34 10 -29 5 3 11 -3 14 -15 5 -17 3 -18 -9 -8 -12 10 -13 9
-8 -5 3 -9 11 -16 18 -16 18 0 35 -35 25 -51 -7 -12 -9 -12 -10 1 -1 8 0 19 1
25 1 5 -2 6 -6 2 -12 -12 -13 -37 -2 -37 6 0 5 -6 -2 -15 -7 -9 -10 -18 -6
-22 3 -3 6 -1 6 5 0 6 10 16 21 23 21 11 21 10 5 -12 -20 -29 -21 -45 -1 -29
9 7 18 10 22 6 3 -3 1 -6 -5 -6 -7 0 -12 -9 -12 -21 0 -11 4 -18 8 -15 5 3 9
-1 9 -9 0 -8 -4 -12 -9 -9 -4 3 -8 1 -8 -5 0 -5 3 -11 8 -14 4 -2 2 -2 -5 -1
-6 2 -14 -4 -17 -12 -3 -9 -10 -13 -15 -9 -5 3 -12 1 -15 -4 -7 -11 13 -9 33
3 11 7 13 5 8 -6 -3 -9 -1 -20 4 -25 6 -6 4 -10 -5 -10 -8 0 -12 5 -9 10 3 6
1 7 -6 3 -6 -4 -9 -12 -6 -17 4 -5 0 -9 -7 -9 -9 0 -9 -3 2 -10 13 -9 7 -14
-12 -11 -17 2 -7 -15 14 -24 12 -6 23 -16 24 -23 1 -7 0 -8 -3 -2 -2 5 -10 7
-15 4 -7 -5 -8 -2 -3 6 5 8 4 11 -3 7 -11 -8 -11 -25 1 -44 5 -7 5 -13 0 -13
-4 0 -1 -5 7 -10 11 -7 11 -10 2 -10 -7 0 -10 -4 -7 -10 3 -5 0 -7 -8 -4 -19
7 -28 -8 -16 -26 6 -10 9 -11 9 -2 0 6 5 12 12 12 6 0 4 -8 -6 -19 -10 -11
-16 -26 -13 -33 4 -10 6 -10 6 0 1 6 6 12 12 12 8 0 8 -5 -1 -15 -7 -8 -16
-12 -21 -9 -5 3 -9 -1 -9 -9 0 -8 -7 -17 -15 -21 -8 -3 -15 0 -15 6 0 6 -3 8
-6 5 -4 -4 -2 -13 4 -20 7 -8 9 -16 6 -20 -3 -3 5 -4 18 -1 19 4 19 3 -4 -7
-19 -7 -25 -15 -21 -26 5 -12 3 -14 -8 -8 -11 7 -11 5 1 -10 14 -17 13 -18 -3
-12 -12 4 -16 3 -11 -4 4 -6 0 -15 -7 -20 -11 -7 -11 -9 -1 -9 7 0 11 -4 7 -9
-3 -5 -1 -12 5 -16 6 -4 8 -11 4 -16 -3 -6 -12 -5 -22 3 -14 12 -14 10 -2 -12
12 -22 12 -24 -2 -12 -13 10 -18 10 -24 1 -4 -8 -3 -9 4 -5 7 4 12 1 12 -9 0
-9 -4 -14 -8 -11 -4 2 -13 -3 -19 -13 -9 -14 -8 -18 3 -18 7 0 11 4 8 9 -3 4
-1 8 5 8 5 0 9 -9 8 -19 0 -11 -5 -17 -11 -14 -5 4 -7 -1 -2 -12 5 -14 4 -15
-7 -7 -10 9 -13 5 -11 -17 2 -36 -10 -60 -19 -36 -4 9 -3 14 1 11 4 -2 9 5 9
17 2 20 1 20 -8 4 -6 -10 -15 -14 -22 -10 -9 5 -9 3 0 -8 10 -12 10 -18 0 -29
-8 -9 -9 -11 0 -6 6 3 15 2 18 -4 4 -6 3 -10 -2 -9 -4 1 -17 1 -27 0 -20 -1
-20 -1 0 -16 19 -14 19 -15 -3 -21 -13 -3 -20 -11 -16 -17 3 -6 1 -7 -5 -3 -6
4 -8 14 -5 23 5 12 3 14 -8 8 -24 -15 -48 -13 -41 3 3 10 1 13 -6 8 -6 -3 -14
-2 -17 4 -4 6 -1 9 6 8 6 -2 14 3 17 11 3 8 0 11 -7 7 -17 -11 -13 0 6 15 10
8 14 9 10 2 -4 -6 -3 -14 2 -17 5 -4 8 2 7 11 -2 10 4 24 13 31 15 11 14 12
-1 6 -17 -6 -19 10 -5 33 6 9 3 11 -8 7 -11 -5 -14 -2 -8 12 4 11 3 15 -5 10
-6 -3 -13 -2 -16 3 -7 10 13 9 31 -2 6 -4 15 -3 18 3 4 6 1 9 -7 8 -9 -2 -13
9 -13 34 0 33 -2 37 -19 32 -16 -5 -17 -4 -5 9 8 8 17 13 21 11 4 -2 10 0 13
6 4 6 1 9 -6 8 -6 -2 -14 3 -17 11 -3 10 0 11 9 5 12 -6 12 -5 1 8 -8 10 -9
19 -3 22 5 3 12 1 14 -4 3 -6 4 -5 3 2 -2 7 -9 12 -15 11 -6 -2 -11 2 -11 8 0
7 -5 8 -13 3 -7 -5 -1 1 13 13 32 29 12 30 -26 1 l-29 -22 19 22 c13 15 15 22
6 22 -7 0 -10 3 -7 7 4 3 -1 12 -11 20 -15 13 -15 13 6 3 12 -6 22 -15 22 -21
0 -6 5 -7 10 -4 7 4 2 14 -11 26 -15 13 -17 19 -8 19 12 0 12 2 -1 9 -8 6 -18
7 -24 4 -5 -3 -6 -1 -2 5 4 6 14 9 24 6 13 -5 14 -4 4 4 -8 5 -13 12 -13 16 3
20 0 26 -9 21 -5 -3 -10 1 -10 10 0 10 5 13 13 9 6 -4 1 4 -12 19 -13 15 -20
31 -16 38 5 7 4 10 -2 6 -11 -7 -44 28 -35 38 4 4 3 5 -3 3 -12 -3 -71 53 -67
65 1 4 -7 3 -18 -3 -18 -10 -24 -7 -21 12 0 4 -8 5 -19 3 -10 -2 -24 3 -30 11
-15 18 -31 9 -24 -14 5 -15 5 -15 -6 1 -6 9 -8 22 -4 29 4 6 3 8 -4 4 -6 -3
-18 1 -26 10 -9 8 -16 10 -16 4 0 -6 6 -13 13 -16 7 -2 13 -15 14 -27 2 -21 2
-21 -9 -2 -7 11 -16 25 -22 30 -14 13 -50 19 -43 8 3 -5 -5 -9 -19 -9 -16 0
-23 5 -20 12 3 9 -1 11 -11 7 -12 -5 -14 -3 -8 7 5 9 4 11 -4 6 -6 -4 -9 -12
-6 -17 10 -15 -7 -10 -27 8 -16 15 -18 15 -13 1 10 -26 -11 -29 -41 -6 -15 13
-24 16 -19 9 6 -11 4 -13 -9 -8 -11 5 -15 3 -10 -4 4 -7 1 -10 -7 -7 -8 3 -13
11 -11 18 3 11 0 11 -12 1 -8 -7 -20 -10 -25 -6 -7 3 -8 0 -5 -9 3 -9 2 -16
-4 -16 -5 0 -12 7 -16 15 -6 16 -36 10 -36 -7 0 -6 6 -5 15 2 10 9 15 9 15 1
0 -6 -5 -11 -11 -11 -5 0 -7 -6 -3 -12 6 -10 4 -10 -8 0 -9 7 -18 9 -20 5 -3
-4 -3 -2 -1 5 1 7 -1 10 -6 7 -6 -3 -15 3 -21 12 -11 17 -11 17 -6 0 3 -11 0
-20 -9 -23 -8 -4 -12 -10 -9 -16 3 -5 12 -1 21 9 13 17 13 16 4 -4 -8 -15 -17
-20 -31 -16 -16 4 -19 2 -14 -13 5 -16 4 -16 -5 -4 -6 9 -7 18 -1 24 13 13 13
26 -1 26 -5 0 -8 -3 -6 -7 2 -5 -7 -19 -21 -33 -17 -16 -24 -19 -20 -8 5 12 2
16 -12 15 -15 -1 -17 -4 -7 -17 6 -8 7 -12 2 -7 -4 4 -16 0 -26 -9 -13 -12
-19 -12 -25 -3 -5 8 -3 10 6 4 9 -5 11 -4 6 3 -9 14 -66 -25 -66 -45 0 -7 -5
-13 -11 -13 -5 0 -8 4 -4 9 3 5 0 13 -6 17 -7 4 -9 3 -6 -3 3 -5 0 -21 -8 -36
-7 -14 -10 -29 -7 -34 4 -4 -4 1 -17 12 -23 19 -24 19 -18 1 6 -14 4 -17 -9
-12 -14 5 -15 4 -4 -9 16 -20 6 -20 -14 0 -14 14 -15 12 -13 -18 3 -30 1 -34
-20 -31 -13 1 -23 -2 -23 -8 0 -6 7 -8 15 -5 8 4 17 1 21 -5 4 -7 3 -8 -4 -4
-7 4 -12 2 -12 -3 0 -6 5 -11 12 -11 6 0 8 -3 5 -6 -4 -4 -14 -1 -24 7 -15 12
-16 12 -10 -3 6 -17 -2 -22 -30 -19 -7 1 -13 -3 -13 -9 0 -6 4 -9 9 -6 5 3 14
0 20 -8 9 -11 8 -14 -5 -12 -22 1 -27 -31 -6 -44 11 -6 12 -9 4 -10 -7 0 -10
-5 -6 -12 4 -7 3 -8 -4 -4 -7 4 -12 2 -12 -3 0 -6 5 -11 10 -11 6 0 10 -5 10
-11 0 -5 -4 -8 -9 -4 -5 3 -13 0 -17 -6 -4 -8 -3 -9 4 -5 6 3 16 -3 22 -15 7
-12 8 -19 2 -15 -5 3 -16 -2 -23 -11 -8 -9 -9 -14 -3 -10 6 3 20 0 30 -8 18
-13 18 -14 -6 -8 -25 5 -25 5 -5 -11 11 -10 14 -15 8 -11 -9 4 -11 1 -7 -10 5
-12 9 -13 20 -4 19 16 18 4 -2 -16 -14 -13 -14 -19 -4 -28 10 -9 11 -9 6 1 -4
7 -1 12 8 12 11 0 15 -8 12 -30 -2 -16 0 -27 4 -25 4 3 11 -2 14 -11 4 -10 12
-14 22 -10 13 5 14 4 6 -7 -12 -14 -6 -27 12 -27 6 0 5 4 -2 9 -11 7 -11 9 1
14 10 4 14 -2 14 -16 0 -29 12 -57 25 -57 6 0 6 6 -1 14 -8 10 -9 16 -1 21 6
4 9 1 8 -7 -2 -7 5 -12 14 -12 10 1 16 -1 16 -5 -1 -3 8 -22 20 -41 12 -19 22
-28 22 -20 0 13 2 13 9 0 6 -8 8 -17 5 -21 -2 -4 1 -11 7 -15 7 -4 9 -3 6 3
-4 6 0 14 9 17 22 8 26 8 19 -4 -8 -13 8 -13 22 1 8 8 10 2 8 -20 -1 -18 2
-29 9 -28 6 1 10 -5 8 -13 -1 -9 6 -6 18 9 11 13 20 18 20 12 0 -7 4 -10 9 -7
5 3 16 -5 25 -19 11 -17 13 -25 5 -25 -7 0 -10 -3 -6 -6 3 -3 11 -3 17 1 8 5
8 11 -2 23 -10 14 -10 15 1 5 7 -6 21 -9 30 -6 11 4 8 -3 -9 -23 -14 -15 -18
-23 -9 -16 12 9 18 9 28 -1 10 -9 11 -8 5 6 -5 13 -2 16 9 11 9 -3 13 -12 10
-20 -3 -8 0 -14 7 -14 6 0 8 5 5 10 -3 6 -1 10 5 10 6 0 8 5 5 10 -3 6 -1 10
5 10 7 0 9 -7 6 -16 -4 -12 -2 -15 9 -10 8 3 15 2 15 -3 0 -7 15 -11 54 -12
10 0 25 -7 33 -15 8 -8 19 -12 24 -9 5 4 9 -1 9 -10 0 -15 1 -15 16 -1 17 17
54 22 54 7 0 -5 -8 -7 -19 -4 -10 3 -22 0 -25 -5 -4 -6 3 -8 16 -5 19 4 20 3
8 -6 -9 -7 -10 -11 -3 -11 6 0 15 5 18 10 4 6 11 7 17 4 7 -5 9 -2 5 8 -5 16
7 19 28 7 20 -11 65 -9 65 4 1 6 7 1 15 -13 8 -14 14 -19 15 -12 0 6 5 12 11
12 5 0 7 -6 3 -12 -5 -8 0 -7 11 2 11 9 16 10 11 3 -5 -9 -1 -13 12 -13 11 0
23 -7 26 -16 3 -8 2 -12 -4 -9 -6 3 -11 1 -11 -4 -3 -26 -4 -30 -9 -34 -3 -3
-24 -2 -47 2 -38 7 -41 7 -33 -9 8 -15 6 -17 -10 -13 -11 3 -17 10 -13 16 4 6
0 8 -11 4 -9 -4 -14 -3 -11 2 3 5 1 13 -5 16 -6 4 -10 3 -9 -2 1 -4 1 -17 -1
-28 -1 -19 -2 -19 -9 -1 -4 11 -15 20 -24 22 -21 3 -21 0 0 -22 16 -16 16 -16
-5 -10 -12 4 -27 4 -34 -1 -19 -11 -39 -13 -32 -2 3 5 10 6 16 3 7 -5 8 -2 3
6 -5 8 -4 11 3 6 6 -3 13 -2 16 3 8 12 -13 8 -41 -7 -15 -8 -20 -18 -16 -30 3
-9 2 -14 -2 -9 -5 4 -9 17 -10 29 -1 12 -9 22 -18 24 -11 1 -14 -2 -10 -9 11
-18 12 -38 2 -31 -5 3 -9 -1 -9 -8 0 -10 -2 -10 -9 1 -6 9 -11 10 -15 2 -9
-14 -26 -14 -26 0 0 5 5 7 12 3 7 -4 8 -3 4 4 -4 7 1 10 14 7 11 -2 20 0 20 6
0 11 -27 7 -55 -8 -11 -6 -26 -8 -34 -5 -9 3 -11 0 -6 -9 5 -8 -2 -5 -15 6
-13 11 -20 15 -16 8 4 -8 -2 -11 -21 -10 -19 1 -28 -3 -28 -13 0 -22 -15 -29
-40 -20 -23 9 -101 -21 -88 -34 4 -4 -1 -4 -11 0 -13 5 -17 4 -13 -3 8 -13
-19 -11 -30 2 -4 4 -1 5 7 0 12 -6 13 -5 3 5 -19 20 -27 5 -12 -22 l12 -23
-23 20 -23 20 12 -25 12 -25 -22 25 c-12 14 -20 18 -17 10 7 -20 -27 -56 -38
-39 -5 8 -3 10 7 4 8 -5 10 -4 6 0 -10 11 -39 16 -32 6 2 -5 -2 -17 -11 -27
-11 -14 -14 -15 -12 -4 2 9 -1 15 -7 15 -5 0 -9 -3 -7 -7 2 -8 -14 -12 -31 -9
-4 1 -3 -7 2 -18 9 -16 8 -18 -9 -14 -11 3 -17 10 -13 16 3 6 1 7 -5 3 -6 -4
-8 -14 -5 -24 6 -15 5 -15 -10 -3 -15 12 -17 12 -11 -4 6 -14 4 -16 -7 -9 -24
15 -35 12 -36 -10 -2 -21 -2 -21 13 -2 8 11 14 15 14 9 0 -7 -5 -15 -10 -18
-6 -4 -7 -12 -3 -18 3 -7 -3 -4 -14 6 -18 16 -21 16 -27 2 -4 -11 -2 -14 7 -9
8 6 8 3 -1 -8 -13 -17 -42 -14 -42 3 0 5 -5 9 -10 9 -7 0 -7 -6 0 -20 10 -19
6 -24 -13 -21 -5 1 -11 -8 -14 -19 -3 -11 -9 -20 -14 -20 -5 0 -4 12 1 26 7
16 7 23 0 19 -6 -3 -10 -13 -10 -22 0 -10 -6 -13 -16 -9 -14 5 -15 4 -4 -9 11
-14 7 -19 -12 -16 -5 0 -8 -3 -8 -9 0 -5 -5 -10 -10 -10 -7 0 -7 6 0 19 5 11
10 23 10 28 -1 4 -7 -3 -15 -17 -9 -18 -10 -29 -3 -38 8 -9 7 -11 -6 -6 -9 3
-16 11 -16 17 0 6 -3 7 -7 4 -3 -4 2 -17 13 -28 l19 -22 -30 19 -30 18 20 -22
19 -23 -28 11 c-27 10 -28 9 -15 -7 9 -11 10 -14 2 -9 -7 4 -13 2 -13 -3 0 -6
-5 -11 -11 -11 -5 0 -7 5 -4 10 12 19 -3 10 -36 -22 -19 -17 -29 -28 -22 -25
6 4 14 3 17 -2 3 -5 -1 -12 -10 -15 -8 -3 -12 -10 -9 -16 3 -5 1 -10 -5 -10
-7 0 -10 6 -7 13 3 8 1 20 -5 28 -8 11 -9 10 -4 -3 3 -11 -3 -23 -14 -31 -11
-8 -17 -17 -13 -20 3 -4 1 -7 -6 -7 -7 0 -9 -4 -6 -10 3 -5 -1 -10 -9 -10 -9
0 -15 -6 -14 -12 2 -8 -5 -12 -16 -10 -11 2 -15 -1 -11 -7 3 -6 1 -11 -4 -11
-6 0 -11 -5 -11 -11 0 -7 -8 -18 -17 -26 -10 -8 -12 -11 -4 -7 9 5 12 3 7 -5
-4 -6 -13 -11 -19 -10 -26 3 -38 -2 -31 -12 5 -8 9 -8 14 1 4 7 10 8 13 3 3
-5 -3 -15 -15 -22 -11 -7 -17 -8 -13 -2 7 12 -8 15 -19 4 -3 -4 4 -13 16 -21
l23 -13 -23 5 c-19 4 -23 1 -19 -13 2 -10 -1 -18 -8 -18 -7 0 -11 7 -8 16 4
14 4 14 -6 1 -16 -23 -13 -40 7 -34 14 5 14 4 2 -4 -10 -8 -18 -8 -27 0 -11 9
-12 6 -3 -16 6 -17 6 -25 0 -21 -11 7 -42 -8 -41 -18 3 -21 0 -27 -9 -22 -6 4
-7 11 -4 17 4 7 2 8 -5 4 -6 -4 -9 -12 -5 -17 9 -15 -5 -59 -18 -59 -9 0 -9 3
0 12 7 7 12 16 12 22 0 5 -6 1 -14 -10 -13 -17 -12 -21 2 -38 9 -11 12 -16 5
-13 -6 4 -13 4 -16 0 -2 -5 -2 -2 -1 5 4 16 -7 15 -31 -5 -16 -13 -17 -15 -2
-10 9 4 17 2 17 -3 0 -6 -4 -10 -10 -10 -5 0 -10 -4 -10 -10 0 -5 8 -7 18 -4
14 5 14 4 -2 -6 -15 -10 -20 -9 -27 1 -6 9 -9 10 -9 2 0 -6 8 -20 18 -29 16
-17 16 -18 -1 -11 -13 5 -17 2 -15 -11 2 -9 -3 -16 -10 -14 -7 1 -15 -5 -18
-13 -3 -8 -11 -12 -17 -8 -6 3 -7 1 -3 -5 4 -7 9 -20 11 -31 3 -15 -1 -18 -18
-13 -20 5 -21 4 -7 -13 11 -14 12 -19 2 -22 -6 -3 -10 -9 -7 -14 4 -5 -1 -6
-10 -3 -14 6 -14 8 2 20 10 7 13 14 8 14 -22 0 -34 -22 -25 -45 5 -13 6 -26 2
-30 -4 -4 -7 -12 -7 -18 0 -7 -11 -12 -25 -12 -19 0 -24 -5 -22 -20 3 -17 2
-17 -15 -4 -17 13 -17 13 -4 -4 10 -13 11 -21 3 -29 -6 -6 -8 -17 -5 -26 4
-10 2 -13 -5 -8 -8 5 -10 2 -6 -9 5 -12 9 -13 20 -4 10 8 11 15 4 24 -8 10 -8
15 1 21 7 4 9 3 5 -4 -3 -6 -2 -13 4 -17 6 -4 0 -19 -14 -38 -20 -26 -23 -36
-14 -52 9 -17 6 -16 -17 5 l-29 25 22 -32 c16 -23 19 -34 11 -39 -7 -4 -9 -3
-6 3 4 6 -3 19 -16 29 -13 11 -17 13 -10 3 7 -9 10 -28 6 -45 -3 -16 -6 -45
-7 -65 -1 -32 -4 -36 -24 -34 -12 1 -25 -2 -29 -8 -3 -6 -1 -7 5 -3 7 4 12 2
12 -4 0 -6 4 -8 10 -5 6 3 10 2 10 -3 0 -15 -13 -22 -25 -14 -6 4 1 -4 15 -16
23 -22 23 -23 2 -12 -16 8 -27 8 -40 0 -16 -11 -16 -11 0 -6 20 6 34 -9 18
-19 -6 -4 -7 -11 -4 -17 4 -6 -2 -8 -17 -3 -19 5 -21 4 -9 -4 8 -6 11 -11 6
-11 -5 0 -4 -6 3 -13 8 -10 7 -17 -2 -26 -9 -9 -9 -14 2 -20 11 -7 9 -10 -8
-16 -15 -4 -20 -12 -16 -22 5 -14 3 -14 -12 -2 -11 9 -14 10 -9 2 4 -8 1 -13
-8 -13 -9 0 -16 -5 -16 -11 0 -5 5 -7 12 -3 7 4 8 3 4 -5 -4 -6 -15 -10 -24
-9 -11 2 -17 -3 -16 -14 1 -10 -2 -15 -7 -12 -5 3 -9 0 -9 -7 0 -8 -5 -7 -17
2 -15 13 -15 12 -5 -7 12 -22 7 -34 -12 -34 -6 0 -4 5 4 10 12 7 10 9 -7 7
-17 -1 -20 -5 -12 -19 6 -12 6 -18 -1 -18 -5 0 -10 4 -10 8 0 5 -7 9 -15 9
-13 0 -12 -4 2 -20 11 -13 12 -17 4 -12 -11 6 -13 4 -7 -11 4 -10 4 -15 0 -12
-4 4 -16 2 -27 -3 -16 -9 -17 -13 -6 -21 11 -8 10 -8 -5 -4 -22 8 -60 -37 -62
-74 -1 -14 -3 -27 -4 -30 -1 -3 -2 -9 -1 -14 1 -5 -4 -4 -11 2 -11 9 -14 7
-15 -9 -1 -11 3 -17 9 -13 7 4 7 1 0 -12 -6 -11 -10 -22 -11 -26 -2 -12 -9
-14 -18 -4 -4 5 -3 7 3 3 6 -3 10 1 9 11 -1 23 -20 27 -20 4 0 -9 -6 -16 -12
-15 -7 2 -13 -2 -13 -8 0 -6 7 -8 16 -5 8 3 12 2 9 -4 -3 -6 0 -10 7 -10 8 0
6 -5 -5 -11 -9 -6 -15 -14 -12 -19 3 -5 0 -12 -6 -16 -7 -4 -9 -3 -5 4 3 6 1
14 -5 18 -7 4 -9 3 -5 -4 3 -5 0 -13 -6 -15 -10 -4 -10 -6 0 -6 6 -1 12 -8 12
-17 0 -8 -4 -13 -9 -9 -5 3 -13 1 -16 -5 -4 -6 -1 -9 6 -8 6 2 14 -3 17 -11 3
-8 0 -11 -7 -7 -20 13 -16 -51 4 -67 6 -4 1 -6 -10 -5 -11 2 -22 -1 -23 -7 -2
-5 -9 -16 -15 -24 -9 -11 -9 -13 -1 -8 7 4 15 0 18 -9 5 -13 1 -15 -21 -10
-23 5 -25 4 -10 -4 22 -14 22 -36 0 -50 -16 -10 -16 -11 -1 -6 9 2 19 -2 22
-10 3 -9 11 -12 17 -8 8 4 9 3 5 -5 -4 -6 -11 -9 -16 -6 -4 3 -11 -2 -14 -11
-3 -8 -10 -13 -14 -10 -5 3 -9 -1 -9 -9 0 -8 3 -14 6 -13 28 3 38 -20 16 -39
-4 -4 -5 -3 -1 4 3 6 2 14 -3 17 -5 4 -8 -2 -6 -11 2 -10 4 -21 4 -25 1 -3 9
-9 19 -11 16 -4 16 -5 0 -6 -10 0 -18 -6 -18 -12 0 -5 -6 -7 -12 -3 -9 5 -9 3
1 -9 7 -9 11 -28 9 -42 -3 -14 -1 -28 4 -31 13 -8 -2 -25 -15 -18 -7 4 -8 3
-4 -2 5 -5 13 -10 18 -10 5 -1 12 -2 15 -3 4 0 1 -8 -6 -16 -15 -19 3 -45 31
-45 10 0 21 -4 24 -10 4 -6 -1 -7 -12 -3 -10 3 -15 3 -11 -2 4 -4 3 -16 -2
-26 -7 -12 -6 -20 2 -25 7 -4 8 -3 4 4 -4 7 -2 12 3 12 16 0 14 -10 -7 -34
-16 -20 -16 -20 1 -7 15 12 17 11 17 -8 0 -12 -4 -20 -8 -17 -4 2 -8 -4 -8
-14 0 -11 2 -17 4 -15 5 4 32 -20 32 -29 0 -3 -6 -3 -14 0 -8 3 -17 1 -20 -4
-3 -5 2 -9 11 -8 10 0 18 -5 18 -11 0 -15 13 -18 23 -7 4 4 2 4 -4 1 -6 -3
-11 0 -11 8 0 18 14 20 20 3 6 -21 -4 -48 -17 -41 -6 4 -5 -1 3 -10 7 -9 17
-15 21 -12 4 3 14 -3 21 -13 13 -15 12 -16 -3 -4 -11 9 -18 10 -23 2 -3 -5 -2
-10 4 -10 5 0 8 -9 6 -20 -2 -11 1 -22 6 -25 5 -4 6 -11 3 -17 -4 -6 -2 -8 3
-5 6 4 24 0 39 -8 21 -11 24 -15 11 -15 -10 0 -15 -5 -12 -10 4 -6 10 -8 15
-5 4 3 6 -5 2 -17 -3 -14 -1 -19 6 -14 8 5 10 2 6 -8 -4 -11 0 -16 10 -16 9 0
16 -5 16 -11 0 -5 -6 -7 -12 -3 -9 5 -9 2 1 -9 7 -9 19 -17 25 -17 6 0 4 5 -4
11 -13 9 -13 10 0 6 8 -2 14 -10 12 -17 -2 -8 3 -10 13 -6 9 3 13 2 10 -4 -3
-5 -8 -19 -10 -31 -4 -18 -2 -19 12 -7 12 9 15 9 9 1 -4 -7 -3 -13 3 -13 6 0
8 -8 5 -17 -5 -15 -3 -15 11 2 17 20 17 20 10 -4 -5 -17 -4 -21 5 -16 9 6 9 3
0 -15 -11 -20 -10 -21 12 -9 21 11 22 11 9 -5 -13 -15 -11 -16 20 -11 23 4 29
2 19 -4 -8 -5 -18 -7 -22 -5 -4 3 -8 0 -8 -5 0 -6 12 -11 28 -12 l27 -1 -25
-8 -25 -8 25 -2 c14 -1 28 -2 31 -2 3 1 5 -10 3 -23 -1 -14 3 -23 9 -22 7 1
11 -7 9 -18 -2 -16 -1 -17 7 -5 7 10 5 20 -6 33 -16 17 -16 17 0 11 17 -6 21
-16 18 -41 -2 -16 11 -17 27 -1 7 7 12 8 12 2 0 -5 -5 -15 -12 -22 -9 -9 -8
-12 5 -12 9 0 17 5 17 10 0 6 6 5 14 -2 8 -7 12 -17 9 -22 -3 -4 -9 -3 -13 4
-4 7 -10 8 -13 4 -3 -5 1 -15 9 -22 8 -7 14 -8 14 -2 0 5 5 10 11 10 5 0 7 -4
4 -10 -3 -5 -2 -10 3 -10 5 0 14 -12 21 -27 11 -24 11 -25 -5 -12 -16 13 -16
12 -6 -8 10 -18 9 -21 -6 -18 -27 4 -45 -14 -30 -32 10 -12 9 -18 -5 -28 -9
-7 -17 -20 -17 -30 0 -13 -3 -15 -13 -7 -10 8 -13 6 -13 -8 0 -10 4 -16 9 -13
5 3 5 -3 -1 -13 -5 -11 -7 -26 -5 -34 4 -13 3 -13 -6 0 -5 8 -7 18 -5 22 3 4
-2 5 -11 1 -12 -4 -13 -8 -4 -13 6 -5 9 -15 6 -25 -4 -9 -11 -13 -17 -10 -6 4
-7 -1 -3 -10 5 -13 7 -14 14 -3 5 7 9 8 9 2 0 -5 -9 -20 -20 -32 -21 -22 -15
-31 8 -12 9 7 9 7 2 -2 -6 -7 -5 -18 1 -31 9 -15 8 -18 -2 -12 -9 6 -11 3 -6
-9 5 -12 3 -16 -5 -13 -7 2 -12 10 -10 16 1 7 -2 9 -9 6 -7 -5 -1 -17 17 -36
15 -16 22 -29 16 -29 -7 0 -12 4 -12 9 0 5 -7 12 -16 15 -8 3 -13 2 -9 -3 3
-5 2 -11 -2 -14 -5 -2 -3 -2 4 -1 6 2 11 -5 10 -15 -1 -11 -7 -17 -14 -14 -7
3 -13 0 -13 -6 0 -6 3 -10 8 -10 19 3 29 -2 29 -16 0 -8 -3 -15 -7 -15 -3 0
-15 -7 -26 -15 -13 -11 -14 -14 -4 -13 8 2 18 7 22 13 4 5 10 7 13 3 11 -10
12 -67 2 -61 -5 3 -6 14 -3 26 3 14 2 17 -6 9 -11 -11 -2 -52 11 -52 5 0 6
-11 3 -25 -2 -15 -9 -22 -16 -18 -6 3 -5 0 2 -8 11 -12 14 -12 22 1 6 9 10 10
10 3 0 -7 -8 -17 -17 -22 -17 -10 -17 -10 0 -11 9 0 17 -5 17 -11 0 -5 -4 -8
-8 -5 -5 3 -9 -2 -9 -10 0 -9 6 -13 16 -9 12 5 13 3 4 -6 -13 -13 -7 -39 9
-39 6 0 5 6 -2 15 -9 10 -9 15 -1 15 11 0 15 -13 12 -39 -2 -8 2 -10 11 -5 9
5 8 2 -2 -11 -9 -11 -10 -16 -3 -11 8 4 13 2 13 -4 0 -6 5 -8 12 -4 7 4 8 3 4
-5 -4 -6 -11 -9 -16 -6 -5 3 -12 0 -16 -6 -4 -7 -3 -9 3 -6 5 3 17 -5 27 -18
10 -14 22 -22 27 -20 4 3 11 0 15 -6 4 -8 3 -9 -4 -5 -7 4 -12 1 -12 -9 0 -10
5 -13 13 -9 7 5 6 0 -3 -11 -14 -16 -13 -17 5 -11 16 4 21 1 23 -14 4 -43 6
-49 16 -47 6 1 11 -7 11 -18 0 -13 7 -20 19 -20 11 0 21 -6 23 -12 3 -9 10
-10 22 -4 13 8 17 5 18 -12 2 -18 0 -19 -8 -7 -9 13 -10 13 -6 0 2 -8 8 -15
13 -15 28 -2 55 -18 50 -31 -4 -11 -2 -12 13 -5 16 9 18 7 15 -14 -1 -14 2
-23 7 -19 5 3 6 11 3 17 -4 7 5 0 20 -16 26 -26 43 -36 32 -18 -5 8 8 14 39
20 6 0 11 -8 11 -19 1 -11 -2 -17 -7 -14 -4 2 -5 12 -2 22 6 15 5 15 -10 3
-10 -8 -16 -14 -15 -15 2 -1 14 -10 27 -21 14 -11 22 -15 18 -9 -7 11 66 14
78 3 3 -4 -6 -5 -20 -4 -14 2 -25 -1 -25 -5 0 -5 12 -7 28 -6 15 2 35 0 44 -5
14 -7 16 -6 12 6 -3 8 -11 12 -17 8 -6 -4 -7 -1 -2 6 5 9 11 9 17 3 6 -6 17
-8 26 -5 9 4 13 2 9 -4 -4 -7 0 -10 9 -9 8 1 20 9 25 17 7 11 9 11 9 -3 0 -11
5 -15 15 -12 8 4 12 11 8 17 -3 6 -1 7 6 3 9 -6 9 -11 0 -22 -6 -8 -9 -17 -5
-21 3 -3 6 -1 6 5 0 7 7 12 16 12 14 0 14 -3 4 -15 -15 -18 1 -20 19 -3 10 11
12 10 9 -2 -2 -8 2 -14 9 -13 9 2 10 -4 4 -20 -6 -15 -4 -26 6 -36 12 -11 13
-15 1 -22 -14 -9 -10 -10 34 -13 14 0 30 -5 35 -9 4 -5 1 -7 -7 -5 -17 4 -21
-21 -6 -41 9 -12 7 -13 -7 -8 -11 4 -16 3 -12 -4 10 -14 28 -6 31 14 1 10 -2
14 -8 11 -7 -4 -8 -2 -4 5 4 6 12 9 17 5 5 -3 7 -9 4 -14 -3 -5 3 -14 12 -20
17 -11 17 -11 0 -6 -14 4 -16 1 -13 -19 3 -15 1 -23 -5 -20 -5 4 -7 10 -4 15
8 13 -21 6 -41 -10 -11 -9 -15 -10 -10 -3 5 9 -2 13 -24 13 -17 0 -29 -4 -26
-8 3 -5 -1 -9 -8 -9 -7 0 -13 6 -13 13 0 7 5 10 10 7 6 -3 7 -1 3 6 -6 9 -11
9 -22 0 -7 -6 -11 -16 -7 -22 3 -6 1 -7 -6 -3 -6 4 -9 11 -6 16 3 4 -2 11 -11
14 -23 9 -31 7 -16 -3 11 -7 10 -9 -3 -14 -11 -5 -14 -3 -9 5 5 8 1 9 -11 4
-18 -6 -18 -6 -2 12 14 15 14 19 2 19 -8 0 -12 -4 -9 -9 3 -4 -8 -8 -23 -8
-16 0 -35 -6 -42 -13 -11 -10 -12 -9 -6 2 6 11 4 13 -8 8 -9 -3 -19 -2 -22 3
-3 5 -12 7 -20 3 -8 -3 -15 0 -15 7 0 6 5 8 13 4 8 -5 8 -2 -2 9 -13 17 -26
24 -17 9 2 -4 -7 -12 -20 -19 -15 -7 -22 -7 -18 -1 5 7 -4 9 -25 6 -18 -3 -35
0 -38 5 -4 6 -1 7 7 2 9 -5 11 -4 6 3 -10 17 -26 15 -26 -3 0 -8 -5 -15 -11
-15 -5 0 -7 5 -4 10 3 5 1 10 -5 10 -6 0 -8 5 -4 12 4 7 3 8 -5 4 -6 -4 -9
-11 -6 -16 3 -5 1 -12 -5 -15 -6 -4 -10 -3 -9 2 4 22 -3 25 -17 7 -8 -10 -13
-13 -9 -6 4 7 0 12 -9 12 -9 0 -16 6 -16 13 -1 6 -6 2 -14 -11 l-12 -23 -12
23 c-7 13 -10 15 -8 6 3 -10 1 -20 -4 -23 -6 -4 -10 -1 -10 5 0 6 -4 8 -10 5
-5 -3 -10 0 -11 7 0 7 -4 4 -9 -7 -8 -18 -9 -18 -10 5 -1 23 -2 23 -10 5 -5
-11 -9 -14 -9 -6 -1 11 -4 11 -18 0 -14 -12 -16 -12 -9 1 4 8 0 6 -8 -4 -16
-20 -16 -20 -16 0 0 14 -3 15 -8 6 -6 -9 -16 -10 -34 -3 -18 7 -29 6 -37 -2
-8 -8 -11 -8 -11 1 0 7 -5 12 -11 12 -5 0 -8 -4 -5 -9 9 -14 -19 -7 -40 9 -15
13 -16 13 -9 1 6 -11 4 -13 -8 -8 -9 3 -19 2 -22 -4 -4 -5 -11 -7 -16 -3 -5 3
-6 10 -3 16 4 7 2 8 -5 4 -6 -4 -9 -11 -6 -16 3 -5 0 -12 -6 -16 -7 -4 -9 -3
-5 4 3 6 2 13 -4 17 -5 3 -10 0 -10 -7 0 -9 -3 -9 -10 2 -8 13 -10 13 -10 1 0
-11 -4 -9 -15 5 -15 18 -15 18 -8 0 4 -13 3 -17 -5 -12 -7 4 -12 2 -12 -6 -1
-8 -7 -5 -17 7 -13 16 -14 17 -9 3 18 -52 18 -54 2 -34 -9 11 -16 14 -16 8 0
-15 45 -55 64 -58 10 -1 12 4 8 14 -5 14 -3 15 10 4 13 -10 17 -10 21 0 4 10
6 10 6 1 1 -7 6 -13 12 -13 5 0 7 4 4 10 -3 6 1 7 10 4 13 -5 13 -9 3 -22 -12
-13 -11 -14 9 -2 12 8 19 19 16 25 -4 5 3 2 14 -8 12 -11 24 -14 27 -9 3 6 0
13 -6 15 -8 4 -9 6 -2 6 6 1 18 -7 25 -16 8 -9 9 -14 3 -10 -6 3 -11 0 -11 -8
0 -8 4 -15 8 -15 11 0 20 31 12 43 -5 8 -2 8 9 0 8 -7 19 -9 24 -5 5 4 0 -4
-11 -18 -11 -14 -13 -19 -5 -12 8 6 25 12 38 12 15 0 21 4 16 12 -4 7 -3 8 4
4 6 -4 8 -14 5 -24 -6 -14 -4 -15 9 -4 9 7 24 9 34 5 17 -6 18 -5 4 13 -14 18
-14 18 5 3 22 -17 33 -18 53 -6 8 6 12 4 10 -5 -2 -7 3 -12 10 -10 8 1 11 -2
7 -8 -3 -5 -2 -10 4 -10 5 0 12 6 14 13 4 7 6 6 6 -4 2 -27 41 -34 41 -7 0 4
-5 8 -11 8 -5 0 -7 -5 -3 -12 5 -7 3 -8 -5 -3 -9 5 -10 10 -2 18 7 7 14 7 24
-1 10 -9 17 -8 27 1 7 6 10 7 7 2 -3 -6 3 -16 13 -23 15 -9 22 -9 34 3 8 9 16
10 18 5 4 -14 58 -23 58 -10 0 6 -5 8 -12 4 -7 -4 -8 -3 -4 5 6 9 11 9 23 -1
18 -15 45 -20 37 -7 -3 5 -11 6 -17 3 -7 -4 -9 -3 -4 1 11 13 46 13 41 1 -2
-6 7 -11 20 -11 17 0 22 3 15 12 -7 8 -5 10 10 6 12 -3 18 -10 14 -16 -3 -5
-1 -7 5 -3 6 3 14 2 17 -4 5 -8 11 -7 21 1 7 6 21 9 29 5 9 -3 15 0 15 10 0 8
5 12 10 9 6 -4 8 -10 5 -14 -2 -5 7 -6 22 -3 15 3 24 1 20 -5 -3 -5 0 -10 7
-10 7 0 13 6 13 13 0 7 -5 10 -10 7 -6 -3 -7 -1 -3 5 5 9 14 7 32 -4 23 -15
26 -15 43 0 15 14 20 14 29 3 7 -8 9 -17 5 -20 -3 -4 -1 -7 6 -7 7 0 11 7 8
15 -4 8 -1 17 5 21 7 4 8 3 4 -4 -7 -11 25 -17 62 -13 6 1 12 -3 12 -9 0 -5
-5 -10 -11 -10 -16 0 9 -28 35 -41 18 -9 17 -7 -3 11 -18 15 -21 23 -13 30 7
6 10 7 7 4 -9 -13 16 -33 33 -27 10 3 13 1 7 -4 -13 -11 -15 -53 -2 -53 5 0 5
-6 -2 -14 -9 -10 -8 -16 4 -26 8 -7 12 -16 9 -21 -3 -5 0 -8 8 -7 7 2 12 -3
10 -10 -1 -8 1 -11 6 -8 4 2 14 1 22 -5 13 -7 12 -9 -2 -9 -9 0 -20 -5 -24
-12 -5 -8 -2 -9 12 -4 10 4 15 4 11 0 -4 -4 -1 -14 6 -22 10 -13 9 -14 -1 -8
-7 4 -20 2 -30 -6 -16 -12 -16 -11 -2 6 14 18 14 19 -7 8 -31 -17 -38 -15 -22
6 13 15 12 16 -4 3 -12 -9 -14 -17 -7 -26 7 -8 5 -12 -5 -12 -7 0 -14 3 -13 6
2 17 -3 25 -10 14 -4 -6 -16 -13 -27 -15 -11 -1 -24 -7 -28 -13 -5 -5 -5 1 -2
14 5 17 4 22 -6 19 -8 -3 -13 -16 -12 -29 1 -13 0 -17 -3 -8 -5 17 -54 24 -54
8 0 -5 3 -8 8 -8 19 3 32 -2 32 -12 0 -8 -5 -8 -15 1 -12 10 -15 10 -15 -1 0
-8 -6 -6 -16 7 -11 13 -14 14 -11 4 3 -11 -2 -16 -19 -16 -15 0 -26 7 -30 20
-6 17 -7 18 -16 2 -5 -9 -14 -13 -20 -10 -7 4 -8 2 -4 -5 6 -9 11 -9 22 0 10
8 14 8 14 0 0 -10 -14 -15 -34 -12 -5 1 -12 -3 -16 -9 -5 -8 -9 -6 -13 5 -4 9
-3 13 3 10 6 -3 10 -2 10 3 0 16 -66 7 -84 -11 -21 -21 -33 -23 -17 -3 9 11 9
16 0 22 -8 4 -9 3 -5 -4 4 -7 1 -12 -8 -12 -23 0 -31 4 -28 13 1 4 -7 3 -19
-3 -11 -7 -28 -9 -36 -6 -14 6 -14 4 -2 -10 13 -16 12 -16 -8 -6 -28 15 -46
15 -37 0 4 -7 3 -8 -5 -4 -8 6 -9 12 -2 20 8 9 7 13 -4 13 -7 0 -14 -3 -13 -6
3 -26 -3 -31 -18 -17 -14 14 -17 14 -31 1 -13 -13 -33 -13 -33 1 0 3 4 3 9 -1
5 -3 12 -2 14 2 3 5 -23 8 -58 8 -35 0 -61 -3 -59 -6 2 -4 -3 -10 -12 -13 -12
-4 -15 -2 -10 9 3 8 1 15 -3 15 -5 0 -12 -7 -15 -16 -4 -9 -9 -14 -13 -11 -3
4 -13 1 -22 -6 -14 -11 -14 -10 -2 6 8 10 9 17 3 17 -6 0 -13 -4 -17 -9 -3 -5
-19 -9 -35 -9 -16 1 -28 4 -25 7 2 4 -5 7 -15 7 -17 0 -17 -2 -5 -16 13 -14
12 -16 -6 -17 -10 -1 -17 2 -14 8 4 5 2 9 -3 9 -17 0 -22 -13 -9 -29 11 -14
10 -14 -6 -2 -20 16 -79 23 -71 9 3 -5 14 -6 24 -3 10 3 21 2 24 -3 8 -13 -51
-7 -68 7 -12 10 -14 9 -9 -8 3 -12 10 -18 16 -14 6 4 7 1 3 -6 -6 -9 -12 -9
-25 3 -24 21 -47 6 -32 -22 8 -15 8 -23 -1 -28 -7 -4 -8 -3 -4 4 4 7 2 12 -4
12 -6 0 -9 4 -5 9 3 5 0 13 -7 17 -7 4 -10 4 -6 -1 4 -4 3 -17 -3 -28 -7 -13
-8 -17 -1 -13 6 4 15 -2 21 -11 6 -10 11 -12 11 -5 0 6 7 12 16 12 8 0 13 -4
10 -9 -7 -11 13 -9 32 2 7 5 12 4 12 -2 0 -6 5 -11 11 -11 5 0 7 4 4 10 -4 6
3 6 21 0 22 -9 25 -8 21 4 -4 10 -1 13 9 9 7 -3 14 -9 14 -14 0 -5 5 -9 11 -9
5 0 7 6 3 13 -5 7 0 6 11 -3 17 -14 18 -13 12 2 -4 12 -2 15 8 11 8 -3 13 -9
10 -13 -3 -5 0 -12 6 -16 8 -5 9 -3 4 6 -6 10 -3 12 13 8 23 -6 31 7 10 15
-10 4 -10 6 0 6 7 1 15 -6 19 -15 4 -11 8 -12 13 -4 4 7 13 9 19 6 6 -4 8 -12
5 -18 -4 -7 -2 -8 5 -4 6 4 8 13 4 19 -4 7 2 5 12 -3 10 -8 16 -10 12 -4 -4 7
0 15 9 18 8 3 12 2 9 -4 -3 -6 -2 -10 4 -10 5 0 14 7 19 16 8 15 10 15 15 0 4
-10 3 -15 -1 -12 -5 3 -9 -1 -9 -9 0 -9 4 -11 11 -6 6 5 19 7 29 6 9 -2 17 1
17 7 0 6 -7 8 -14 5 -9 -4 -13 -1 -10 6 2 7 14 13 24 14 11 1 18 -2 16 -6 -3
-4 0 -13 6 -21 8 -12 9 -12 4 2 -3 10 -1 20 5 23 5 4 6 12 2 18 -8 13 28 -12
39 -28 7 -9 13 16 9 38 -1 4 9 2 21 -4 13 -7 24 -10 25 -8 1 2 5 0 10 -5 5 -5
2 -6 -6 -1 -10 6 -12 4 -7 -4 6 -8 12 -9 20 -2 8 7 16 7 23 0 6 -6 10 -5 10 5
0 8 -8 13 -19 11 -10 -2 -18 0 -18 6 0 5 12 7 26 5 20 -4 24 -2 20 10 -3 9 -2
12 5 9 5 -4 7 -16 4 -28 -2 -12 -2 -16 1 -9 3 6 12 12 20 12 9 0 13 4 10 8 -3
4 16 7 42 7 32 -1 46 -5 44 -14 -1 -7 2 -10 8 -6 6 3 8 10 5 15 -3 4 8 10 24
12 20 3 27 0 24 -8 -6 -17 26 -11 38 7 7 12 9 11 9 -3 0 -9 5 -20 12 -24 7 -4
8 -3 4 4 -4 7 -1 12 9 12 9 0 14 4 11 8 -3 5 1 9 9 9 8 0 12 -4 10 -7 -3 -4 6
-7 20 -7 14 0 23 3 20 7 -5 8 32 6 41 -3 4 -3 16 -2 27 4 14 8 18 8 13 0 -5
-7 3 -9 25 -4 26 5 31 3 24 -8 -6 -11 -5 -12 6 -1 11 10 17 8 32 -10 18 -22
18 -22 8 -1 -8 15 -8 24 -1 28 6 4 10 3 9 -2 -4 -22 2 -34 14 -27 6 4 9 4 5
-1 -4 -4 0 -14 10 -22 15 -12 14 -13 -7 -2 -21 10 -23 9 -17 -6 5 -15 4 -16
-8 -6 -11 9 -15 9 -18 0 -2 -7 -12 -13 -21 -15 -9 -1 -15 2 -11 7 3 5 11 6 17
3 7 -4 9 -3 4 1 -11 13 -55 12 -50 -1 2 -6 -3 -11 -11 -11 -8 0 -12 5 -9 11 4
6 -3 3 -14 -7 -13 -11 -23 -14 -27 -8 -9 14 -38 1 -32 -15 8 -22 -18 -35 -40
-20 -16 12 -22 11 -48 -7 -16 -11 -26 -16 -22 -9 5 8 2 10 -8 6 -9 -3 -14 -9
-11 -13 2 -4 -6 -7 -18 -7 -13 1 -22 -5 -22 -14 0 -10 -9 -14 -29 -13 -23 2
-26 0 -16 -12 11 -13 9 -13 -16 0 -26 14 -30 13 -41 -2 -7 -9 -13 -11 -13 -5
0 7 -5 12 -11 12 -5 0 -7 -4 -4 -10 3 -5 2 -10 -4 -10 -5 0 -12 6 -14 13 -4 9
-6 9 -6 -1 -1 -7 -5 -10 -11 -7 -9 6 -14 -8 -11 -28 0 -4 -2 -6 -6 -5 -5 0
-16 -2 -26 -7 -9 -4 -26 -5 -37 -2 -11 3 -23 0 -27 -5 -3 -7 -1 -8 5 -4 7 4
12 2 12 -3 0 -16 -16 -13 -36 6 -17 17 -18 17 -11 1 4 -12 2 -18 -9 -18 -9 0
-12 5 -8 13 6 10 4 10 -7 0 -7 -7 -17 -13 -22 -13 -4 0 -5 6 -1 13 6 9 5 9 -8
0 -8 -7 -17 -12 -19 -10 -2 1 2 -3 9 -10 11 -9 7 -12 -17 -18 -29 -6 -36 -15
-32 -39 1 -5 -4 -4 -12 2 -8 7 -22 10 -31 6 -9 -3 -16 -1 -16 5 0 6 -5 11 -11
11 -5 0 -7 -4 -4 -10 3 -5 1 -10 -5 -10 -6 0 -8 -5 -4 -12 5 -9 2 -9 -9 1 -20
16 -23 25 -4 15 9 -5 9 -4 0 6 -15 16 -21 12 -26 -21 -2 -13 -7 -23 -10 -21
-4 1 -10 2 -13 2 -4 0 -1 6 5 14 9 11 9 16 0 22 -8 4 -9 3 -5 -4 4 -7 2 -12
-5 -12 -6 0 -9 -8 -6 -20 3 -11 1 -18 -3 -15 -5 3 -11 -1 -14 -7 -3 -7 -3 -2
0 12 4 21 3 22 -6 7 -6 -9 -15 -15 -19 -12 -12 7 -34 -22 -27 -34 3 -5 0 -12
-6 -15 -7 -3 -3 -3 9 0 19 4 21 2 17 -23 -3 -19 -2 -24 5 -14 5 9 20 12 40 9
19 -3 31 0 31 7 0 6 7 12 15 12 11 0 12 -4 4 -13 -7 -8 -6 -14 2 -20 7 -4 10
-3 7 2 -3 5 0 15 8 22 8 7 14 8 14 2 0 -5 4 -10 10 -10 5 0 7 6 4 14 -3 8 0
17 7 22 8 5 10 3 4 -6 -5 -8 -3 -11 6 -8 8 3 13 15 13 28 -2 23 -1 23 12 5 11
-15 14 -15 14 -4 0 9 6 16 14 16 8 0 12 -7 9 -16 -4 -12 -3 -13 4 -3 6 7 18
10 29 6 18 -6 18 -6 1 7 -16 13 -15 14 8 15 14 1 22 -2 19 -7 -3 -5 -1 -9 5
-9 5 0 13 10 16 21 5 15 10 18 15 10 5 -10 11 -9 22 3 12 11 18 12 28 3 10
-10 10 -8 2 9 -10 19 -8 20 20 16 23 -4 29 -2 23 8 -6 10 -4 11 6 4 8 -4 19
-9 24 -10 6 -1 19 -5 30 -10 17 -6 16 -4 -4 14 -28 25 -22 28 18 8 23 -13 28
-13 28 -1 0 8 -5 11 -10 8 -6 -3 -7 -1 -3 6 6 9 11 9 24 -1 13 -12 14 -10 4 9
-14 25 -16 45 -3 24 12 -18 39 -23 48 -9 3 7 1 8 -5 4 -7 -4 -10 -2 -6 7 6 16
33 19 51 5 7 -5 14 -5 18 2 3 6 10 8 15 5 5 -3 16 2 24 11 9 8 16 12 16 7 0
-5 -5 -14 -11 -20 -8 -8 -7 -13 2 -18 7 -5 10 -4 5 3 -3 6 3 13 14 17 11 3 20
11 20 16 0 6 -6 7 -12 3 -10 -5 -10 -4 -1 6 6 7 24 14 40 16 15 1 29 8 31 14
3 7 8 5 16 -5 10 -14 14 -13 35 9 23 24 24 24 50 8 25 -16 25 -16 12 1 -16 20
-2 23 19 5 8 -7 7 -4 -3 8 -22 26 -10 40 15 17 17 -15 18 -15 13 0 -5 12 -1
15 14 14 12 -1 21 -6 22 -12 1 -5 5 1 9 15 5 16 8 19 9 8 1 -11 6 -15 16 -12
8 4 12 11 9 18 -3 6 4 -1 16 -16 22 -29 40 -36 40 -17 0 5 -4 8 -9 5 -5 -3
-11 1 -15 9 -3 8 -1 17 5 20 5 4 12 -1 15 -10 6 -13 9 -14 16 -3 6 9 7 6 3 -9
-5 -19 -3 -22 12 -17 14 4 15 4 4 -4 -16 -11 -5 -36 11 -26 7 4 8 2 4 -5 -4
-6 -12 -9 -17 -6 -5 4 -9 2 -9 -3 0 -6 7 -12 15 -16 8 -3 15 -9 14 -13 -5 -28
3 -53 17 -53 11 0 14 -6 9 -20 -4 -12 -2 -20 5 -20 6 0 9 4 5 9 -3 5 -1 12 4
15 5 4 8 -2 6 -11 -2 -10 -4 -18 -5 -18 -1 0 -4 -12 -6 -27 -2 -19 2 -28 11
-28 9 0 12 -6 8 -17 -5 -13 -2 -15 11 -10 14 6 16 3 11 -14 -5 -16 -3 -20 6
-16 8 2 13 11 11 18 -2 8 0 10 4 6 11 -11 14 -38 3 -31 -5 3 -9 -2 -9 -11 0
-9 4 -14 8 -11 4 2 14 -4 21 -16 7 -11 8 -17 3 -14 -6 3 -12 -1 -16 -9 -3 -8
-1 -17 4 -20 5 -3 7 -13 4 -23 -5 -16 -5 -16 6 0 15 23 43 12 34 -14 -4 -14
-2 -18 5 -14 14 9 14 0 -1 -27 -10 -20 -10 -21 6 -8 9 8 16 10 15 5 -4 -21 2
-28 12 -14 8 12 9 11 7 -5 -2 -15 2 -19 17 -17 14 2 16 0 7 -6 -13 -9 -13 -64
0 -56 11 7 10 -10 -2 -24 -5 -7 -2 -6 7 2 12 12 14 18 5 29 -9 10 -9 14 2 14
9 0 13 -11 12 -33 -1 -24 2 -30 10 -23 8 7 15 6 20 -2 4 -7 3 -9 -3 -6 -6 4
-13 0 -16 -8 -7 -16 22 -9 36 9 6 7 7 5 4 -5 -3 -9 0 -23 6 -30 10 -10 8 -10
-6 0 -9 8 -20 11 -24 7 -3 -3 -1 -6 6 -6 7 0 10 -4 7 -9 -4 -5 5 -8 18 -7 16
2 23 -1 19 -9 -2 -7 1 -16 6 -20 6 -3 8 -11 5 -17 -4 -7 -2 -8 5 -4 8 5 9 12
2 20 -7 9 -4 12 12 13 12 0 16 -1 9 -4 -9 -3 -5 -14 13 -35 14 -16 25 -33 25
-38 0 -4 8 -11 17 -14 15 -6 15 -4 -2 14 -10 11 -15 23 -12 27 4 3 7 1 7 -6 0
-7 5 -9 12 -5 6 4 8 3 4 -4 -3 -6 -1 -14 5 -17 5 -4 8 -13 5 -20 -3 -8 2 -12
12 -10 9 1 21 -3 25 -9 5 -6 7 -1 3 13 -3 16 -2 21 5 14 6 -6 11 -19 12 -30 0
-11 7 -20 14 -20 10 0 10 4 3 11 -5 5 -10 15 -10 20 0 6 5 4 11 -4 8 -11 12
-12 16 -2 5 13 23 7 23 -9 0 -6 -4 -8 -8 -5 -5 3 -9 -1 -9 -9 0 -13 3 -13 18
1 13 12 18 13 23 2 5 -10 7 -10 12 0 3 6 10 12 15 12 5 0 4 -9 -3 -19 -8 -14
-16 -17 -24 -10 -7 6 -15 5 -22 -4 -22 -26 44 -14 67 13 l22 25 -16 -26 -15
-26 45 -1 c25 0 43 4 40 8 -3 5 -1 12 5 15 6 4 9 1 8 -6 -2 -10 19 -14 87 -14
89 -1 91 -1 72 18 -10 10 -16 21 -13 24 3 3 12 -2 21 -11 20 -20 32 -21 16 -2
-9 11 -5 15 20 20 21 4 28 10 23 18 -6 10 -4 10 8 0 10 -8 18 -9 22 -3 4 6 14
7 23 4 12 -5 14 -3 8 8 -5 8 2 5 16 -6 13 -11 18 -13 11 -5 -18 21 -15 35 5
19 15 -13 15 -12 3 11 -13 24 -12 24 5 10 17 -14 17 -13 10 10 -7 24 -7 24 8
5 14 -19 16 -19 22 -3 4 10 12 15 18 11 5 -3 7 -2 4 4 -4 5 2 19 13 30 10 12
16 24 12 29 -4 4 -1 4 6 0 10 -6 9 -12 -3 -29 -8 -12 -15 -26 -15 -32 0 -5 9
5 20 23 11 18 17 39 13 45 -5 8 -2 8 9 -1 13 -11 15 -8 12 20 -3 23 -1 29 5
18 6 -8 8 -17 5 -21 -2 -4 1 -11 7 -15 7 -4 9 -3 5 4 -3 6 -2 13 4 17 5 3 10
13 10 21 0 9 -5 12 -12 8 -7 -4 -8 -3 -4 5 6 9 11 9 21 1 10 -8 15 -8 21 1 4
8 3 9 -4 5 -7 -4 -12 -1 -12 9 0 9 5 13 10 10 6 -3 10 4 10 18 0 31 9 39 30
27 14 -8 16 -5 12 15 -2 14 -9 25 -15 25 -6 0 -2 6 9 14 10 8 19 20 19 28 0 7
10 13 22 12 16 0 20 5 18 23 -1 13 1 23 6 23 5 0 5 8 2 17 -5 12 -2 15 9 11
11 -5 14 -1 11 17 -3 12 2 37 11 54 9 17 14 31 12 31 -3 0 1 12 9 27 8 15 12
31 8 35 -3 5 4 12 16 15 21 5 20 24 -2 19 -7 -1 -9 -1 -4 1 4 3 4 10 0 16 -4
7 1 6 10 -2 15 -12 17 -11 18 10 1 13 1 31 0 39 0 10 1 11 5 3 7 -16 34 -17
34 -2 0 5 -4 7 -10 4 -5 -3 -10 -2 -10 4 0 5 6 12 13 14 10 4 10 6 0 6 -7 1
-13 6 -13 12 0 5 4 8 8 5 4 -2 14 0 22 6 12 8 12 9 -2 4 -10 -3 -18 -1 -18 4
0 6 5 10 11 10 8 0 7 5 -1 15 -11 13 -10 14 2 10 15 -6 45 21 35 31 -9 10 -28
-7 -21 -18 4 -7 2 -8 -4 -4 -18 11 -14 24 8 31 11 3 20 11 20 16 0 6 -4 7 -10
4 -5 -3 -10 -1 -10 4 0 14 12 14 28 1 6 -6 10 -7 7 -4 -3 4 0 13 7 21 9 11 7
12 -7 7 -17 -7 -17 -6 0 19 20 32 21 32 29 11 3 -8 2 -12 -4 -9 -6 3 -10 4
-10 1 0 -3 9 -10 20 -16 16 -8 18 -8 14 4 -3 8 -2 16 3 19 5 3 9 -2 10 -11 2
-27 9 -51 16 -58 3 -4 4 3 2 16 -4 21 -3 21 19 7 21 -14 25 -14 40 1 16 16 17
16 10 -3 -7 -17 -5 -18 7 -8 16 13 44 12 56 -2 4 -4 2 -5 -6 0 -10 6 -12 4 -7
-4 5 -7 15 -10 23 -7 11 5 13 1 7 -16 -6 -20 -5 -21 9 -10 12 10 17 10 23 1 4
-7 3 -9 -3 -6 -5 3 -10 0 -10 -7 0 -10 7 -11 29 -2 25 9 32 8 45 -9 10 -12 14
-14 10 -5 -3 11 2 16 15 17 17 2 18 0 6 -14 -12 -15 -11 -15 10 -4 23 12 27 7
23 -28 -2 -7 3 -10 9 -6 6 4 9 13 6 21 -3 8 1 14 8 14 8 0 17 -7 20 -16 3 -8
2 -13 -2 -10 -4 2 -8 -5 -9 -17 0 -12 1 -16 4 -9 6 14 33 16 33 2 0 -5 5 -10
11 -10 5 0 8 4 4 9 -3 6 4 9 15 8 11 -1 20 -8 21 -17 1 -8 5 -4 9 10 4 14 8
19 9 12 1 -7 5 -11 10 -7 5 3 13 0 17 -6 4 -7 3 -9 -4 -5 -6 3 -13 2 -16 -3
-7 -10 20 -9 30 2 4 4 12 7 18 7 6 0 4 -5 -4 -11 -12 -9 -11 -10 8 -6 12 3 20
1 16 -4 -3 -5 -1 -9 5 -9 5 0 8 -8 6 -18 -2 -13 4 -18 22 -20 14 -1 21 2 18 8
-3 6 -1 10 4 10 6 0 11 -5 11 -12 0 -9 3 -9 12 0 15 15 28 15 28 1 0 -5 -4 -7
-10 -4 -16 10 -11 -1 7 -16 9 -8 14 -9 11 -4 -3 6 1 17 10 25 14 13 15 12 9
-3 -3 -9 -1 -19 5 -23 7 -4 8 -3 4 4 -4 7 -1 12 9 12 9 0 14 -4 11 -9 -3 -4 3
-16 14 -26 11 -10 17 -23 13 -29 -4 -6 3 -2 15 8 12 11 22 14 22 8 0 -7 11
-11 25 -10 14 1 25 7 25 13 0 6 3 6 8 -1 4 -6 18 -17 32 -24 l25 -13 -20 23
-20 23 22 -13 c17 -11 25 -11 36 -2 11 10 17 9 26 -1 6 -8 9 -17 6 -20 -3 -4
-2 -4 3 -1 13 10 8 28 -12 45 -15 12 -16 18 -6 24 8 5 11 4 7 -2 -4 -6 0 -14
9 -17 25 -9 27 -7 10 10 -9 8 -13 20 -10 26 4 6 -1 6 -14 -1 -26 -14 -35 -14
-27 -1 4 6 -5 10 -19 10 -14 0 -26 -6 -26 -12 0 -9 -3 -8 -9 2 -6 8 -7 18 -5
22 3 4 -2 8 -10 8 -9 0 -16 5 -16 11 0 5 -4 8 -9 4 -5 -3 -17 5 -26 17 l-17
23 5 -23 c4 -19 3 -21 -9 -11 -7 6 -11 16 -7 22 3 6 1 7 -6 3 -6 -4 -9 -11 -6
-16 3 -5 0 -12 -6 -16 -7 -4 -9 -3 -5 4 9 15 -14 27 -46 23 -23 -2 -28 2 -28
18 0 19 -10 26 -32 22 -5 0 -8 5 -8 11 0 9 -4 8 -10 -2 -8 -13 -10 -13 -10 -1
0 12 -3 12 -12 3 -15 -15 -28 -15 -28 -1 0 5 5 7 12 3 6 -4 8 -3 5 3 -4 6 -22
9 -42 6 -20 -2 -35 1 -35 7 0 5 -5 10 -11 10 -5 0 -7 -6 -3 -12 6 -10 5 -10
-8 -1 -8 7 -18 10 -22 6 -4 -4 -4 1 0 11 5 14 9 15 15 4 5 -8 9 -9 9 -2 0 6
-8 18 -17 25 -10 8 -14 9 -10 2 4 -6 3 -14 -3 -18 -5 -3 -10 0 -10 8 0 24 -31
29 -53 10 -11 -10 -17 -13 -14 -7 11 19 -18 24 -49 8 -16 -8 -25 -12 -21 -8 9
9 -12 36 -23 29 -5 -3 -7 6 -6 19 2 17 -1 23 -13 21 -9 -2 -16 -4 -16 -5 0 -1
-12 -3 -28 -4 -24 -3 -27 0 -21 18 6 20 6 20 -14 -2 -16 -18 -21 -19 -25 -8
-3 8 -16 20 -29 26 -22 11 -22 10 2 -10 21 -18 21 -20 4 -11 -12 6 -24 8 -27
5 -3 -3 -4 5 -3 19 2 18 -1 24 -10 20 -8 -3 -11 -10 -7 -16 3 -6 1 -7 -6 -3
-9 6 -9 11 -1 21 9 11 8 13 -8 10 -12 -2 -26 3 -32 11 -7 7 -16 12 -20 9 -10
-6 -23 13 -27 40 -2 16 -1 17 6 5 5 -8 8 -17 6 -20 -2 -4 2 -7 9 -7 8 0 12 10
10 26 -2 23 -1 24 10 9 10 -13 15 -15 24 -6 7 7 12 8 12 4 0 -5 8 -2 17 5 9 8
14 9 10 3 -9 -15 25 -24 47 -12 12 7 16 6 14 -4 -2 -7 4 -11 12 -9 20 5 30 4
59 -5 19 -5 22 -4 16 6 -6 9 -4 11 4 6 7 -5 10 -10 7 -13 -14 -15 15 -39 46
-38 18 1 37 -4 41 -9 4 -6 5 3 2 19 -5 28 -5 28 6 7 12 -23 33 -29 44 -12 6
10 36 2 32 -8 -2 -8 7 -12 24 -12 8 0 8 4 0 14 -10 12 -9 14 6 11 10 -2 20 -4
23 -5 3 -1 9 -2 13 -1 5 1 6 -3 3 -8 -4 -5 -2 -12 3 -15 5 -4 11 1 13 11 3 15
4 15 21 -1 14 -15 17 -15 17 -2 0 8 4 17 9 20 5 3 8 -2 7 -11 -1 -19 17 -22
48 -8 12 5 21 3 27 -6 6 -10 9 -10 9 -1 0 6 7 12 16 12 9 0 12 -5 8 -12 -6 -9
-3 -9 9 0 24 20 76 22 69 4 -4 -11 1 -11 21 2 19 13 27 14 33 5 4 -7 3 -9 -4
-5 -6 3 -13 2 -16 -3 -4 -5 2 -8 11 -7 9 2 19 8 21 14 2 7 8 12 13 12 4 0 5
-7 2 -17 -5 -12 -3 -14 8 -7 8 4 25 10 38 12 22 3 23 2 10 -15 -12 -16 -12
-17 2 -6 9 7 20 9 24 5 5 -4 5 -2 2 4 -4 7 0 15 9 18 8 3 13 2 10 -2 -2 -4 -1
-14 5 -22 7 -12 9 -9 9 10 0 19 2 22 9 10 6 -8 7 -18 5 -22 -3 -4 -1 -8 5 -8
5 0 11 5 13 12 5 14 38 20 38 6 0 -6 -7 -7 -16 -4 -8 3 -12 2 -9 -4 8 -12 60
-6 79 9 10 8 16 9 21 1 9 -15 25 -12 25 6 0 9 -5 12 -12 8 -7 -4 -8 -3 -4 4 4
7 13 12 21 12 8 0 16 4 19 9 3 5 -2 8 -12 7 -9 0 -16 5 -14 12 2 9 -4 11 -18
7 -16 -5 -19 -3 -14 12 5 14 4 15 -4 4 -6 -8 -23 -15 -39 -16 -16 -1 -35 -5
-42 -10 -10 -6 -12 -4 -6 5 5 9 2 10 -13 6 -11 -4 -26 -1 -33 6 -19 18 -48 21
-64 8 -23 -19 -26 6 -3 36 l22 29 -26 -23 c-24 -22 -65 -22 -51 1 3 6 1 7 -6
3 -9 -6 -9 -11 -1 -21 9 -10 7 -13 -6 -11 -9 1 -23 11 -30 21 -12 16 -18 14
-16 -6 1 -3 -5 -6 -13 -6 -10 0 -11 5 -4 19 5 10 6 18 1 18 -5 0 -14 -10 -21
-22 -6 -13 -9 -15 -7 -6 6 21 6 21 -29 8 -14 -5 -24 -6 -21 -1 3 5 -1 11 -9
15 -8 3 -17 0 -21 -6 -5 -7 -2 -8 6 -3 9 5 11 4 6 -4 -4 -6 -12 -9 -17 -5 -5
3 -7 9 -4 14 3 5 1 11 -5 15 -5 3 -10 -1 -10 -11 0 -13 -3 -14 -15 -4 -8 7
-15 9 -15 5 0 -4 -8 -1 -17 6 -14 12 -16 12 -8 0 6 -11 4 -13 -8 -8 -10 3 -17
2 -17 -2 0 -5 -7 -12 -16 -15 -14 -5 -15 -4 -4 9 7 9 10 18 6 22 -3 3 -6 2 -6
-4 0 -6 -9 -13 -20 -16 -14 -4 -20 0 -21 11 -1 10 -4 7 -9 -8 -5 -17 -8 -19
-9 -7 -1 9 -6 17 -12 17 -6 0 -9 -7 -6 -14 4 -10 1 -13 -8 -9 -8 3 -13 9 -10
13 3 5 0 12 -6 16 -8 4 -9 3 -5 -4 4 -7 2 -12 -4 -12 -6 0 -8 -5 -4 -12 4 -7
3 -8 -5 -4 -6 4 -9 11 -6 16 3 4 -2 10 -10 13 -9 4 -12 1 -9 -7 3 -8 0 -17 -7
-22 -8 -5 -10 -3 -4 5 5 9 1 12 -12 9 -11 -2 -27 3 -36 11 -13 10 -17 10 -17
1 0 -7 -7 -10 -16 -6 -14 5 -15 4 -5 -8 11 -13 9 -13 -13 -3 -17 8 -21 14 -13
20 8 6 7 7 -3 4 -8 -2 -14 -13 -13 -23 1 -18 1 -18 -12 -1 -10 13 -14 15 -18
5 -4 -10 -6 -10 -6 0 -1 6 -6 12 -12 12 -5 0 -7 -6 -3 -12 4 -7 4 -10 -1 -6
-4 4 -15 2 -24 -4 -13 -10 -14 -10 -3 2 16 18 16 33 0 23 -26 -16 -39 -12 -33
10 5 18 4 19 -5 5 -5 -9 -18 -15 -28 -14 -9 2 -21 -2 -25 -8 -6 -7 -7 -5 -4 6
8 23 -3 30 -22 15 -14 -11 -14 -10 -2 5 7 10 17 16 21 13 4 -3 11 2 14 11 3 8
11 12 17 8 8 -4 9 -3 5 5 -5 8 -12 9 -20 2 -8 -7 -16 -4 -26 12 -11 19 -11 20
1 10 12 -9 17 -6 30 16 13 21 13 28 3 28 -7 0 -11 -3 -9 -7 2 -3 -1 -12 -6
-20 -7 -11 -8 -9 -6 9 2 14 12 28 23 32 14 6 15 8 4 9 -8 2 -19 2 -24 1 -5 -1
-3 6 4 16 22 28 24 29 17 11 -4 -10 -2 -18 3 -18 6 0 10 7 10 16 0 10 5 14 16
10 8 -3 13 -2 9 3 -3 5 -2 11 2 14 5 2 2 2 -5 0 -7 -1 -10 2 -7 7 3 5 8 20 10
32 3 12 10 26 16 32 9 8 10 7 4 -3 -6 -10 -4 -12 4 -7 6 4 9 17 6 29 -2 12 -2
16 1 10 3 -7 10 -13 15 -13 6 0 8 4 5 8 -3 5 2 9 10 9 9 0 13 -6 10 -14 -3 -8
-1 -11 4 -8 6 4 23 9 37 11 15 3 30 8 33 11 3 3 -5 3 -17 0 -13 -3 -23 -1 -23
4 0 5 4 9 10 9 5 0 7 6 4 14 -3 8 -1 17 4 20 5 3 9 -2 8 -11 0 -9 5 -18 12
-20 6 -3 12 0 12 7 0 6 -4 8 -10 5 -17 -11 -11 0 12 19 16 14 20 15 15 3 -3
-8 0 -18 8 -21 9 -3 12 0 9 8 -3 8 0 17 7 22 8 4 10 3 5 -4 -8 -13 6 -17 18
-5 11 12 36 12 36 0 0 -8 4 -7 12 1 17 17 26 15 31 -5 4 -15 5 -15 6 2 1 17 3
18 11 5 8 -13 10 -13 10 -1 0 11 4 9 15 -5 14 -18 14 -18 10 6 -4 24 -4 24 10
6 15 -19 15 -19 16 5 0 13 3 18 6 12 2 -7 11 -13 20 -13 12 0 12 2 -1 16 -22
21 -20 27 3 14 25 -13 34 -13 26 0 -9 14 18 12 35 -2 8 -7 7 -4 -3 8 -14 17
-15 21 -2 21 8 0 15 -5 15 -11 0 -6 5 -4 10 4 5 8 10 10 10 4 0 -7 7 -15 16
-18 14 -5 15 -4 4 9 -11 13 -10 14 5 9 14 -6 16 -4 10 6 -5 9 -4 11 4 6 6 -4
8 -13 4 -19 -4 -7 2 -5 12 3 11 9 16 10 11 3 -4 -7 -2 -13 3 -13 6 0 11 5 11
10 0 6 5 10 11 10 5 0 8 -4 4 -9 -3 -5 0 -13 6 -17 8 -4 9 -3 5 5 -5 8 0 10
17 7 16 -3 24 1 24 10 0 10 -4 11 -13 3 -8 -7 -14 -6 -20 2 -4 7 -3 9 4 5 6
-3 14 -2 17 4 5 8 11 8 20 0 9 -7 16 -6 26 7 8 9 9 14 3 10 -6 -3 -11 0 -11 7
0 7 6 13 13 13 7 0 11 -4 8 -9 -3 -4 0 -8 5 -8 6 0 11 6 11 13 0 8 4 7 10 -3
8 -12 10 -12 10 -1 0 11 3 11 17 0 9 -8 14 -9 10 -2 -5 8 4 11 30 9 21 -2 44
2 52 8 12 9 13 8 7 -3 -6 -9 -4 -12 5 -9 8 3 14 10 14 15 0 6 4 15 9 20 5 4 7
3 3 -2 -3 -6 -2 -17 4 -25 6 -10 9 -11 9 -2 0 6 5 12 11 12 5 0 7 -6 3 -12 -6
-10 -4 -10 8 0 11 9 18 9 21 2 3 -6 4 -5 3 2 -2 7 -8 13 -14 13 -5 0 -14 4
-19 9 -5 5 -3 6 5 2 6 -4 12 -2 12 4 0 7 7 5 16 -4 20 -21 30 -21 14 -1 -12
14 -9 15 18 10 17 -3 33 -1 36 4 3 4 -6 7 -19 5 -14 -1 -28 3 -32 8 -3 6 -1 8
5 4 5 -3 13 0 15 6 4 10 6 10 6 0 1 -10 7 -9 30 2 16 9 32 12 36 8 5 -4 5 -1
1 6 -4 7 -11 10 -16 7 -5 -3 -11 -1 -14 4 -4 5 -1 13 5 17 7 4 9 3 6 -3 -6
-10 28 -11 38 -2 5 6 -12 9 -47 10 -10 0 -18 6 -18 14 0 8 -4 16 -9 19 -5 4
-7 -4 -4 -16 3 -15 2 -19 -4 -11 -11 15 -61 24 -68 12 -7 -11 -26 -12 -22 -1
1 4 -1 8 -6 10 -4 1 -7 -1 -8 -5 0 -5 -11 -14 -25 -21 -13 -7 -24 -18 -24 -25
0 -8 -4 -7 -11 3 -7 10 -12 11 -15 4 -3 -7 -13 -10 -23 -7 -10 3 -22 0 -25 -6
-4 -6 -1 -9 6 -8 7 2 10 2 5 0 -4 -3 -4 -10 0 -16 3 -7 -2 -4 -13 5 -12 11
-28 15 -42 11 -19 -4 -21 -2 -15 13 3 11 11 22 17 26 8 5 7 8 -1 8 -7 0 -19
-12 -27 -27 l-14 -28 1 27 c1 14 5 24 10 21 4 -2 10 2 13 10 3 8 15 13 28 12
20 -3 22 1 20 34 -2 37 12 65 27 55 5 -3 9 0 9 5 0 6 5 11 11 11 8 0 8 -5 -1
-15 -7 -9 -8 -15 -2 -15 5 0 13 7 16 16 3 9 11 12 18 8 10 -6 10 -4 0 8 -10
13 -10 17 0 21 8 3 6 6 -6 6 -13 1 -16 -4 -11 -16 5 -14 4 -15 -6 -6 -10 10
-9 15 1 27 7 9 16 13 21 11 4 -3 13 5 19 17 10 21 10 22 -4 4 -14 -17 -15 -16
-14 15 1 19 3 28 5 22 3 -7 9 -13 15 -13 5 0 6 9 3 20 -4 12 -2 20 5 20 6 0 9
-4 5 -9 -3 -5 -1 -13 5 -16 6 -4 10 -3 9 2 -5 28 2 42 19 37 14 -5 14 -4 2 5
-8 5 -11 13 -7 17 4 4 1 14 -5 22 -10 11 -8 17 7 28 10 8 15 14 9 14 -5 0 -15
10 -23 22 -7 13 -10 20 -6 16 7 -7 18 1 45 36 8 11 10 17 4 13 -7 -4 -15 0
-18 9 -3 8 -2 13 3 10 5 -4 7 3 4 15 -4 16 -8 17 -14 7 -13 -19 -11 0 2 24 10
18 8 19 -13 13 -18 -5 -20 -4 -8 4 8 6 24 8 35 6 11 -3 14 -2 7 1 -10 5 -10 9
0 22 8 9 8 13 2 9 -7 -4 -15 0 -18 9 -3 8 -11 12 -17 8 -8 -4 -9 -3 -5 5 4 6
12 9 17 6 5 -4 9 -1 9 5 0 6 6 8 13 4 6 -4 4 2 -6 13 -9 11 -15 23 -12 26 3 4
2 5 -2 2 -13 -10 -31 29 -22 48 7 12 6 22 -6 33 -21 22 -19 27 8 13 19 -11 20
-10 10 3 -7 8 -10 18 -5 22 4 4 -1 12 -11 17 -9 6 -15 15 -11 21 4 5 -4 4 -17
-2 -24 -13 -24 -13 -6 8 18 20 18 21 -1 31 -11 6 -22 8 -25 4 -8 -8 0 34 9 50
5 7 0 6 -11 -3 -17 -14 -17 -13 -11 10 l7 25 -20 -24 c-12 -13 -21 -18 -21
-13 0 6 5 14 10 17 6 3 10 11 10 16 0 6 -4 7 -10 4 -5 -3 -10 1 -10 10 0 9 -4
14 -8 11 -5 -3 -9 1 -9 9 0 8 4 12 9 9 4 -3 8 0 8 5 0 6 -6 11 -12 12 -7 1 -2
5 12 9 15 5 18 8 8 9 -10 1 -15 8 -13 19 1 9 8 16 15 14 6 -1 9 2 5 7 -3 6
-13 8 -23 5 -14 -5 -15 -4 -2 5 8 6 11 11 6 11 -5 0 -3 6 3 13 6 8 7 17 3 21
-4 4 0 6 8 4 8 -2 19 7 25 20 6 14 15 20 25 17 8 -4 11 -3 7 1 -4 4 -2 13 4
20 13 16 2 37 -14 28 -7 -4 -9 -3 -4 1 12 14 49 17 41 3 -4 -7 -3 -8 5 -4 9 6
9 11 -1 24 -10 12 -10 14 0 8 7 -4 12 -2 12 4 0 6 6 8 13 5 6 -4 3 1 -8 11
-20 16 -20 16 3 11 13 -3 21 -3 18 0 -3 4 -1 12 5 19 7 8 6 14 -2 20 -8 4 -9
3 -5 -4 5 -8 1 -10 -9 -5 -12 4 -13 8 -5 13 7 4 17 14 22 21 8 11 9 10 4 -3
-8 -25 6 -22 22 3 10 15 10 19 1 14 -8 -5 -10 -4 -5 3 4 7 15 12 24 12 15 1
14 3 -3 16 -19 15 -19 15 10 10 17 -4 24 -3 18 0 -22 10 -14 26 10 19 22 -7
22 -7 2 9 -20 15 -20 15 3 11 12 -2 20 0 17 5 -3 5 -1 11 5 15 6 4 8 11 5 16
-23 37 -3 77 22 44 15 -22 17 -12 3 15 -7 13 -7 21 0 25 6 4 8 11 5 16 -4 5 1
9 11 9 13 0 14 -3 4 -15 -9 -10 -9 -15 -1 -15 6 0 11 3 12 8 1 4 2 20 4 35 1
16 7 32 14 36 6 4 9 15 5 24 -3 10 -1 17 6 17 6 0 8 5 5 10 -4 6 -12 7 -18 3
-7 -4 -5 1 3 12 8 10 16 26 16 37 3 35 4 38 22 38 15 1 15 2 -2 15 -11 8 -14
15 -7 15 14 0 12 41 -3 51 -5 4 1 12 12 18 15 8 23 8 28 -1 5 -7 3 -8 -6 -3
-9 6 -11 4 -5 -5 5 -8 4 -11 -3 -6 -7 4 -9 -1 -7 -15 5 -25 14 -37 16 -21 4
32 6 37 17 35 6 -2 2 12 -9 32 l-20 34 28 16 c15 9 20 14 11 11 -10 -3 -18 -1
-18 5 0 6 -6 7 -12 3 -10 -6 -10 -5 -1 7 11 13 13 20 13 35 0 4 7 0 17 -7 15
-13 15 -12 4 9 -10 18 -9 23 4 28 12 5 13 9 4 20 -6 8 -8 14 -5 14 4 0 2 9 -4
19 -7 14 -6 21 3 24 8 4 7 6 -3 6 -23 1 -21 49 2 57 17 5 26 25 11 23 -29 -5
-45 2 -39 17 4 9 2 22 -4 29 -8 10 -8 15 1 21 8 5 9 3 4 -6 -5 -8 -4 -11 3 -6
12 7 7 48 -9 78 -8 14 -7 24 2 36 8 9 10 14 5 10 -12 -10 -45 23 -39 38 3 8
-1 14 -8 14 -11 0 -11 3 1 10 13 9 13 11 0 21 -13 9 -12 10 2 5 10 -3 20 -1
23 3 3 5 -8 8 -24 7 -16 -1 -29 0 -28 3 1 4 -5 17 -12 30 -7 13 -9 21 -4 18 5
-4 10 7 10 24 0 20 -3 26 -9 17 -6 -8 -8 10 -6 47 3 65 -17 129 -36 118 -6 -4
-5 1 3 10 15 18 26 23 16 7 -3 -5 -2 -10 4 -10 14 0 25 20 12 21 -6 1 -16 2
-21 3 -15 2 -29 27 -23 42 2 7 11 10 18 8 17 -7 29 12 14 22 -8 4 -9 3 -5 -4
4 -7 3 -12 -3 -12 -11 0 -23 32 -19 51 2 8 -3 13 -9 12 -7 -2 -13 4 -13 13 0
8 4 13 8 10 5 -3 9 1 9 9 0 8 -4 12 -9 9 -8 -5 -12 10 -9 35 2 7 -2 11 -7 7
-5 -3 -9 1 -9 8 0 8 5 12 12 10 6 -3 11 4 11 15 0 13 -4 17 -11 11 -6 -4 -16
-1 -25 8 -13 14 -12 15 2 10 9 -4 19 -4 22 -1 7 7 -36 39 -47 35 -5 -1 -6 1
-3 6 2 4 1 14 -4 21 -4 8 -2 27 6 46 7 18 10 36 6 40 -7 6 -8 10 -11 36 0 5
-5 7 -11 4 -14 -9 -12 8 3 24 10 11 9 12 -2 6 -9 -5 -12 -3 -9 6 3 8 12 13 19
11 8 -2 10 0 6 4 -11 11 -38 14 -32 4 3 -5 1 -11 -5 -15 -6 -4 -10 4 -10 19 0
14 -4 28 -10 31 -5 3 -10 1 -10 -6 0 -7 -3 -10 -6 -6 -3 3 1 19 9 36 13 25 13
32 1 41 -10 9 -12 8 -9 -9 2 -11 0 -23 -4 -26 -5 -2 -7 16 -6 40 2 25 -1 45
-7 45 -5 0 -6 -4 -3 -10 3 -5 1 -10 -6 -10 -6 0 -9 8 -6 19 2 10 0 25 -5 32
-8 11 -9 10 -4 -3 3 -10 2 -19 -2 -22 -4 -2 -9 7 -10 21 -1 14 -10 32 -20 40
-9 9 -4 7 13 -2 29 -18 30 -18 13 1 -21 24 -23 35 -6 46 10 8 10 9 -2 5 -8 -2
-14 -10 -12 -17 3 -11 0 -11 -12 -1 -8 7 -21 9 -27 5 -8 -5 -9 -3 -5 5 5 7 14
10 22 7 8 -3 14 1 14 10 0 11 -5 14 -17 10 -14 -6 -14 -3 3 16 15 18 16 20 1
9 -23 -18 -34 -7 -16 15 13 16 12 16 -11 4 -24 -13 -25 -12 -7 7 9 11 17 24
17 29 0 5 -5 2 -10 -6 -8 -13 -11 -13 -22 -1 -8 8 -8 11 -1 7 7 -4 10 0 9 11
-2 9 -8 19 -14 21 -7 2 -12 10 -12 18 0 8 -5 14 -10 14 -14 0 5 -37 22 -42 7
-3 5 -7 -6 -11 -10 -4 -15 -3 -11 3 3 6 1 10 -4 10 -6 0 -11 7 -11 16 0 9 -5
12 -12 8 -7 -4 -5 1 4 12 11 13 14 24 8 34 -5 8 -7 17 -5 20 2 4 -2 7 -10 8
-8 1 -22 3 -30 4 -8 1 -12 5 -9 10 3 5 10 6 15 3 5 -3 6 1 3 10 -5 13 -9 13
-22 3 -12 -10 -14 -10 -8 0 4 6 2 12 -3 12 -6 0 -10 5 -9 12 2 7 -2 12 -9 13
-6 0 -14 3 -18 7 -12 12 22 3 38 -10 12 -10 17 -10 23 -1 4 7 3 10 -2 7 -11
-7 -35 17 -26 26 3 4 -1 4 -10 1 -9 -4 -19 -1 -24 6 -4 7 -3 10 4 5 6 -3 14
-1 18 5 4 7 3 9 -3 6 -6 -4 -21 2 -34 12 -20 16 -22 21 -9 35 11 15 11 17 -1
14 -8 -2 -13 3 -11 10 1 8 -2 11 -8 7 -8 -5 -8 -11 0 -20 8 -9 8 -15 0 -20 -6
-4 -9 -1 -8 7 2 7 -3 12 -10 10 -8 -1 -11 2 -8 7 4 5 -2 15 -11 21 -15 9 -14
10 7 6 14 -3 19 -3 12 0 -10 5 -10 9 0 22 12 15 11 16 -4 3 -19 -14 -48 -9
-48 9 0 5 8 10 18 10 15 0 15 -2 2 -11 -10 -7 -11 -9 -2 -7 25 7 17 23 -12 26
-22 3 -26 6 -15 13 10 6 6 9 -16 10 -21 0 -25 2 -13 7 13 5 15 11 8 22 -7 10
-10 11 -10 3 0 -7 -5 -13 -10 -13 -7 0 -7 6 -1 19 12 22 -7 35 -36 24 -15 -5
-16 -3 -5 8 13 14 16 30 5 28 -23 -4 -34 3 -31 18 2 12 -4 17 -21 18 -13 0
-26 6 -28 13 -3 6 0 12 7 12 6 0 8 -4 5 -10 -3 -5 -1 -10 5 -10 7 0 10 6 7 13
-2 6 -13 12 -24 12 -29 0 -38 12 -23 30 11 13 10 14 -5 9 -13 -5 -16 -4 -11 5
4 6 4 10 -1 9 -14 -4 -53 13 -53 23 0 6 5 7 10 4 6 -3 10 -1 10 5 0 7 -6 10
-14 7 -20 -8 -28 4 -13 21 10 13 9 14 -10 2 -20 -13 -20 -15 -5 -27 9 -7 12
-13 6 -13 -18 0 -37 27 -24 35 5 3 10 12 9 18 0 9 -2 9 -6 0 -2 -7 -11 -13
-19 -13 -9 0 -12 -5 -8 -12 4 -7 3 -8 -5 -4 -9 6 -9 11 0 22 9 11 8 14 -3 14
-8 0 -20 10 -27 23 -11 22 -11 22 -6 -3 5 -25 5 -25 -6 -2 -7 12 -16 22 -21
22 -4 0 -8 7 -8 16 0 8 -5 12 -10 9 -6 -4 -7 -11 -4 -17 4 -7 2 -8 -5 -4 -6 4
-8 12 -5 18 5 7 2 9 -8 5 -9 -3 -25 3 -37 14 -12 12 -21 15 -21 8 0 -7 -3 -9
-6 -6 -4 4 -1 14 7 24 9 11 10 14 2 9 -8 -4 -13 -2 -13 4 0 6 -5 8 -10 5 -6
-4 -8 -11 -5 -16 4 -5 -2 -6 -11 -2 -11 4 -13 8 -6 11 15 5 16 29 0 38 -6 4
-8 3 -5 -3 4 -6 0 -13 -8 -17 -8 -3 -15 -1 -15 5 0 6 -6 7 -12 3 -10 -6 -10
-4 0 8 12 14 10 16 -10 11 -19 -4 -20 -3 -8 7 12 9 11 10 -9 5 -15 -5 -21 -3
-17 3 3 6 -7 13 -24 17 -17 4 -28 10 -25 15 3 5 1 11 -4 14 -5 4 -13 1 -17 -5
-5 -8 -3 -9 6 -4 8 5 11 4 7 -1 -8 -14 -63 -9 -59 6 1 6 -6 14 -17 17 -10 2
-24 14 -30 26 -11 21 -11 21 -6 -3 l6 -25 -16 25 c-16 24 -16 24 -12 2 3 -12
1 -20 -4 -16 -5 3 -9 11 -9 18 0 7 -10 21 -22 32 -19 15 -20 16 -9 2 10 -13
10 -18 2 -18 -7 0 -9 -6 -5 -12 5 -10 4 -10 -6 -1 -7 6 -19 9 -26 6 -9 -3 -14
2 -14 17 0 12 -4 18 -10 15 -6 -4 -7 -12 -3 -18 4 -7 0 -6 -10 2 -9 7 -14 17
-11 22 3 5 0 9 -6 9 -6 0 -8 5 -4 12 4 7 3 8 -5 4 -6 -4 -9 -11 -6 -16 3 -5 1
-11 -4 -14 -5 -4 -13 -1 -17 5 -5 8 -3 9 6 4 8 -5 11 -4 7 3 -4 5 -17 8 -29 4
-16 -4 -19 -2 -13 8 6 10 4 11 -6 4 -22 -14 -37 -13 -43 2 -3 8 -12 11 -22 7
-13 -5 -15 -3 -9 7 5 9 4 11 -4 6 -9 -6 -9 -11 1 -23 12 -15 11 -15 -9 -3 -12
8 -20 17 -18 21 3 3 -10 5 -28 3 -17 -1 -26 0 -19 3 10 4 10 8 0 21 -10 13 -8
13 9 -1 16 -14 23 -15 29 -6 4 8 3 10 -4 5 -11 -6 -17 12 -13 37 0 4 -3 7 -8
7 -5 0 -8 6 -7 13 3 20 16 37 29 36 9 0 8 -2 -1 -6 -6 -2 -9 -10 -6 -15 5 -7
2 -8 -6 -3 -9 5 -11 4 -6 -4 9 -14 65 38 57 54 -3 5 -6 4 -9 -3 -2 -7 -9 -9
-14 -6 -7 5 -8 2 -3 -6 6 -9 4 -11 -4 -6 -9 6 -8 12 6 26 12 11 20 13 25 6 4
-6 15 -3 29 9 l22 20 -12 -25 -12 -25 20 23 c18 21 38 31 27 14 -2 -4 5 -9 17
-9 15 -2 18 0 8 6 -9 6 -10 11 -2 15 6 4 11 4 11 0 0 -4 9 1 20 11 11 10 20
22 20 28 0 5 -8 -1 -18 -14 -15 -17 -21 -19 -27 -9 -5 8 -4 11 3 6 6 -3 15 1
20 11 13 22 42 27 35 5 -4 -14 -3 -14 5 -3 5 7 14 11 20 7 12 -7 10 13 -2 33
-7 10 -6 12 4 6 10 -6 12 -4 7 8 -4 12 -2 14 10 10 12 -5 14 -3 8 8 -8 12 -6
12 8 0 14 -11 18 -11 23 3 3 9 9 14 13 11 4 -2 7 6 6 18 -1 12 5 28 14 35 14
12 14 13 -1 8 -20 -6 -23 11 -7 34 10 13 10 13 6 0 -3 -11 2 -16 16 -18 12 0
17 2 12 6 -15 11 -17 40 -4 48 8 5 9 3 4 -6 -5 -8 -4 -11 3 -6 6 4 8 14 5 23
-4 10 -2 14 4 10 5 -3 10 1 10 9 0 9 -6 13 -15 9 -12 -4 -13 -3 -2 10 7 8 17
12 23 8 6 -4 0 9 -13 28 -15 21 -18 29 -7 20 11 -9 17 -10 17 -2 0 6 5 11 12
11 9 0 9 -3 0 -12 -15 -15 -15 -28 -1 -28 5 0 8 4 4 9 -3 5 -1 13 5 16 8 5 7
12 -2 23 -11 13 -11 14 1 7 11 -6 13 -4 8 8 -3 9 -1 19 5 23 6 4 8 3 4 -4 -3
-6 -2 -14 4 -17 6 -4 10 -3 9 2 -1 4 0 10 1 13 7 19 7 41 0 45 -5 3 -7 -4 -5
-15 2 -11 0 -18 -5 -15 -14 9 -4 40 13 39 20 -2 15 25 -8 42 -14 11 -15 14 -4
14 8 0 20 -5 25 -10 7 -7 10 -4 9 9 -1 12 -5 24 -10 28 -4 5 -5 2 -1 -4 5 -9
2 -11 -8 -7 -14 5 -14 8 0 22 14 13 17 13 26 1 8 -11 9 -11 4 3 -3 10 -1 20 4
23 13 8 13 25 -1 25 -5 0 -8 -4 -4 -9 3 -5 0 -13 -6 -17 -8 -4 -9 -3 -5 4 4 7
1 12 -6 13 -7 0 -3 5 10 11 14 7 22 20 22 36 0 14 8 34 18 45 17 19 16 20 -7
7 -13 -6 -21 -7 -17 -2 3 6 1 12 -6 14 -7 3 -5 7 6 11 10 4 15 3 11 -3 -3 -6
-4 -10 -1 -10 3 0 10 9 16 20 8 15 8 18 -3 15 -14 -6 -16 39 -2 52 4 5 5 2 1
-4 -5 -9 -2 -11 9 -6 12 4 13 8 5 13 -6 4 -10 16 -8 27 1 11 -3 27 -10 35 -10
13 -8 15 13 13 14 -2 23 1 19 6 -3 5 -10 7 -15 4 -5 -4 -9 -1 -9 5 0 6 -5 8
-12 4 -7 -4 -8 -3 -4 5 5 7 17 9 29 5 l22 -6 -22 16 c-13 10 -20 24 -18 36 2
11 -2 20 -8 20 -8 0 -8 3 1 9 19 12 21 72 2 95 -8 11 -10 16 -4 13 7 -4 14 0
17 8 4 10 1 12 -11 8 -15 -6 -15 -5 -3 11 13 15 13 19 1 26 -8 5 -19 6 -25 3
-5 -4 -6 -2 -2 3 5 5 13 9 18 9 5 0 9 5 8 10 -1 6 -5 9 -10 8 -5 -2 -9 2 -9 7
0 6 -4 10 -10 10 -5 0 -7 -8 -3 -17 3 -10 3 -15 -1 -11 -4 3 -9 14 -10 23 -1
9 -9 21 -17 26 -10 6 -10 9 -1 9 6 0 12 7 12 15 0 8 -5 15 -11 15 -5 0 -7 6
-3 13 5 8 2 7 -9 -2 -16 -13 -17 -12 -7 13 5 15 6 25 2 22 -5 -3 -23 8 -41 24
-33 30 -47 38 -36 20 3 -5 1 -10 -4 -10 -6 0 -11 5 -11 10 0 7 -16 9 -40 6
-37 -5 -39 -4 -30 15 6 10 8 19 6 19 -3 0 -10 -9 -16 -20z m123 -43 c3 -8 0
-14 -7 -14 -7 0 -13 6 -13 14 0 7 4 13 8 13 4 0 9 -6 12 -13z m35 -42 c-3 -3
-13 -2 -22 1 -14 5 -15 9 -4 15 13 8 36 -6 26 -16z m97 -223 c-3 -3 -11 0 -18
7 -9 10 -8 11 6 5 10 -3 15 -9 12 -12z m0 -32 c3 -5 1 -10 -4 -10 -6 0 -11 5
-11 10 0 6 2 10 4 10 3 0 8 -4 11 -10z m-1061 -126 c3 -8 2 -12 -4 -9 -6 3
-10 10 -10 16 0 14 7 11 14 -7z m336 -29 c7 -9 8 -15 2 -15 -5 0 -12 7 -16 15
-3 8 -4 15 -2 15 2 0 9 -7 16 -15z m38 -30 c-3 -3 -9 2 -12 12 -6 14 -5 15 5
6 7 -7 10 -15 7 -18z m50 -11 c5 -9 12 -15 15 -15 4 1 7 -1 7 -4 0 -3 0 -9 0
-15 0 -5 -5 -10 -11 -10 -5 0 -7 5 -4 10 3 6 -1 13 -9 16 -9 3 -13 11 -9 17 4
6 0 8 -11 4 -10 -4 -15 -3 -11 3 9 15 23 12 33 -6z m-734 -19 c-4 -8 -13 -15
-22 -15 -13 0 -12 3 4 15 24 18 25 18 18 0z m1216 -5 c0 -5 -4 -10 -10 -10 -5
0 -10 5 -10 10 0 6 5 10 10 10 6 0 10 -4 10 -10z m-420 -41 c0 -5 -5 -9 -11
-9 -5 0 -7 5 -4 10 3 6 1 10 -4 10 -6 0 -11 5 -11 11 0 8 5 8 15 -1 8 -7 15
-16 15 -21z m-450 -25 c0 4 9 2 19 -4 16 -8 22 -6 29 6 6 11 11 13 16 5 4 -6
2 -11 -3 -11 -6 0 -11 -8 -11 -17 0 -15 2 -15 9 -4 5 8 16 11 26 7 16 -6 16
-4 4 10 -13 16 -12 16 11 4 28 -16 51 -14 62 3 6 9 8 8 8 -1 0 -7 4 -11 9 -7
5 3 13 0 17 -6 5 -8 3 -9 -7 -4 -12 7 -12 6 -1 -6 7 -8 18 -14 25 -14 7 -1 11
-6 10 -12 -2 -7 6 -10 18 -8 11 2 22 -2 26 -11 4 -11 9 -12 19 -3 17 14 18 -2
2 -21 -11 -12 -10 -12 5 -1 14 11 17 11 17 0 0 -11 2 -11 10 1 8 13 10 12 10
-3 0 -10 5 -15 10 -12 10 6 19 -9 24 -40 1 -9 9 -21 17 -26 11 -7 11 -9 1 -9
-7 0 -11 -4 -8 -9 4 -5 -2 -8 -11 -7 -10 2 -12 1 -5 -1 11 -4 16 -17 13 -35 0
-5 8 -8 18 -8 11 0 23 -4 26 -10 3 -6 -1 -7 -9 -4 -9 3 -16 1 -16 -5 0 -6 4
-11 9 -11 5 0 12 -7 15 -16 3 -8 2 -12 -4 -9 -6 3 -10 2 -10 -4 0 -6 -7 -7
-17 -4 -11 5 -14 3 -9 -6 5 -7 17 -11 27 -8 13 3 17 1 12 -6 -10 -16 -11 -30
-1 -43 5 -7 2 -17 -7 -24 -8 -7 -15 -17 -15 -22 0 -6 8 -4 17 3 15 12 16 12 8
-1 -5 -8 -11 -24 -12 -35 -2 -11 -11 -26 -20 -32 -9 -7 -12 -13 -6 -13 7 0 19
7 27 16 9 8 16 11 16 5 0 -5 -5 -13 -10 -16 -8 -5 -8 -11 -1 -19 8 -9 7 -13
-4 -13 -8 0 -12 4 -9 9 3 4 0 8 -6 8 -7 0 -10 -6 -7 -14 3 -8 3 -17 -1 -20 -3
-4 -7 -14 -8 -22 -1 -9 1 -13 4 -9 4 4 7 12 7 17 0 6 7 13 15 15 9 3 11 1 5
-4 -14 -11 -18 -43 -5 -43 5 0 10 -5 10 -11 0 -6 -5 -7 -12 -2 -26 15 -44 12
-23 -4 17 -13 17 -15 2 -10 -13 5 -17 2 -15 -11 2 -12 -3 -16 -16 -14 -10 2
-15 -1 -12 -7 4 -5 2 -12 -3 -16 -6 -3 -8 3 -6 15 2 11 0 20 -6 20 -5 0 -9 -9
-9 -19 0 -11 -4 -23 -10 -26 -6 -3 -7 1 -4 9 5 12 -1 16 -23 16 -16 0 -35 -6
-42 -12 -11 -10 -13 -10 -7 0 4 6 2 12 -3 12 -6 0 -11 -6 -12 -12 0 -7 -7 1
-14 17 -12 25 -20 22 -17 -6 1 -3 -6 -6 -13 -6 -11 0 -12 3 -3 14 9 11 8 13
-3 11 -8 -2 -13 3 -11 10 1 8 -2 11 -8 7 -6 -3 -8 -11 -5 -16 10 -15 -2 -10
-21 8 -16 16 -16 16 -10 -7 l7 -25 -22 25 c-13 14 -20 18 -16 9 4 -13 1 -16
-14 -12 -14 4 -18 11 -13 25 4 14 2 18 -5 14 -6 -4 -11 -14 -11 -22 0 -8 -5
-14 -11 -14 -6 0 -8 9 -4 20 6 20 -1 24 -37 21 -10 -1 -18 3 -18 10 0 7 -7 4
-15 -7 -9 -11 -13 -13 -10 -4 3 9 -4 21 -17 29 -21 13 -22 13 -10 -2 10 -12
10 -17 1 -23 -8 -5 -9 -3 -4 6 6 10 4 12 -8 7 -11 -4 -14 -2 -10 9 4 11 0 14
-20 10 -20 -3 -24 -1 -20 15 3 11 0 19 -6 19 -7 0 -10 -4 -6 -9 3 -5 0 -13 -6
-17 -8 -4 -9 -3 -5 4 4 7 2 12 -5 12 -8 0 -8 4 1 15 7 9 10 18 6 22 -3 3 -6 1
-6 -5 0 -7 -9 -12 -20 -12 -22 0 -25 10 -10 28 7 9 7 9 -2 2 -16 -13 -38 -13
-38 1 0 5 4 8 8 5 5 -3 9 1 9 9 0 8 -5 13 -11 12 -6 -1 -10 4 -8 11 3 17 -3
15 -19 -5 -8 -10 -9 -14 -2 -10 6 4 15 2 18 -4 5 -7 0 -10 -11 -7 -11 2 -18
11 -16 19 1 9 -5 16 -13 17 -8 1 -21 3 -29 4 -15 1 -10 28 8 40 5 4 -2 10 -17
13 -14 4 -32 14 -39 23 -12 16 -11 16 6 2 18 -14 18 -14 6 7 -8 12 -18 19 -22
17 -5 -3 -6 8 -3 25 5 27 2 31 -16 31 -21 0 -21 0 2 21 24 20 24 20 2 9 -29
-13 -29 -6 -2 21 14 14 18 24 11 31 -12 12 -5 38 10 38 6 0 4 -8 -3 -17 -13
-16 -12 -17 4 -4 9 7 17 20 17 28 0 8 5 11 10 8 6 -3 10 -2 10 3 0 5 12 8 26
6 14 -1 23 0 20 3 -9 9 45 34 58 26 6 -3 6 -1 -1 8 -18 18 -16 25 6 25 11 0
18 -3 15 -7 -2 -4 4 -13 14 -20 15 -12 16 -12 4 2 -10 14 -10 18 4 23 9 3 14
13 11 21 -4 10 -1 12 10 8 9 -4 14 -2 11 3 -4 5 7 9 22 9 16 1 26 -3 24 -7 -3
-5 -9 -6 -13 -4 -3 3 -7 -4 -7 -15 0 -16 3 -15 22 9 16 19 31 27 53 27 17 0
31 -2 31 -5 0 -4 11 -6 24 -6 14 0 22 4 20 8 -3 5 -9 6 -14 3 -4 -3 -14 3 -21
13 -13 15 -12 16 4 3 9 -7 17 -10 17 -7z m475 6 c3 -5 1 -10 -4 -10 -6 0 -11
5 -11 10 0 6 2 10 4 10 3 0 8 -4 11 -10z m-247 -22 c-2 -7 6 -13 16 -13 11 0
21 -6 24 -13 2 -6 9 -9 14 -6 7 5 8 2 3 -6 -6 -10 -11 -9 -22 5 -8 12 -13 14
-13 5 0 -10 -5 -9 -18 3 -10 10 -22 14 -26 10 -4 -4 -4 0 0 10 7 19 25 23 22
5z m272 -13 c9 -10 9 -15 1 -15 -6 0 -11 4 -11 9 0 5 -8 12 -17 14 -15 4 -15
5 -2 6 9 0 22 -6 29 -14z m-695 -15 c3 -6 -1 -7 -9 -4 -18 7 -21 14 -7 14 6 0
13 -4 16 -10z m-65 -34 c0 -3 -13 -11 -30 -19 -22 -12 -32 -12 -37 -4 -3 7 -3
9 2 5 4 -4 17 -1 29 7 20 15 36 19 36 11z m661 -129 c-6 -8 -7 -18 -3 -22 4
-5 1 -5 -6 -1 -10 6 -10 11 -1 22 6 8 14 14 16 14 3 0 0 -6 -6 -13z m166 -42
c0 -8 -4 -15 -9 -15 -10 0 -11 14 -1 23 9 10 10 9 10 -8z m210 -22 c-4 -3 -2
-11 3 -18 7 -8 5 -12 -4 -12 -8 0 -12 7 -11 16 5 22 4 21 12 21 3 0 3 -3 0 -7z
m-1171 -18 c-1 -8 -5 -17 -8 -21 -5 -4 -4 16 1 34 3 9 9 -1 7 -13z m968 -63
c3 -5 -1 -9 -9 -9 -8 0 -12 4 -9 9 3 4 7 8 9 8 2 0 6 -4 9 -8z m-1084 -87 c0
-8 -2 -15 -4 -15 -2 0 -6 7 -10 15 -3 8 -1 15 4 15 6 0 10 -7 10 -15z m1081
-2 c13 -16 12 -17 -3 -4 -10 7 -18 15 -18 17 0 8 8 3 21 -13z m9 -27 c0 -2 -7
-7 -16 -10 -8 -3 -12 -2 -9 4 6 10 25 14 25 6z m249 -128 c-17 -33 -21 -36
-17 -13 2 17 16 34 26 35 1 0 -3 -10 -9 -22z m-824 2 c3 -5 -1 -10 -10 -10 -9
0 -13 5 -10 10 3 6 8 10 10 10 2 0 7 -4 10 -10z m85 -182 c0 -4 -9 -7 -20 -5
-29 5 -33 13 -5 13 14 0 25 -4 25 -8z m-203 -173 c4 -4 3 -5 -4 -2 -6 4 -13 2
-15 -5 -3 -8 -6 -6 -10 4 -7 17 15 19 29 3z m-86 -32 c7 -10 9 -15 5 -11 -5 4
-15 3 -23 -3 -9 -9 -13 -8 -13 0 0 9 -6 9 -22 0 -21 -11 -22 -11 -9 5 9 10 21
14 34 10 13 -4 17 -2 13 5 -11 18 0 13 15 -6z m-171 -73 c0 -5 -2 -10 -4 -10
-3 0 -8 5 -11 10 -3 6 -1 10 4 10 6 0 11 -4 11 -10z m-109 -47 c13 -16 12 -17
-3 -4 -10 7 -18 15 -18 17 0 8 8 3 21 -13z m-403 -259 c-1 -5 -9 -9 -16 -10
-10 -2 -11 1 -1 12 12 14 24 13 17 -2z m2338 -12 c1 -7 0 -8 -3 -2 -2 5 -9 8
-14 4 -5 -3 -9 0 -9 6 0 15 23 7 26 -8z m-2413 -77 c-7 -21 -12 -19 -10 4 0
11 5 18 9 15 4 -3 5 -11 1 -19z m2500 0 c-3 -9 -8 -14 -10 -11 -3 3 -2 9 2 15
9 16 15 13 8 -4z m67 -63 c0 -5 -7 -9 -15 -9 -8 0 -12 4 -9 9 3 4 9 8 15 8 5
0 9 -4 9 -8z m270 -364 c10 -21 10 -21 -3 -6 -8 10 -18 14 -22 10 -5 -4 -5 -1
-1 6 10 17 14 15 26 -10z m-3334 -282 c-2 -12 -7 -21 -11 -21 -5 0 -9 9 -10
21 -1 11 4 21 11 21 8 0 12 -9 10 -21z m3588 -274 c3 -5 -1 -9 -9 -9 -8 0 -12
4 -9 9 3 4 7 8 9 8 2 0 6 -4 9 -8z m69 -307 c-3 -9 -8 -14 -10 -11 -3 3 -2 9
2 15 9 16 15 13 8 -4z m7 -34 c0 -6 -4 -12 -8 -15 -5 -3 -9 1 -9 9 0 8 4 15 9
15 4 0 8 -4 8 -9z m-4074 -126 c-9 -9 -12 -23 -9 -32 6 -15 5 -16 -9 -3 -15
14 -15 17 -1 33 9 9 20 17 25 17 5 0 3 -7 -6 -15z m4107 -46 c-5 -5 -9 -1 -9
9 -1 9 -4 26 -8 37 -4 11 0 7 9 -9 10 -16 13 -32 8 -37z m81 -287 c3 -5 -1 -9
-9 -9 -8 0 -12 4 -9 9 3 4 7 8 9 8 2 0 6 -4 9 -8z m-4339 -31 c3 -5 2 -12 -3
-15 -5 -3 -9 1 -9 9 0 17 3 19 12 6z m4351 -36 c-3 -8 -1 -16 5 -19 5 -2 4 -3
-3 -2 -7 2 -12 11 -10 21 2 11 -1 14 -9 9 -8 -4 -10 -3 -5 5 10 15 29 3 22
-14z m-4354 -52 c-6 -2 -9 -10 -6 -15 4 -7 2 -8 -5 -4 -13 9 -5 26 12 25 9 0
8 -2 -1 -6z m-12 -183 c0 -5 -5 -10 -11 -10 -5 0 -7 5 -4 10 3 6 8 10 11 10 2
0 4 -4 4 -10z m4400 -20 c0 -5 -2 -10 -4 -10 -3 0 -8 5 -11 10 -3 6 -1 10 4
10 6 0 11 -4 11 -10z m-4390 -21 c0 -5 -4 -9 -8 -9 -5 0 -9 7 -9 15 0 8 4 12
9 9 4 -3 8 -9 8 -15z m6 -56 c1 -18 -3 -33 -7 -33 -5 0 -9 -4 -9 -10 0 -5 6
-7 14 -4 8 3 16 1 20 -4 3 -5 -5 -8 -16 -7 -24 2 -35 20 -18 30 8 5 8 11 -1
21 -6 8 -8 14 -4 14 4 0 3 6 -3 13 -8 9 -7 13 6 13 12 0 17 -9 18 -33z m44
-214 c0 -6 -4 -7 -10 -4 -5 3 -10 11 -10 16 0 6 5 7 10 4 6 -3 10 -11 10 -16z
m4243 -92 c3 -7 -1 -21 -9 -31 -7 -11 -10 -24 -7 -30 4 -6 -1 -5 -10 3 -18 14
-23 26 -8 17 5 -3 11 0 14 7 6 17 3 32 -6 29 -5 -1 -6 2 -2 8 9 14 22 13 28
-3z m-4193 -1 c0 -2 -7 -7 -16 -10 -8 -3 -12 -2 -9 4 6 10 25 14 25 6z m18
-78 c-6 -16 -21 -14 -24 4 -1 11 3 15 12 11 8 -3 13 -10 12 -15z m27 -28 c3
-6 -1 -7 -9 -4 -18 7 -21 14 -7 14 6 0 13 -4 16 -10z m4069 -91 c-3 -5 -11 -9
-17 -9 -7 0 -6 4 3 10 10 6 11 10 3 10 -7 0 -13 5 -13 11 0 8 5 8 15 -1 8 -7
12 -16 9 -21z m-179 -269 c-3 -5 -12 -10 -18 -10 -7 0 -6 4 3 10 19 12 23 12
15 0z m-3531 -192 c-3 -4 -11 -5 -19 -1 -21 7 -19 12 4 10 11 0 18 -5 15 -9z
m-47 -110 c-3 -8 -6 -5 -6 6 -1 11 2 17 5 13 3 -3 4 -12 1 -19z m3590 -34 c-3
-3 -12 -4 -19 -1 -8 3 -5 6 6 6 11 1 17 -2 13 -5z m23 -49 c10 -12 10 -15 -2
-15 -8 0 -15 7 -15 15 0 8 1 15 2 15 2 0 8 -7 15 -15z m34 -164 c-2 -3 -12 3
-22 13 -16 17 -16 18 5 5 12 -7 20 -15 17 -18z m1 -51 c3 -6 -1 -7 -9 -4 -18
7 -21 14 -7 14 6 0 13 -4 16 -10z m5 -125 c0 -2 -6 -5 -13 -8 -8 -3 -14 1 -14
8 0 7 6 11 14 8 7 -3 13 -6 13 -8z m-30 -145 c-6 -11 -13 -20 -16 -20 -2 0 0
9 6 20 6 11 13 20 16 20 2 0 0 -9 -6 -20z m-3510 -182 c0 -6 -6 -5 -15 2 -8 7
-15 14 -15 16 0 2 7 1 15 -2 8 -4 15 -11 15 -16z m25 -28 c4 -6 11 -7 17 -4 7
5 8 2 3 -5 -5 -9 -11 -9 -17 -3 -6 6 -17 8 -26 5 -10 -4 -13 -2 -8 5 9 15 23
15 31 2z m183 -123 c14 4 14 3 2 -5 -16 -12 -30 -7 -29 11 0 9 2 9 5 0 3 -7
13 -9 22 -6z m3172 -1 c0 -3 -4 -8 -10 -11 -5 -3 -10 -1 -10 4 0 6 5 11 10 11
6 0 10 -2 10 -4z m-3085 -26 c-3 -5 -12 -10 -18 -10 -7 0 -6 4 3 10 19 12 23
12 15 0z m284 -137 c6 -12 7 -24 3 -27 -5 -3 -9 0 -9 7 0 7 -4 21 -8 32 -10
25 -2 18 14 -12z m-974 -144 c11 -16 1 -19 -13 -3 -7 8 -8 14 -3 14 5 0 13 -5
16 -11z m785 -64 c0 -12 -19 -12 -23 0 -4 9 -1 12 9 8 7 -3 14 -7 14 -8z m388
-137 c-2 -7 2 -12 8 -11 5 1 16 -8 23 -19 13 -20 12 -20 -18 1 -38 27 -47 41
-27 41 9 0 15 -6 14 -12z m2337 -57 c-9 -8 -36 -10 -30 -2 2 4 11 8 20 8 8 0
13 -3 10 -6z m-285 -86 c5 3 11 2 14 -3 2 -4 -9 -8 -25 -7 -16 0 -31 6 -34 14
-3 9 0 11 10 7 8 -3 16 0 16 7 1 7 3 4 6 -6 2 -9 8 -15 13 -12z m-305 -15 c3
-5 2 -10 -4 -10 -5 0 -13 5 -16 10 -3 6 -2 10 4 10 5 0 13 -4 16 -10z m588 -3
c3 -8 -1 -14 -8 -14 -7 0 -11 6 -8 14 3 7 6 13 8 13 2 0 5 -6 8 -13z m-2686
-12 c4 -4 3 -5 -4 -2 -6 4 -13 2 -15 -5 -3 -8 -6 -6 -10 4 -7 17 15 19 29 3z
m2128 6 c3 -5 1 -12 -5 -16 -5 -3 -10 1 -10 9 0 18 6 21 15 7z m-2491 -9 c2
-4 -4 -8 -14 -8 -10 0 -16 4 -14 8 3 4 9 8 14 8 5 0 11 -4 14 -8z m-170 -20
c3 -5 -1 -9 -9 -9 -8 0 -12 4 -9 9 3 4 7 8 9 8 2 0 6 -4 9 -8z m3050 -100 c3
-5 -1 -9 -9 -9 -8 0 -15 4 -15 9 0 4 4 8 9 8 6 0 12 -4 15 -8z m-2371 -56 c4
-11 1 -13 -10 -9 -12 5 -14 3 -8 -7 5 -9 4 -11 -4 -6 -9 6 -9 11 0 22 14 17
16 17 22 0z m2487 -6 c0 -5 -5 -10 -11 -10 -5 0 -7 5 -4 10 3 6 8 10 11 10 2
0 4 -4 4 -10z m109 -33 c0 -9 -2 -8 -6 1 -2 6 -10 9 -15 6 -7 -4 -8 -2 -4 5 9
13 26 5 25 -12z m-2532 -29 c-3 -8 -6 -5 -6 6 -1 11 2 17 5 13 3 -3 4 -12 1
-19z m338 -58 c3 -5 1 -10 -4 -10 -6 0 -11 5 -11 10 0 6 2 10 4 10 3 0 8 -4
11 -10z m2285 -31 c0 -5 4 -8 8 -5 5 3 9 -1 9 -9 0 -19 0 -19 -22 5 -10 11
-13 20 -7 20 7 0 12 -5 12 -11z m-3414 -101 c4 -7 3 -8 -4 -4 -7 4 -12 2 -12
-5 0 -7 -3 -10 -6 -6 -6 5 3 27 11 27 2 0 7 -5 11 -12z m2419 -158 c3 -6 -1
-7 -9 -4 -18 7 -21 14 -7 14 6 0 13 -4 16 -10z m-455 -434 c0 -1 -7 -3 -15 -3
-8 0 -15 4 -15 8 0 5 -8 6 -17 3 -15 -5 -15 -4 -4 4 13 9 51 0 51 -12z m-180
8 c0 -8 -19 -13 -24 -6 -3 5 1 9 9 9 8 0 15 -2 15 -3z m104 -6 c-3 -4 -11 -5
-19 -1 -21 7 -19 12 4 10 11 0 18 -5 15 -9z"/>
<path d="M3750 7316 c0 -2 7 -7 16 -10 8 -3 12 -2 9 4 -6 10 -25 14 -25 6z"/>
<path d="M3675 7290 c-3 -5 -1 -10 4 -10 6 0 11 5 11 10 0 6 -2 10 -4 10 -3 0
-8 -4 -11 -10z"/>
<path d="M3660 7266 c0 -2 7 -7 16 -10 8 -3 12 -2 9 4 -6 10 -25 14 -25 6z"/>
<path d="M4160 7210 c8 -5 15 -13 16 -17 2 -18 17 -43 26 -43 5 0 6 6 1 13 -8
12 -10 18 -12 40 0 7 -11 14 -23 14 -18 2 -19 0 -8 -7z"/>
<path d="M4217 7049 c7 -7 15 -10 18 -7 3 3 -2 9 -12 12 -14 6 -15 5 -6 -5z"/>
<path d="M4230 6949 c0 -5 5 -7 10 -4 6 3 10 8 10 11 0 2 -4 4 -10 4 -5 0 -10
-5 -10 -11z"/>
<path d="M4193 6809 c-2 -23 3 -25 10 -4 4 8 3 16 -1 19 -4 3 -9 -4 -9 -15z"/>
<path d="M4076 6715 c4 -11 2 -14 -9 -9 -8 3 -17 1 -21 -4 -3 -5 5 -8 16 -7
24 2 35 19 19 30 -7 3 -8 0 -5 -10z"/>
<path d="M4180 6721 c0 -6 4 -13 10 -16 6 -3 7 1 4 9 -7 18 -14 21 -14 7z"/>
<path d="M4815 7820 c-3 -5 -1 -10 4 -10 6 0 11 5 11 10 0 6 -2 10 -4 10 -3 0
-8 -4 -11 -10z"/>
<path d="M4560 7799 c-13 -9 -12 -10 2 -5 10 3 21 0 25 -7 5 -7 19 -21 33 -32
15 -12 12 -5 -9 18 -19 20 -35 37 -35 37 -1 0 -8 -5 -16 -11z"/>
<path d="M4875 7580 c-3 -5 -1 -10 4 -10 6 0 11 5 11 10 0 6 -2 10 -4 10 -3 0
-8 -4 -11 -10z"/>
<path d="M4670 7560 c0 -6 7 -10 15 -10 8 0 15 2 15 4 0 2 -7 6 -15 10 -8 3
-15 1 -15 -4z"/>
<path d="M4690 7530 c-8 -5 -10 -10 -5 -10 6 0 3 -5 -5 -10 -9 -6 -10 -10 -3
-10 7 0 17 9 23 20 12 23 11 24 -10 10z"/>
<path d="M3516 7447 c3 -10 9 -15 12 -12 3 3 0 11 -7 18 -10 9 -11 8 -5 -6z"/>
<path d="M3396 7374 c-8 -21 -8 -39 1 -30 8 7 15 46 9 46 -2 0 -7 -7 -10 -16z"/>
<path d="M4665 7321 c-3 -5 -2 -12 3 -15 5 -3 9 1 9 9 0 17 -3 19 -12 6z"/>
<path d="M4636 7215 c-9 -26 -7 -32 5 -12 6 10 9 21 6 23 -2 3 -7 -2 -11 -11z"/>
<path d="M4410 6805 c0 -2 6 -8 13 -14 10 -8 14 -7 14 2 0 8 -6 14 -14 14 -7
0 -13 -1 -13 -2z"/>
<path d="M3414 6758 c-4 -7 -4 -10 1 -6 4 4 14 0 22 -10 13 -15 13 -15 3 6
-12 25 -16 27 -26 10z"/>
<path d="M3545 6679 c-4 -6 -5 -12 -2 -15 2 -3 7 2 10 11 7 17 1 20 -8 4z"/>
<path d="M3616 6638 c3 -4 9 -8 15 -8 5 0 9 4 9 8 0 5 -7 9 -15 9 -8 0 -12 -4
-9 -9z"/>
<path d="M3838 6543 c7 -3 16 -2 19 1 4 3 -2 6 -13 5 -11 0 -14 -3 -6 -6z"/>
<path d="M4011 6524 c0 -11 3 -14 6 -6 3 7 2 16 -1 19 -3 4 -6 -2 -5 -13z"/>
<path d="M4046 6522 c-3 -5 1 -9 9 -9 8 0 12 4 9 9 -3 4 -7 8 -9 8 -2 0 -6 -4
-9 -8z"/>
<path d="M4156 6484 c-17 -16 -13 -34 7 -34 7 0 6 4 -3 10 -8 5 -10 10 -4 10
7 0 14 7 18 15 7 19 1 19 -18 -1z"/>
<path d="M3913 6455 c0 -8 4 -12 9 -9 5 3 6 10 3 15 -9 13 -12 11 -12 -6z"/>
<path d="M3654 6399 c-3 -6 -1 -16 4 -21 8 -8 11 -5 9 11 -1 24 -3 25 -13 10z"/>
<path d="M4626 6362 c-3 -5 1 -9 9 -9 8 0 12 4 9 9 -3 4 -7 8 -9 8 -2 0 -6 -4
-9 -8z"/>
<path d="M4770 6320 c0 -5 5 -10 11 -10 5 0 7 5 4 10 -3 6 -8 10 -11 10 -2 0
-4 -4 -4 -10z"/>
<path d="M4790 6295 c-11 -13 -10 -14 4 -9 9 3 16 10 16 15 0 13 -6 11 -20 -6z"/>
<path d="M5047 6176 c-3 -8 2 -20 11 -27 14 -11 15 -11 5 0 -6 7 -9 20 -6 27
3 8 3 14 0 14 -3 0 -7 -6 -10 -14z"/>
<path d="M2616 5643 c-6 -14 -5 -15 5 -6 7 7 10 15 7 18 -3 3 -9 -2 -12 -12z"/>
<path d="M5715 5521 c-3 -5 -2 -12 3 -15 5 -3 9 1 9 9 0 17 -3 19 -12 6z"/>
<path d="M2479 5435 c-1 -3 -2 -11 -3 -17 -1 -7 -8 -12 -15 -10 -7 1 -10 -2
-6 -8 5 -8 11 -8 19 -1 7 6 17 7 22 3 4 -4 3 0 -4 9 -6 9 -9 19 -5 22 3 4 3 7
0 7 -4 0 -8 -2 -8 -5z"/>
<path d="M2383 5236 c-10 -11 -9 -16 5 -21 9 -3 13 -3 9 1 -4 4 -2 13 4 21 15
17 -2 16 -18 -1z"/>
<path d="M2307 5079 c7 -7 15 -10 18 -7 3 3 -2 9 -12 12 -14 6 -15 5 -6 -5z"/>
<path d="M2270 4979 c0 -5 5 -7 10 -4 6 3 10 8 10 11 0 2 -4 4 -10 4 -5 0 -10
-5 -10 -11z"/>
<path d="M2265 4951 c-3 -5 -2 -12 3 -15 5 -3 9 1 9 9 0 17 -3 19 -12 6z"/>
<path d="M2251 4925 c0 -5 3 -16 8 -23 7 -11 9 -10 14 3 4 9 3 14 -2 10 -5 -3
-12 1 -14 7 -3 7 -6 9 -6 3z"/>
<path d="M5980 4845 c-9 -11 -9 -15 -1 -15 7 0 10 -4 7 -9 -3 -4 4 -17 17 -27
12 -10 17 -12 10 -5 -10 11 -9 17 4 26 13 10 13 14 3 20 -9 6 -11 4 -5 -5 5
-8 3 -11 -6 -8 -8 3 -13 13 -13 22 2 20 0 20 -16 1z"/>
<path d="M2220 4800 c-9 -6 -10 -10 -3 -10 6 0 15 5 18 10 8 12 4 12 -15 0z"/>
<path d="M6035 4680 c-3 -5 -1 -10 4 -10 6 0 11 5 11 10 0 6 -2 10 -4 10 -3 0
-8 -4 -11 -10z"/>
<path d="M6055 4520 c3 -5 11 -10 16 -10 6 0 7 5 4 10 -3 6 -11 10 -16 10 -6
0 -7 -4 -4 -10z"/>
<path d="M1910 4380 c0 -5 5 -10 11 -10 5 0 7 5 4 10 -3 6 -8 10 -11 10 -2 0
-4 -4 -4 -10z"/>
<path d="M6112 4241 c5 -19 35 -23 35 -5 0 8 -4 14 -9 14 -4 0 -8 -6 -8 -12 0
-9 -4 -8 -11 2 -8 12 -10 12 -7 1z"/>
<path d="M6156 4142 c-3 -5 1 -9 9 -9 8 0 12 4 9 9 -3 4 -7 8 -9 8 -2 0 -6 -4
-9 -8z"/>
<path d="M1786 4098 c3 -5 10 -6 15 -3 13 9 11 12 -6 12 -8 0 -12 -4 -9 -9z"/>
<path d="M6210 4001 c0 -11 4 -22 9 -25 4 -3 6 6 3 19 -5 30 -12 33 -12 6z"/>
<path d="M6194 3959 c0 -10 4 -19 8 -19 4 0 8 6 8 14 0 8 -4 17 -8 20 -4 2 -8
-4 -8 -15z"/>
<path d="M1775 3940 c-3 -5 -2 -10 4 -10 5 0 13 5 16 10 3 6 2 10 -4 10 -5 0
-13 -4 -16 -10z"/>
<path d="M6205 3881 c-3 -5 0 -13 6 -17 7 -4 9 -3 5 4 -3 5 0 13 6 15 9 4 10
6 1 6 -6 1 -14 -3 -18 -8z"/>
<path d="M6187 3649 c7 -7 15 -10 18 -7 3 3 -2 9 -12 12 -14 6 -15 5 -6 -5z"/>
<path d="M1813 3605 c0 -8 4 -12 9 -9 5 3 6 10 3 15 -9 13 -12 11 -12 -6z"/>
<path d="M6145 3490 c-3 -5 1 -10 10 -10 9 0 13 5 10 10 -3 6 -8 10 -10 10 -2
0 -7 -4 -10 -10z"/>
<path d="M6143 3464 c4 -4 1 -14 -6 -23 -11 -14 -10 -15 8 -1 11 8 21 15 23
16 2 1 -5 5 -15 8 -9 4 -14 4 -10 0z"/>
<path d="M6150 3419 c0 -5 5 -7 10 -4 6 3 10 8 10 11 0 2 -4 4 -10 4 -5 0 -10
-5 -10 -11z"/>
<path d="M6044 3246 c1 -8 5 -18 8 -22 4 -3 5 1 4 10 -1 8 -5 18 -8 22 -4 3
-5 -1 -4 -10z"/>
<path d="M2017 3134 c7 -3 9 -13 6 -22 -4 -14 -3 -14 5 -2 12 16 7 30 -11 29
-9 0 -9 -2 0 -5z"/>
<path d="M5816 2861 c-21 -22 -24 -30 -13 -34 9 -3 14 1 13 11 0 9 5 16 12 15
6 -2 11 3 10 10 -2 6 3 11 10 9 8 -1 11 2 7 8 -8 14 -8 14 -39 -19z"/>
<path d="M2270 2720 c0 -5 5 -10 10 -10 6 0 10 5 10 10 0 6 -4 10 -10 10 -5 0
-10 -4 -10 -10z"/>
<path d="M5800 2726 c0 -2 8 -10 18 -17 15 -13 16 -12 3 4 -13 16 -21 21 -21
13z"/>
<path d="M5914 2462 c3 -5 0 -13 -6 -15 -9 -4 -10 -6 -1 -6 17 -1 25 16 12 25
-7 4 -9 3 -5 -4z"/>
<path d="M5930 2280 c0 -5 5 -10 10 -10 6 0 10 5 10 10 0 6 -4 10 -10 10 -5 0
-10 -4 -10 -10z"/>
<path d="M5950 2251 c0 -6 4 -13 10 -16 6 -3 7 1 4 9 -7 18 -14 21 -14 7z"/>
<path d="M5915 2160 c-3 -5 -1 -10 4 -10 6 0 11 5 11 10 0 6 -2 10 -4 10 -3 0
-8 -4 -11 -10z"/>
<path d="M2270 1991 c0 -5 7 -12 16 -15 14 -5 15 -4 4 9 -14 17 -20 19 -20 6z"/>
<path d="M5787 1873 c-7 -11 -3 -41 6 -48 4 -3 5 -2 2 2 -3 3 -1 11 5 17 5 7
5 18 1 25 -5 7 -11 9 -14 4z"/>
<path d="M5820 1783 c0 -1 8 -7 18 -12 12 -6 23 -5 35 4 15 11 13 12 -18 11
-19 0 -35 -2 -35 -3z"/>
<path d="M2910 1600 c0 -5 5 -10 10 -10 6 0 10 5 10 10 0 6 -4 10 -10 10 -5 0
-10 -4 -10 -10z"/>
<path d="M2975 1509 c-4 -6 -5 -12 -2 -15 2 -3 7 2 10 11 7 17 1 20 -8 4z"/>
<path d="M2630 1479 c0 -5 5 -7 10 -4 6 3 10 8 10 11 0 2 -4 4 -10 4 -5 0 -10
-5 -10 -11z"/>
<path d="M2753 1470 c-11 -16 -10 -18 2 -14 8 4 15 12 15 20 0 19 -3 18 -17
-6z"/>
<path d="M2707 1463 c3 -7 6 -13 8 -13 1 0 7 6 13 13 8 10 6 13 -7 13 -11 0
-17 -6 -14 -13z"/>
<path d="M2857 1459 c7 -7 15 -10 18 -7 3 3 -2 9 -12 12 -14 6 -15 5 -6 -5z"/>
<path d="M5043 1413 c0 -9 4 -10 14 -2 7 6 13 12 13 14 0 1 -6 2 -13 2 -8 0
-14 -6 -14 -14z"/>
<path d="M2100 1386 c0 -2 7 -7 16 -10 8 -3 12 -2 9 4 -6 10 -25 14 -25 6z"/>
<path d="M2209 1363 c-12 -16 -12 -17 2 -6 9 7 20 9 24 5 5 -4 5 -1 1 6 -9 16
-11 15 -27 -5z"/>
<path d="M2276 1372 c-3 -5 1 -9 9 -9 8 0 12 4 9 9 -3 4 -7 8 -9 8 -2 0 -6 -4
-9 -8z"/>
<path d="M2313 1364 c0 -11 3 -11 16 -1 12 10 14 9 9 -3 -4 -11 0 -16 12 -16
10 0 17 7 15 15 -2 19 -52 23 -52 5z"/>
<path d="M2466 1352 c-3 -5 1 -9 9 -9 8 0 12 4 9 9 -3 4 -7 8 -9 8 -2 0 -6 -4
-9 -8z"/>
<path d="M4985 1211 c-3 -5 0 -13 6 -17 7 -4 9 -3 5 4 -3 5 0 13 6 15 9 4 10
6 1 6 -6 1 -14 -3 -18 -8z"/>
<path d="M5700 1166 c0 -8 4 -17 9 -20 5 -4 7 3 4 14 -6 23 -13 26 -13 6z"/>
<path d="M5870 1116 c7 -7 13 -7 20 0 6 6 3 10 -10 10 -13 0 -16 -4 -10 -10z"/>
<path d="M5920 1120 c-12 -7 -10 -9 7 -7 12 0 19 5 17 9 -6 10 -6 10 -24 -2z"/>
<path d="M4976 1098 c3 -5 10 -6 15 -3 13 9 11 12 -6 12 -8 0 -12 -4 -9 -9z"/>
<path d="M5096 1092 c-3 -5 1 -9 9 -9 8 0 12 4 9 9 -3 4 -7 8 -9 8 -2 0 -6 -4
-9 -8z"/>
<path d="M2299 1053 c-13 -16 -12 -17 4 -4 16 13 21 21 13 21 -2 0 -10 -8 -17
-17z"/>
<path d="M5311 1044 c0 -11 3 -14 6 -6 3 7 2 16 -1 19 -3 4 -6 -2 -5 -13z"/>
<path d="M5376 1047 c3 -10 9 -15 12 -12 3 3 0 11 -7 18 -10 9 -11 8 -5 -6z"/>
<path d="M5982 1027 c-8 -9 -8 -17 0 -27 8 -13 9 -12 5 2 -3 9 -1 19 6 21 7 2
9 7 6 11 -3 4 -11 1 -17 -7z"/>
<path d="M5126 992 c-3 -5 1 -9 9 -9 8 0 12 4 9 9 -3 4 -7 8 -9 8 -2 0 -6 -4
-9 -8z"/>
<path d="M3030 981 c0 -6 4 -13 10 -16 6 -3 7 1 4 9 -7 18 -14 21 -14 7z"/>
<path d="M2736 968 c3 -5 10 -6 15 -3 13 9 11 12 -6 12 -8 0 -12 -4 -9 -9z"/>
<path d="M2773 965 c0 -8 4 -12 9 -9 5 3 6 10 3 15 -9 13 -12 11 -12 -6z"/>
<path d="M5196 971 c-3 -4 3 -16 14 -26 11 -10 20 -13 20 -8 0 6 -7 14 -16 17
-8 3 -12 10 -9 16 3 5 4 10 1 10 -3 0 -7 -4 -10 -9z"/>
<path d="M2533 932 c1 -14 5 -18 11 -12 7 7 6 14 -1 21 -9 9 -12 7 -10 -9z"/>
<path d="M2590 930 c-9 -6 -10 -10 -3 -10 6 0 15 5 18 10 8 12 4 12 -15 0z"/>
<path d="M5035 910 c3 -5 8 -10 11 -10 2 0 4 5 4 10 0 6 -5 10 -11 10 -5 0 -7
-4 -4 -10z"/>
<path d="M2993 885 c0 -8 4 -12 9 -9 5 3 6 10 3 15 -9 13 -12 11 -12 -6z"/>
<path d="M2837 872 c1 -3 -4 -13 -12 -22 -14 -16 -14 -18 0 -24 10 -4 14 -2 9
5 -4 6 0 15 7 20 10 6 11 11 3 17 -6 5 -9 7 -7 4z"/>
<path d="M5145 850 c-3 -6 1 -7 9 -4 18 7 21 14 7 14 -6 0 -13 -4 -16 -10z"/>
<path d="M3060 805 c-8 -9 -8 -15 -2 -15 12 0 26 19 19 26 -2 2 -10 -2 -17
-11z"/>
<path d="M2645 800 c-3 -5 -3 -10 1 -10 4 0 -1 -7 -12 -16 -18 -15 -18 -15 0
-6 11 5 21 17 22 26 3 18 -2 21 -11 6z"/>
<path d="M5736 797 c3 -10 9 -15 12 -12 3 3 0 11 -7 18 -10 9 -11 8 -5 -6z"/>
<path d="M3315 740 c3 -5 8 -10 11 -10 2 0 4 5 4 10 0 6 -5 10 -11 10 -5 0 -7
-4 -4 -10z"/>
<path d="M2815 730 c3 -5 8 -10 11 -10 2 0 4 5 4 10 0 6 -5 10 -11 10 -5 0 -7
-4 -4 -10z"/>
<path d="M4785 729 c-4 -6 -5 -12 -2 -15 2 -3 7 2 10 11 7 17 1 20 -8 4z"/>
<path d="M3337 685 c-4 -8 -3 -16 1 -19 4 -3 9 4 9 15 2 23 -3 25 -10 4z"/>
<path d="M5821 667 c-9 -11 -7 -17 6 -28 16 -13 17 -12 5 3 -10 13 -10 17 0
21 7 2 10 7 7 11 -3 4 -11 0 -18 -7z"/>
<path d="M4743 647 c-1 -11 -1 -18 0 -16 2 2 8 11 15 20 9 12 9 16 -1 16 -7 0
-14 -9 -14 -20z"/>
<path d="M2550 620 c0 -5 5 -10 10 -10 6 0 10 5 10 10 0 6 -4 10 -10 10 -5 0
-10 -4 -10 -10z"/>
<path d="M4729 618 c0 -2 -2 -10 -4 -18 -2 -8 -6 -24 -10 -35 -5 -14 -4 -16 3
-6 7 10 11 10 14 1 2 -7 4 4 5 24 1 20 -1 36 -3 36 -2 0 -4 -1 -5 -2z"/>
<path d="M4710 530 c-9 -6 -10 -10 -3 -10 6 0 15 5 18 10 8 12 4 12 -15 0z"/>
<path d="M3470 440 c0 -5 5 -10 11 -10 5 0 7 5 4 10 -3 6 -8 10 -11 10 -2 0
-4 -4 -4 -10z"/>
<path d="M4630 416 c0 -2 7 -7 16 -10 8 -3 12 -2 9 4 -6 10 -25 14 -25 6z"/>
<path d="M4620 385 c-7 -9 -8 -15 -2 -15 5 0 12 7 16 15 3 8 4 15 2 15 -2 0
-9 -7 -16 -15z"/>
<path d="M3511 348 c9 -7 18 -20 22 -28 4 -12 6 -12 6 2 1 10 -9 22 -21 28
-20 9 -21 9 -7 -2z"/>
<path d="M4580 320 c0 -5 5 -10 11 -10 5 0 7 5 4 10 -3 6 -8 10 -11 10 -2 0
-4 -4 -4 -10z"/>
<path d="M3690 141 c0 -6 4 -11 9 -11 5 0 12 -8 14 -17 4 -15 5 -15 6 -2 0 9
-6 22 -14 29 -10 9 -15 9 -15 1z"/>
<path d="M4314 62 c3 -5 0 -13 -6 -15 -9 -4 -10 -6 -1 -6 17 -1 25 16 12 25
-7 4 -9 3 -5 -4z"/>
<path d="M4264 38 l-19 -23 23 19 c12 11 22 21 22 23 0 8 -8 2 -26 -19z"/>
</g>
</svg>
