<?xml version="1.0"?>
<svg version="1.1" xmlns="http://www.w3.org/2000/svg" xmlns:xlink="http://www.w3.org/1999/xlink" width="160" height="96">
    <desc iVinci="yes" version="4.4" gridStep="20" showGrid="no" snapToGrid="no" codePlatform="0"/>
    <g id="Layer1">
        <g id="Shape1">
            <desc type="0" basicInfo-basicType="0" basicInfo-roundedRectRadius="12" basicInfo-polygonSides="6" basicInfo-starPoints="5" bounding="rect(-44.6775,-42.8611,89.355,85.7222)" text="" font-familyName="Helvetica" font-pixelSize="20" font-bold="0" font-underline="0" font-alignment="1" strokeStyle="0" markerStart="0" markerEnd="0" shadowEnabled="0" shadowOffsetX="0" shadowOffsetY="2" shadowBlur="4" shadowOpacity="160" blurEnabled="0" blurRadius="4" transform="matrix(0.300107,-0.154164,0.130172,0.248182,135.479,35.5956)" pers-center="0,0" pers-size="0,0" pers-start="0,0" pers-end="0,0" locked="0" mesh="" flag=""/>
            <path id="shapePath1" d="M121.92,42.1948 C130.003,40.7078 141.133,39.6543 142.697,34.1869 C144.26,28.7194 135.961,18.657 131.832,24.6095 C127.703,30.562 131.448,43.4635 137.585,43.6425 C143.722,43.8215 153.418,42.3387 153.485,37.4736 " style="stroke:#ffa4e1;stroke-opacity:1;stroke-width:3;stroke-linejoin:miter;stroke-miterlimit:2;stroke-linecap:round;fill:none;"/>
        </g>
        <g id="Shape2">
            <desc type="0" basicInfo-basicType="0" basicInfo-roundedRectRadius="12" basicInfo-polygonSides="6" basicInfo-starPoints="5" bounding="rect(-59.1335,-37.9056,118.267,75.8112)" text="" font-familyName="Helvetica" font-pixelSize="20" font-bold="0" font-underline="0" font-alignment="1" strokeStyle="0" markerStart="0" markerEnd="0" shadowEnabled="0" shadowOffsetX="0" shadowOffsetY="2" shadowBlur="4" shadowOpacity="160" blurEnabled="0" blurRadius="4" transform="matrix(1,0,0,1,65.6485,45.4499)" pers-center="0,0" pers-size="0,0" pers-start="0,0" pers-end="0,0" locked="0" mesh="" flag=""/>
            <path id="shapePath2" d="M6.70501,64.4025 C7.704,60.0575 50.284,42.2736 76.527,15.421 C99.316,-7.89816 124.782,26.0255 124.782,46.4225 C124.782,66.8205 98.349,83.3555 65.743,83.3555 C33.137,83.3555 3.87301,76.7235 6.70501,64.4025 Z" style="stroke:#ffa4e1;stroke-opacity:1;stroke-width:2;stroke-linejoin:miter;stroke-miterlimit:2;stroke-linecap:round;fill-rule:evenodd;fill:#ffffff;fill-opacity:1;"/>
        </g>
        <g id="Shape3">
            <desc type="0" basicInfo-basicType="0" basicInfo-roundedRectRadius="12" basicInfo-polygonSides="6" basicInfo-starPoints="5" bounding="rect(-23.8834,-30.4974,47.7668,60.995)" text="" font-familyName="Helvetica" font-pixelSize="20" font-bold="0" font-underline="0" font-alignment="1" strokeStyle="0" markerStart="0" markerEnd="0" shadowEnabled="0" shadowOffsetX="0" shadowOffsetY="2" shadowBlur="4" shadowOpacity="160" blurEnabled="0" blurRadius="4" transform="matrix(0.167543,-0.200914,0.126123,0.117996,27.7505,54.352)" pers-center="0,0" pers-size="0,0" pers-start="0,0" pers-end="0,0" locked="0" mesh="" flag=""/>
            <path id="shapePath3" d="M23.749,59.1505 C21.625,57.1625 21.694,53.4035 23.904,50.7535 C26.114,48.1035 29.628,47.5655 31.752,49.5535 C33.876,51.5405 33.807,55.3005 31.597,57.9505 C29.387,60.6005 25.873,61.1375 23.749,59.1505 Z" style="stroke:#ffa4e1;stroke-opacity:1;stroke-width:3;stroke-linejoin:miter;stroke-miterlimit:2;stroke-linecap:round;fill-rule:evenodd;fill:#ffffff;fill-opacity:1;"/>
        </g>
        <g id="Shape4">
            <desc type="0" basicInfo-basicType="0" basicInfo-roundedRectRadius="12" basicInfo-polygonSides="6" basicInfo-starPoints="5" bounding="rect(-22.1711,-30.4957,44.3422,60.9916)" text="" font-familyName="Helvetica" font-pixelSize="20" font-bold="0" font-underline="0" font-alignment="1" strokeStyle="0" markerStart="0" markerEnd="0" shadowEnabled="0" shadowOffsetX="0" shadowOffsetY="2" shadowBlur="4" shadowOpacity="160" blurEnabled="0" blurRadius="4" transform="matrix(-0.0724858,-0.148625,0.0952324,-0.0498635,26.5512,55.0952)" pers-center="0,0" pers-size="0,0" pers-start="0,0" pers-end="0,0" locked="0" mesh="" flag=""/>
            <path id="shapePath4" d="M28.158,58.3905 C26.554,59.2295 24.479,58.3215 23.523,56.3615 C23.109,55.5125 25.892,55.4875 26.008,54.6696 C26.103,54.0005 23.613,53.0985 24.294,52.2445 C25.068,51.2725 28.375,51.3595 29.331,53.3195 C30.287,55.2805 29.762,57.5505 28.158,58.3905 Z" style="stroke:none;fill-rule:evenodd;fill:#ff83ea;fill-opacity:1;"/>
        </g>
        <g id="Shape5">
            <desc type="0" basicInfo-basicType="4" basicInfo-roundedRectRadius="12" basicInfo-polygonSides="6" basicInfo-starPoints="5" bounding="rect(-23.8827,-30.4971,47.7654,60.9942)" text="" font-familyName="Helvetica" font-pixelSize="20" font-bold="0" font-underline="0" font-alignment="1" strokeStyle="0" markerStart="0" markerEnd="0" shadowEnabled="0" shadowOffsetX="0" shadowOffsetY="2" shadowBlur="4" shadowOpacity="160" blurEnabled="0" blurRadius="4" transform="matrix(0.503462,0.186818,-0.156872,0.506692,42.753,31.3988)" pers-center="0,0" pers-size="0,0" pers-start="0,0" pers-end="0,0" locked="0" mesh="" flag=""/>
            <path id="shapePath5" d="M30.729,26.9368 C33.371,18.4026 40.896,13.4819 47.537,15.9461 C54.178,18.4103 57.419,27.3262 54.777,35.8604 C52.135,44.3945 44.61,49.3156 37.969,46.8515 C31.328,44.3866 28.087,35.471 30.729,26.9368 Z" style="stroke:#ffa4e1;stroke-opacity:1;stroke-width:3;stroke-linejoin:miter;stroke-miterlimit:2;stroke-linecap:round;fill-rule:evenodd;fill:#fbb2ff;fill-opacity:1;"/>
        </g>
        <g id="Shape6">
            <desc type="0" basicInfo-basicType="0" basicInfo-roundedRectRadius="12" basicInfo-polygonSides="6" basicInfo-starPoints="5" bounding="rect(-33.7649,-22.1175,67.5298,44.2348)" text="" font-familyName="Helvetica" font-pixelSize="20" font-bold="0" font-underline="0" font-alignment="1" strokeStyle="0" markerStart="0" markerEnd="0" shadowEnabled="0" shadowOffsetX="0" shadowOffsetY="2" shadowBlur="4" shadowOpacity="160" blurEnabled="0" blurRadius="4" transform="matrix(1,0,0,1,88.0409,66.3383)" pers-center="0,0" pers-size="0,0" pers-start="0,0" pers-end="0,0" locked="0" mesh="" flag=""/>
            <path id="shapePath6" d="M54.276,85.1456 C54.276,74.8226 97.894,73.3965 97.894,73.3965 C60.461,64.1855 94.125,36.7557 114.21,46.1546 C126.324,51.8236 120.316,84.0925 120.316,84.0925 C120.316,84.0925 54.276,93.1646 54.276,85.1456 Z" style="stroke:#ffa4e1;stroke-opacity:1;stroke-width:3;stroke-linejoin:miter;stroke-miterlimit:2;stroke-linecap:round;fill-rule:evenodd;fill:#ffffff;fill-opacity:1;"/>
        </g>
        <g id="Shape7">
            <desc type="0" basicInfo-basicType="0" basicInfo-roundedRectRadius="12" basicInfo-polygonSides="6" basicInfo-starPoints="5" bounding="rect(-28.5159,-27.1913,57.0318,54.3826)" text="" font-familyName="Helvetica" font-pixelSize="20" font-bold="0" font-underline="0" font-alignment="1" strokeStyle="0" markerStart="0" markerEnd="0" shadowEnabled="0" shadowOffsetX="0" shadowOffsetY="2" shadowBlur="4" shadowOpacity="160" blurEnabled="0" blurRadius="4" transform="matrix(0.42405,0.0934614,-0.0854125,0.387531,40.1524,77.1299)" pers-center="0,0" pers-size="0,0" pers-start="0,0" pers-end="0,0" locked="0" mesh="" flag=""/>
            <path id="shapePath7" d="M26.67,80.7725 C27.552,76.7715 39.077,77.0435 39.077,77.0435 C31.71,75.1885 38.643,62.2365 48.982,68.8286 C53.823,71.9145 53.613,84.5665 47.671,87.0925 C39.152,90.7146 25.985,83.8795 26.67,80.7725 Z" style="stroke:#ffa4e1;stroke-opacity:1;stroke-width:3;stroke-linejoin:miter;stroke-miterlimit:2;stroke-linecap:round;fill-rule:evenodd;fill:#ffffff;fill-opacity:1;"/>
        </g>
        <g id="Shape8">
            <desc type="0" basicInfo-basicType="0" basicInfo-roundedRectRadius="12" basicInfo-polygonSides="6" basicInfo-starPoints="5" bounding="rect(-14.6931,-3.19004,29.3863,6.38009)" text="" font-familyName="Helvetica" font-pixelSize="20" font-bold="0" font-underline="0" font-alignment="1" strokeStyle="0" markerStart="0" markerEnd="0" shadowEnabled="0" shadowOffsetX="0" shadowOffsetY="2" shadowBlur="4" shadowOpacity="160" blurEnabled="0" blurRadius="4" transform="matrix(0.395637,-0.0353858,0.0705415,0.788703,16.2561,65.9516)" pers-center="0,0" pers-size="0,0" pers-start="0,0" pers-end="0,0" locked="0" mesh="" flag=""/>
            <path id="shapePath8" d="M10.668,68.9875 C10.668,68.9875 19.547,63.8985 21.621,62.9975 C23.694,62.0965 10.668,68.9875 10.668,68.9875 Z" style="stroke:#ffa4e1;stroke-opacity:1;stroke-width:1;stroke-linejoin:miter;stroke-miterlimit:2;stroke-linecap:round;fill-rule:evenodd;fill:#ff83ea;fill-opacity:1;"/>
        </g>
        <g id="Shape9">
            <desc type="0" basicInfo-basicType="0" basicInfo-roundedRectRadius="12" basicInfo-polygonSides="6" basicInfo-starPoints="5" bounding="rect(-14.6934,-3.18995,29.3868,6.37991)" text="" font-familyName="Helvetica" font-pixelSize="20" font-bold="0" font-underline="0" font-alignment="1" strokeStyle="0" markerStart="0" markerEnd="0" shadowEnabled="0" shadowOffsetX="0" shadowOffsetY="2" shadowBlur="4" shadowOpacity="160" blurEnabled="0" blurRadius="4" transform="matrix(0.399433,0.18916,-0.0442536,0.7665,18.6692,69.3218)" pers-center="0,0" pers-size="0,0" pers-start="0,0" pers-end="0,0" locked="0" mesh="" flag=""/>
            <path id="shapePath9" d="M12.659,68.9875 C12.659,68.9875 22.247,69.2745 24.445,69.6066 C26.642,69.9375 12.659,68.9875 12.659,68.9875 Z" style="stroke:#ffa4e1;stroke-opacity:1;stroke-width:1;stroke-linejoin:miter;stroke-miterlimit:2;stroke-linecap:round;fill-rule:evenodd;fill:#ff83ea;fill-opacity:1;"/>
        </g>
        <g id="Shape10">
            <desc type="0" basicInfo-basicType="0" basicInfo-roundedRectRadius="12" basicInfo-polygonSides="6" basicInfo-starPoints="5" bounding="rect(-14.6934,-3.18995,29.3868,6.37991)" text="" font-familyName="Helvetica" font-pixelSize="20" font-bold="0" font-underline="0" font-alignment="1" strokeStyle="0" markerStart="0" markerEnd="0" shadowEnabled="0" shadowOffsetX="0" shadowOffsetY="2" shadowBlur="4" shadowOpacity="160" blurEnabled="0" blurRadius="4" transform="matrix(0.399433,0.18916,-0.0442536,0.7665,18.6692,69.3218)" pers-center="0,0" pers-size="0,0" pers-start="0,0" pers-end="0,0" locked="0" mesh="" flag=""/>
            <path id="shapePath10" d="M12.659,68.9875 C12.659,68.9875 22.247,69.2745 24.445,69.6066 C26.642,69.9375 12.659,68.9875 12.659,68.9875 Z" style="stroke:#ffa4e1;stroke-opacity:1;stroke-width:1;stroke-linejoin:miter;stroke-miterlimit:2;stroke-linecap:round;fill-rule:evenodd;fill:#ff83ea;fill-opacity:1;"/>
        </g>
        <g id="Shape11">
            <desc type="0" basicInfo-basicType="0" basicInfo-roundedRectRadius="12" basicInfo-polygonSides="6" basicInfo-starPoints="5" bounding="rect(-14.6933,-3.18972,29.3867,6.37945)" text="" font-familyName="Helvetica" font-pixelSize="20" font-bold="0" font-underline="0" font-alignment="1" strokeStyle="0" markerStart="0" markerEnd="0" shadowEnabled="0" shadowOffsetX="0" shadowOffsetY="2" shadowBlur="4" shadowOpacity="160" blurEnabled="0" blurRadius="4" transform="matrix(0.378406,0.361113,-0.13533,0.702069,17.8577,72.8371)" pers-center="0,0" pers-size="0,0" pers-start="0,0" pers-end="0,0" locked="0" mesh="" flag=""/>
            <path id="shapePath11" d="M11.866,69.7705 C11.866,69.7705 21.454,74.4305 23.62,75.7495 C25.786,77.0675 11.866,69.7705 11.866,69.7705 Z" style="stroke:#ffa4e1;stroke-opacity:1;stroke-width:1;stroke-linejoin:miter;stroke-miterlimit:2;stroke-linecap:round;fill-rule:evenodd;fill:#ff83ea;fill-opacity:1;"/>
        </g>
    </g>
</svg>
