<?xml version="1.0"?>
<svg version="1.1" xmlns="http://www.w3.org/2000/svg" xmlns:xlink="http://www.w3.org/1999/xlink" width="72" height="130">
    <desc iVinci="yes" version="4.4" gridStep="20" showGrid="no" snapToGrid="no" codePlatform="0"/>
    <g id="Layer1">
        <g id="Shape1">
            <desc type="0" basicInfo-basicType="0" basicInfo-roundedRectRadius="12" basicInfo-polygonSides="6" basicInfo-starPoints="5" bounding="rect(-44.678,-42.861,89.3559,85.7221)" text="" font-familyName="Helvetica" font-pixelSize="20" font-bold="0" font-underline="0" font-alignment="1" strokeStyle="0" markerStart="0" markerEnd="0" shadowEnabled="0" shadowOffsetX="0" shadowOffsetY="2" shadowBlur="4" shadowOpacity="160" blurEnabled="0" blurRadius="4" transform="matrix(-0.0236332,-0.33656,0.279383,-0.0220099,37.6066,17.7857)" pers-center="0,0" pers-size="0,0" pers-start="0,0" pers-end="0,0" locked="0" mesh="" flag=""/>
            <path id="shapePath1" d="M38.3376,32.8481 C40.1513,24.8321 43.5626,14.1851 39.1516,10.5961 C34.7406,7.007 22.2242,10.6771 26.0716,16.8156 C29.9189,22.9541 43.2533,24.5877 45.8328,19.0164 C48.4124,13.4452 50.8647,3.9474 46.4184,1.9715 " style="stroke:#588dff;stroke-opacity:1;stroke-width:3;stroke-linejoin:miter;stroke-miterlimit:2;stroke-linecap:round;fill:none;"/>
        </g>
        <g id="Shape2">
            <desc type="0" basicInfo-basicType="4" basicInfo-roundedRectRadius="12" basicInfo-polygonSides="6" basicInfo-starPoints="5" bounding="rect(-11.3904,-12.4926,22.7808,24.9851)" text="" font-familyName="Helvetica" font-pixelSize="20" font-bold="0" font-underline="0" font-alignment="1" strokeStyle="0" markerStart="0" markerEnd="0" shadowEnabled="0" shadowOffsetX="0" shadowOffsetY="2" shadowBlur="4" shadowOpacity="160" blurEnabled="0" blurRadius="4" transform="matrix(0.747593,0,0,0.791851,16.6679,91.3668)" pers-center="0,0" pers-size="0,0" pers-start="0,0" pers-end="0,0" locked="0" mesh="" flag=""/>
            <path id="shapePath2" d="M8.15247,91.3665 C8.15247,85.9035 11.9649,81.4745 16.6678,81.4745 C21.3707,81.4745 25.1832,85.9035 25.1832,91.3665 C25.1832,96.8295 21.3707,101.259 16.6678,101.259 C11.9649,101.259 8.15247,96.8295 8.15247,91.3665 Z" style="stroke:#588dff;stroke-opacity:1;stroke-width:3;stroke-linejoin:miter;stroke-miterlimit:2;stroke-linecap:round;fill-rule:evenodd;fill:#ffffff;fill-opacity:1;"/>
        </g>
        <g id="Shape3">
            <desc type="0" basicInfo-basicType="4" basicInfo-roundedRectRadius="12" basicInfo-polygonSides="6" basicInfo-starPoints="5" bounding="rect(-11.3904,-12.4919,22.7807,24.9839)" text="" font-familyName="Helvetica" font-pixelSize="20" font-bold="0" font-underline="0" font-alignment="1" strokeStyle="0" markerStart="0" markerEnd="0" shadowEnabled="0" shadowOffsetX="0" shadowOffsetY="2" shadowBlur="4" shadowOpacity="160" blurEnabled="0" blurRadius="4" transform="matrix(0.747593,0,0,0.791851,57.3914,92.6752)" pers-center="0,0" pers-size="0,0" pers-start="0,0" pers-end="0,0" locked="0" mesh="" flag=""/>
            <path id="shapePath3" d="M48.876,92.6755 C48.876,87.2125 52.6884,82.7835 57.3913,82.7835 C62.0943,82.7835 65.9067,87.2125 65.9067,92.6755 C65.9067,98.1395 62.0942,102.567 57.3913,102.567 C52.6884,102.567 48.876,98.1395 48.876,92.6755 Z" style="stroke:#588dff;stroke-opacity:1;stroke-width:3;stroke-linejoin:miter;stroke-miterlimit:2;stroke-linecap:round;fill-rule:evenodd;fill:#ffffff;fill-opacity:1;"/>
        </g>
        <g id="Shape4">
            <desc type="0" basicInfo-basicType="4" basicInfo-roundedRectRadius="12" basicInfo-polygonSides="6" basicInfo-starPoints="5" bounding="rect(-41.7035,-38.2133,83.4071,76.4265)" text="" font-familyName="Helvetica" font-pixelSize="20" font-bold="0" font-underline="0" font-alignment="1" strokeStyle="0" markerStart="0" markerEnd="0" shadowEnabled="0" shadowOffsetX="0" shadowOffsetY="2" shadowBlur="4" shadowOpacity="160" blurEnabled="0" blurRadius="4" transform="matrix(0.747593,0,0,0.982199,37.9287,63.6171)" pers-center="0,0" pers-size="0,0" pers-start="0,0" pers-end="0,0" locked="0" mesh="" flag=""/>
            <path id="shapePath4" d="M6.75146,63.6167 C6.75146,42.888 20.71,26.084 37.9288,26.084 C55.1475,26.084 69.106,42.888 69.106,63.6167 C69.106,84.3455 55.1475,101.15 37.9287,101.15 C20.71,101.15 6.75146,84.3455 6.75146,63.6167 Z" style="stroke:#588dff;stroke-opacity:1;stroke-width:2;stroke-linejoin:miter;stroke-miterlimit:2;stroke-linecap:round;fill-rule:evenodd;fill:#ffffff;fill-opacity:1;"/>
        </g>
        <g id="Shape5">
            <desc type="0" basicInfo-basicType="0" basicInfo-roundedRectRadius="12" basicInfo-polygonSides="6" basicInfo-starPoints="5" bounding="rect(-28.4601,-29.3949,56.9202,58.7895)" text="" font-familyName="Helvetica" font-pixelSize="20" font-bold="0" font-underline="0" font-alignment="1" strokeStyle="0" markerStart="0" markerEnd="0" shadowEnabled="0" shadowOffsetX="0" shadowOffsetY="2" shadowBlur="4" shadowOpacity="160" blurEnabled="0" blurRadius="4" transform="matrix(0.747593,0,0,0.694299,37.4748,107.619)" pers-center="0,0" pers-size="0,0" pers-start="0,0" pers-end="0,0" locked="0" mesh="" flag=""/>
            <path id="shapePath5" d="M16.7632,88.4405 C14.0164,97.8795 22.0658,104.363 24.1798,110.425 C28.2924,122.22 30.9991,128.028 36.6575,128.028 C44.9396,128.028 45.9019,119.853 50.8247,107.619 C52.6798,103.009 60.1642,94.3535 58.516,87.2105 " style="stroke:#588dff;stroke-opacity:1;stroke-width:3;stroke-linejoin:miter;stroke-miterlimit:2;stroke-linecap:round;fill-rule:evenodd;fill:#ffffff;fill-opacity:1;"/>
        </g>
        <g id="Shape6">
            <desc type="0" basicInfo-basicType="4" basicInfo-roundedRectRadius="12" basicInfo-polygonSides="6" basicInfo-starPoints="5" bounding="rect(-23.883,-30.4968,47.766,60.9937)" text="" font-familyName="Helvetica" font-pixelSize="20" font-bold="0" font-underline="0" font-alignment="1" strokeStyle="0" markerStart="0" markerEnd="0" shadowEnabled="0" shadowOffsetX="0" shadowOffsetY="2" shadowBlur="4" shadowOpacity="160" blurEnabled="0" blurRadius="4" transform="matrix(0.421624,0.332579,-0.305077,0.433906,56.6647,70.5177)" pers-center="0,0" pers-size="0,0" pers-start="0,0" pers-end="0,0" locked="0" mesh="" flag=""/>
            <path id="shapePath6" d="M46.595,62.5747 C51.7334,55.2665 60.4073,52.8982 65.9686,57.285 C71.5299,61.6718 71.8728,71.1525 66.7344,78.4605 C61.596,85.7695 52.9221,88.1375 47.3608,83.7505 C41.7995,79.3635 41.4566,69.883 46.595,62.5747 Z" style="stroke:#588dff;stroke-opacity:1;stroke-width:3;stroke-linejoin:miter;stroke-miterlimit:2;stroke-linecap:round;fill-rule:evenodd;fill:#4669ff;fill-opacity:1;"/>
        </g>
        <g id="Shape7">
            <desc type="0" basicInfo-basicType="4" basicInfo-roundedRectRadius="12" basicInfo-polygonSides="6" basicInfo-starPoints="5" bounding="rect(-23.8829,-30.4968,47.7658,60.9938)" text="" font-familyName="Helvetica" font-pixelSize="20" font-bold="0" font-underline="0" font-alignment="1" strokeStyle="0" markerStart="0" markerEnd="0" shadowEnabled="0" shadowOffsetX="0" shadowOffsetY="2" shadowBlur="4" shadowOpacity="160" blurEnabled="0" blurRadius="4" transform="matrix(0.412168,-0.459094,0.397533,0.400408,17.2426,69.5422)" pers-center="0,0" pers-size="0,0" pers-start="0,0" pers-end="0,0" locked="0" mesh="" flag=""/>
            <path id="shapePath7" d="M7.39866,80.5065 C0.703064,73.7625 -0.317539,63.3866 5.11906,57.3311 C10.5557,51.2755 20.3908,51.8336 27.0864,58.5777 C33.782,65.3218 34.8027,75.6975 29.3661,81.7535 C23.9295,87.8095 14.0943,87.2505 7.39866,80.5065 Z" style="stroke:#588dff;stroke-opacity:1;stroke-width:3;stroke-linejoin:miter;stroke-miterlimit:2;stroke-linecap:round;fill-rule:evenodd;fill:#4669ff;fill-opacity:1;"/>
        </g>
        <g id="Shape8">
            <desc type="0" basicInfo-basicType="4" basicInfo-roundedRectRadius="12" basicInfo-polygonSides="6" basicInfo-starPoints="5" bounding="rect(-23.8827,-30.4973,47.7652,60.9948)" text="" font-familyName="Helvetica" font-pixelSize="20" font-bold="0" font-underline="0" font-alignment="1" strokeStyle="0" markerStart="0" markerEnd="0" shadowEnabled="0" shadowOffsetX="0" shadowOffsetY="2" shadowBlur="4" shadowOpacity="160" blurEnabled="0" blurRadius="4" transform="matrix(-0.0650513,-0.259059,0.162623,-0.0458137,28.006,93.7595)" pers-center="0,0" pers-size="0,0" pers-start="0,0" pers-end="0,0" locked="0" mesh="" flag=""/>
            <path id="shapePath8" d="M29.5597,99.9465 C26.8207,100.718 23.9046,98.5745 23.0466,95.1575 C22.1885,91.7395 23.7134,88.3445 26.4525,87.5725 C29.1915,86.8015 32.1075,88.9455 32.9656,92.3625 C33.8236,95.7795 32.2988,99.1755 29.5597,99.9465 Z" style="stroke:#588dff;stroke-opacity:1;stroke-width:3;stroke-linejoin:miter;stroke-miterlimit:2;stroke-linecap:round;fill-rule:evenodd;fill:#ffffff;fill-opacity:1;"/>
        </g>
        <g id="Shape9">
            <desc type="0" basicInfo-basicType="4" basicInfo-roundedRectRadius="12" basicInfo-polygonSides="6" basicInfo-starPoints="5" bounding="rect(-23.8833,-30.4968,47.7665,60.9937)" text="" font-familyName="Helvetica" font-pixelSize="20" font-bold="0" font-underline="0" font-alignment="1" strokeStyle="0" markerStart="0" markerEnd="0" shadowEnabled="0" shadowOffsetX="0" shadowOffsetY="2" shadowBlur="4" shadowOpacity="160" blurEnabled="0" blurRadius="4" transform="matrix(0.167543,-0.200914,0.126123,0.117996,45.6475,93.76)" pers-center="0,0" pers-size="0,0" pers-start="0,0" pers-end="0,0" locked="0" mesh="" flag=""/>
            <path id="shapePath9" d="M41.6461,98.5585 C39.5218,96.5705 39.5912,92.8115 41.8012,90.1615 C44.0111,87.5115 47.5247,86.9745 49.649,88.9615 C51.7732,90.9485 51.7038,94.7085 49.4939,97.3585 C47.2838,100.009 43.7703,100.546 41.6461,98.5585 Z" style="stroke:#588dff;stroke-opacity:1;stroke-width:3;stroke-linejoin:miter;stroke-miterlimit:2;stroke-linecap:round;fill-rule:evenodd;fill:#ffffff;fill-opacity:1;"/>
        </g>
        <g id="Shape10">
            <desc type="0" basicInfo-basicType="0" basicInfo-roundedRectRadius="12" basicInfo-polygonSides="6" basicInfo-starPoints="5" bounding="rect(-22.1685,-30.4971,44.337,60.9943)" text="" font-familyName="Helvetica" font-pixelSize="20" font-bold="0" font-underline="0" font-alignment="1" strokeStyle="0" markerStart="0" markerEnd="0" shadowEnabled="0" shadowOffsetX="0" shadowOffsetY="2" shadowBlur="4" shadowOpacity="160" blurEnabled="0" blurRadius="4" transform="matrix(-0.0402724,-0.16038,0.103469,-0.0291491,29.6268,94.2881)" pers-center="0,0" pers-size="0,0" pers-start="0,0" pers-end="0,0" locked="0" mesh="" flag=""/>
            <path id="shapePath10" d="M30.5196,97.8435 C28.7769,98.3345 26.9335,97.0175 26.4023,94.9025 C26.1725,93.9875 28.9009,94.5365 29.1831,93.7595 C29.4139,93.1245 27.164,91.7285 28.0061,91.0335 C28.9639,90.2425 32.182,91.0095 32.7133,93.1245 C33.2445,95.2405 32.2623,97.3525 30.5196,97.8435 Z" style="stroke:none;fill-rule:evenodd;fill:#000080;fill-opacity:1;"/>
        </g>
        <g id="Shape11">
            <desc type="0" basicInfo-basicType="0" basicInfo-roundedRectRadius="12" basicInfo-polygonSides="6" basicInfo-starPoints="5" bounding="rect(-14.6929,-3.18969,29.3857,6.37938)" text="" font-familyName="Helvetica" font-pixelSize="20" font-bold="0" font-underline="0" font-alignment="1" strokeStyle="0" markerStart="0" markerEnd="0" shadowEnabled="0" shadowOffsetX="0" shadowOffsetY="2" shadowBlur="4" shadowOpacity="160" blurEnabled="0" blurRadius="4" transform="matrix(-0.713302,0.237071,0.38621,1.30369,14.9042,106.944)" pers-center="0,0" pers-size="0,0" pers-start="0,0" pers-end="0,0" locked="0" mesh="" flag=""/>
            <path id="shapePath11" d="M26.6165,107.619 C26.6165,107.619 7.83497,106.127 3.63447,106.233 C-0.566032,106.341 26.6165,107.619 26.6165,107.619 Z" style="stroke:#588dff;stroke-opacity:1;stroke-width:1;stroke-linejoin:miter;stroke-miterlimit:2;stroke-linecap:round;fill-rule:evenodd;fill:#ff83ea;fill-opacity:1;"/>
        </g>
        <g id="Shape12">
            <desc type="0" basicInfo-basicType="0" basicInfo-roundedRectRadius="12" basicInfo-polygonSides="6" basicInfo-starPoints="5" bounding="rect(-14.6927,-3.1899,29.3855,6.37983)" text="" font-familyName="Helvetica" font-pixelSize="20" font-bold="0" font-underline="0" font-alignment="1" strokeStyle="0" markerStart="0" markerEnd="0" shadowEnabled="0" shadowOffsetX="0" shadowOffsetY="2" shadowBlur="4" shadowOpacity="160" blurEnabled="0" blurRadius="4" transform="matrix(-0.71706,0.223991,0.211472,0.75951,15.8585,113.302)" pers-center="0,0" pers-size="0,0" pers-start="0,0" pers-end="0,0" locked="0" mesh="" flag=""/>
            <path id="shapePath12" d="M27.0686,112.434 C27.0686,112.434 9.14297,113.574 5.07947,114.1 C1.01597,114.627 27.0686,112.434 27.0686,112.434 Z" style="stroke:#588dff;stroke-opacity:1;stroke-width:1;stroke-linejoin:miter;stroke-miterlimit:2;stroke-linecap:round;fill-rule:evenodd;fill:#ff83ea;fill-opacity:1;"/>
        </g>
        <g id="Shape13">
            <desc type="0" basicInfo-basicType="0" basicInfo-roundedRectRadius="12" basicInfo-polygonSides="6" basicInfo-starPoints="5" bounding="rect(-14.6931,-3.18906,29.3863,6.37814)" text="" font-familyName="Helvetica" font-pixelSize="20" font-bold="0" font-underline="0" font-alignment="1" strokeStyle="0" markerStart="0" markerEnd="0" shadowEnabled="0" shadowOffsetX="0" shadowOffsetY="2" shadowBlur="4" shadowOpacity="160" blurEnabled="0" blurRadius="4" transform="matrix(-0.648812,0.393387,0.3714,0.687222,17.9689,116.731)" pers-center="0,0" pers-size="0,0" pers-start="0,0" pers-end="0,0" locked="0" mesh="" flag=""/>
            <path id="shapePath13" d="M28.6864,113.143 C28.6864,113.143 11.4944,118.638 7.65557,120.146 C3.81676,121.652 28.6864,113.143 28.6864,113.143 Z" style="stroke:#588dff;stroke-opacity:1;stroke-width:1;stroke-linejoin:miter;stroke-miterlimit:2;stroke-linecap:round;fill-rule:evenodd;fill:#ff83ea;fill-opacity:1;"/>
        </g>
        <g id="Shape14">
            <desc type="0" basicInfo-basicType="0" basicInfo-roundedRectRadius="12" basicInfo-polygonSides="6" basicInfo-starPoints="5" bounding="rect(-14.6928,-3.1898,29.3856,6.37959)" text="" font-familyName="Helvetica" font-pixelSize="20" font-bold="0" font-underline="0" font-alignment="1" strokeStyle="0" markerStart="0" markerEnd="0" shadowEnabled="0" shadowOffsetX="0" shadowOffsetY="2" shadowBlur="4" shadowOpacity="160" blurEnabled="0" blurRadius="4" transform="matrix(0.747593,0,0,0.791851,58.1217,103.785)" pers-center="0,0" pers-size="0,0" pers-start="0,0" pers-end="0,0" locked="0" mesh="" flag=""/>
            <path id="shapePath14" d="M47.1375,106.311 C47.1375,106.311 64.6356,102.034 68.6736,101.321 C72.7116,100.608 47.1375,106.311 47.1375,106.311 Z" style="stroke:#588dff;stroke-opacity:1;stroke-width:1;stroke-linejoin:miter;stroke-miterlimit:2;stroke-linecap:round;fill-rule:evenodd;fill:#ff83ea;fill-opacity:1;"/>
        </g>
        <g id="Shape15">
            <desc type="0" basicInfo-basicType="0" basicInfo-roundedRectRadius="12" basicInfo-polygonSides="6" basicInfo-starPoints="5" bounding="rect(-14.6927,-3.1899,29.3855,6.37981)" text="" font-familyName="Helvetica" font-pixelSize="20" font-bold="0" font-underline="0" font-alignment="1" strokeStyle="0" markerStart="0" markerEnd="0" shadowEnabled="0" shadowOffsetX="0" shadowOffsetY="2" shadowBlur="4" shadowOpacity="160" blurEnabled="0" blurRadius="4" transform="matrix(0.71706,0.223991,-0.211472,0.75951,57.4018,111.554)" pers-center="0,0" pers-size="0,0" pers-start="0,0" pers-end="0,0" locked="0" mesh="" flag=""/>
            <path id="shapePath15" d="M46.1917,110.686 C46.1917,110.686 64.1174,111.826 68.1808,112.352 C72.2442,112.879 46.1917,110.686 46.1917,110.686 Z" style="stroke:#588dff;stroke-opacity:1;stroke-width:1;stroke-linejoin:miter;stroke-miterlimit:2;stroke-linecap:round;fill-rule:evenodd;fill:#ff83ea;fill-opacity:1;"/>
        </g>
        <g id="Shape16">
            <desc type="0" basicInfo-basicType="0" basicInfo-roundedRectRadius="12" basicInfo-polygonSides="6" basicInfo-starPoints="5" bounding="rect(-14.6927,-3.1899,29.3855,6.37981)" text="" font-familyName="Helvetica" font-pixelSize="20" font-bold="0" font-underline="0" font-alignment="1" strokeStyle="0" markerStart="0" markerEnd="0" shadowEnabled="0" shadowOffsetX="0" shadowOffsetY="2" shadowBlur="4" shadowOpacity="160" blurEnabled="0" blurRadius="4" transform="matrix(0.71706,0.223991,-0.211472,0.75951,57.4018,111.554)" pers-center="0,0" pers-size="0,0" pers-start="0,0" pers-end="0,0" locked="0" mesh="" flag=""/>
            <path id="shapePath16" d="M46.1917,110.686 C46.1917,110.686 64.1174,111.826 68.1808,112.352 C72.2442,112.879 46.1917,110.686 46.1917,110.686 Z" style="stroke:#588dff;stroke-opacity:1;stroke-width:1;stroke-linejoin:miter;stroke-miterlimit:2;stroke-linecap:round;fill-rule:evenodd;fill:#ff83ea;fill-opacity:1;"/>
        </g>
        <g id="Shape17">
            <desc type="0" basicInfo-basicType="0" basicInfo-roundedRectRadius="12" basicInfo-polygonSides="6" basicInfo-starPoints="5" bounding="rect(-14.6929,-3.18951,29.3857,6.37903)" text="" font-familyName="Helvetica" font-pixelSize="20" font-bold="0" font-underline="0" font-alignment="1" strokeStyle="0" markerStart="0" markerEnd="0" shadowEnabled="0" shadowOffsetX="0" shadowOffsetY="2" shadowBlur="4" shadowOpacity="160" blurEnabled="0" blurRadius="4" transform="matrix(0.648812,0.393387,-0.3714,0.687222,55.2915,114.983)" pers-center="0,0" pers-size="0,0" pers-start="0,0" pers-end="0,0" locked="0" mesh="" flag=""/>
            <path id="shapePath17" d="M44.574,111.395 C44.574,111.395 61.766,116.89 65.6048,118.397 C69.4436,119.904 44.574,111.395 44.574,111.395 Z" style="stroke:#588dff;stroke-opacity:1;stroke-width:1;stroke-linejoin:miter;stroke-miterlimit:2;stroke-linecap:round;fill-rule:evenodd;fill:#ff83ea;fill-opacity:1;"/>
        </g>
        <g id="Shape18">
            <desc type="0" basicInfo-basicType="0" basicInfo-roundedRectRadius="12" basicInfo-polygonSides="6" basicInfo-starPoints="5" bounding="rect(-22.1705,-30.4978,44.3411,60.9957)" text="" font-familyName="Helvetica" font-pixelSize="20" font-bold="0" font-underline="0" font-alignment="1" strokeStyle="0" markerStart="0" markerEnd="0" shadowEnabled="0" shadowOffsetX="0" shadowOffsetY="2" shadowBlur="4" shadowOpacity="160" blurEnabled="0" blurRadius="4" transform="matrix(-0.0724858,-0.148625,0.0952324,-0.0498635,44.4482,94.5033)" pers-center="0,0" pers-size="0,0" pers-start="0,0" pers-end="0,0" locked="0" mesh="" flag=""/>
            <path id="shapePath18" d="M46.0551,97.7985 C44.4511,98.6385 42.3758,97.7295 41.4197,95.7695 C41.006,94.9215 43.7892,94.8965 43.9051,94.0775 C43.9999,93.4085 41.5104,92.5065 42.1909,91.6525 C42.9651,90.6815 46.2721,90.7675 47.2282,92.7275 C48.1843,94.6885 47.6591,96.9585 46.0551,97.7985 Z" style="stroke:none;fill-rule:evenodd;fill:#000080;fill-opacity:1;"/>
        </g>
    </g>
</svg>
