<?xml version="1.0"?>
<svg version="1.1" xmlns="http://www.w3.org/2000/svg" xmlns:xlink="http://www.w3.org/1999/xlink" width="100" height="110">
    <desc iVinci="yes" version="4.4" gridStep="20" showGrid="no" snapToGrid="no" codePlatform="0"/>
    <g id="Layer1">
        <g id="Shape1">
            <desc type="0" basicInfo-basicType="0" basicInfo-roundedRectRadius="12" basicInfo-polygonSides="6" basicInfo-starPoints="5" bounding="rect(-44.6769,-42.8608,89.3538,85.7217)" text="" font-familyName="Helvetica" font-pixelSize="20" font-bold="0" font-underline="0" font-alignment="1" strokeStyle="0" markerStart="0" markerEnd="0" shadowEnabled="0" shadowOffsetX="0" shadowOffsetY="2" shadowBlur="4" shadowOpacity="160" blurEnabled="0" blurRadius="4" transform="matrix(0.262893,-0.211467,0.177506,0.216866,79.9898,77.1327)" pers-center="0,0" pers-size="0,0" pers-start="0,0" pers-end="0,0" locked="0" mesh="" flag=""/>
            <path id="shapePath1" d="M68.0383,86.3284 C75.6553,83.2435 86.3453,79.9684 86.7753,74.2985 C87.2053,68.6285 77.0493,60.4444 74.2043,67.1065 C71.3583,73.7685 77.6263,85.6514 83.6733,84.5905 C89.7203,83.5294 98.9193,80.1235 98.0043,75.3445 " style="stroke:#ffa4e1;stroke-opacity:1;stroke-width:3;stroke-linejoin:miter;stroke-miterlimit:2;stroke-linecap:round;fill:none;"/>
        </g>
        <g id="Shape2">
            <desc type="0" basicInfo-basicType="0" basicInfo-roundedRectRadius="12" basicInfo-polygonSides="6" basicInfo-starPoints="5" bounding="rect(-38.2668,-43.3408,76.5335,86.6816)" text="" font-familyName="Helvetica" font-pixelSize="20" font-bold="0" font-underline="0" font-alignment="1" strokeStyle="0" markerStart="0" markerEnd="0" shadowEnabled="0" shadowOffsetX="0" shadowOffsetY="2" shadowBlur="4" shadowOpacity="160" blurEnabled="0" blurRadius="4" transform="matrix(0.747593,0,0,0.982199,39.4304,63.2798)" pers-center="0,0" pers-size="0,0" pers-start="0,0" pers-end="0,0" locked="0" mesh="" flag=""/>
            <path id="shapePath2" d="M13.6864,62.9365 C13.6864,42.2075 22.7404,20.7105 39.9594,20.7105 C57.1774,20.7105 68.0384,38.9125 68.0384,59.6415 C68.0384,80.3695 65.8674,110.569 57.3214,104.162 C39.6064,90.8815 37.5384,92.5805 16.4844,105.036 C5.6584,111.442 13.6864,78.3415 13.6864,62.9365 Z" style="stroke:#ffa4e1;stroke-opacity:1;stroke-width:2;stroke-linejoin:miter;stroke-miterlimit:2;stroke-linecap:round;fill-rule:evenodd;fill:#ffffff;fill-opacity:1;"/>
        </g>
        <g id="Shape3">
            <desc type="0" basicInfo-basicType="0" basicInfo-roundedRectRadius="12" basicInfo-polygonSides="6" basicInfo-starPoints="5" bounding="rect(-28.4602,-29.3952,56.9204,58.7902)" text="" font-familyName="Helvetica" font-pixelSize="20" font-bold="0" font-underline="0" font-alignment="1" strokeStyle="0" markerStart="0" markerEnd="0" shadowEnabled="0" shadowOffsetX="0" shadowOffsetY="2" shadowBlur="4" shadowOpacity="160" blurEnabled="0" blurRadius="4" transform="matrix(0.747593,0,0,0.694299,39.505,55.8655)" pers-center="0,0" pers-size="0,0" pers-start="0,0" pers-end="0,0" locked="0" mesh="" flag=""/>
            <path id="shapePath3" d="M18.7933,36.6855 C16.0463,46.1245 24.0964,52.6085 26.2103,58.6715 C30.3223,70.4665 33.0293,76.2745 38.6883,76.2745 C46.9704,76.2745 47.9324,68.0985 52.8553,55.8655 C54.7103,51.2555 62.1944,42.5995 60.5463,35.4565 " style="stroke:#ffa4e1;stroke-opacity:1;stroke-width:3;stroke-linejoin:miter;stroke-miterlimit:2;stroke-linecap:round;fill-rule:evenodd;fill:#ffffff;fill-opacity:1;"/>
        </g>
        <g id="Shape4">
            <desc type="0" basicInfo-basicType="4" basicInfo-roundedRectRadius="12" basicInfo-polygonSides="6" basicInfo-starPoints="5" bounding="rect(-23.8828,-30.497,47.7655,60.994)" text="" font-familyName="Helvetica" font-pixelSize="20" font-bold="0" font-underline="0" font-alignment="1" strokeStyle="0" markerStart="0" markerEnd="0" shadowEnabled="0" shadowOffsetX="0" shadowOffsetY="2" shadowBlur="4" shadowOpacity="160" blurEnabled="0" blurRadius="4" transform="matrix(0.421624,0.332579,-0.305077,0.433906,58.695,18.7634)" pers-center="0,0" pers-size="0,0" pers-start="0,0" pers-end="0,0" locked="0" mesh="" flag=""/>
            <path id="shapePath4" d="M48.6254,10.8206 C53.7634,3.51233 62.4373,1.14404 67.9994,5.53086 C73.5604,9.91766 73.9034,19.3984 68.7644,26.7065 C63.6264,34.0145 54.9524,36.3835 49.3914,31.9965 C43.8303,27.6094 43.4874,18.1288 48.6254,10.8206 Z" style="stroke:#ffa4e1;stroke-opacity:1;stroke-width:3;stroke-linejoin:miter;stroke-miterlimit:2;stroke-linecap:round;fill-rule:evenodd;fill:#fbb2ff;fill-opacity:1;"/>
        </g>
        <g id="Shape5">
            <desc type="0" basicInfo-basicType="4" basicInfo-roundedRectRadius="12" basicInfo-polygonSides="6" basicInfo-starPoints="5" bounding="rect(-23.8826,-30.4969,47.7651,60.9938)" text="" font-familyName="Helvetica" font-pixelSize="20" font-bold="0" font-underline="0" font-alignment="1" strokeStyle="0" markerStart="0" markerEnd="0" shadowEnabled="0" shadowOffsetX="0" shadowOffsetY="2" shadowBlur="4" shadowOpacity="160" blurEnabled="0" blurRadius="4" transform="matrix(0.412168,-0.459094,0.397533,0.400408,19.273,17.788)" pers-center="0,0" pers-size="0,0" pers-start="0,0" pers-end="0,0" locked="0" mesh="" flag=""/>
            <path id="shapePath5" d="M9.42936,28.7524 C2.7334,22.0084 1.71337,11.6325 7.14937,5.57695 C12.5864,-0.478666 22.4214,0.0795212 29.1164,6.82354 C35.8124,13.5676 36.8334,23.9434 31.3964,29.9994 C25.9604,36.0544 16.1244,35.4964 9.42936,28.7524 Z" style="stroke:#ffa4e1;stroke-opacity:1;stroke-width:3;stroke-linejoin:miter;stroke-miterlimit:2;stroke-linecap:round;fill-rule:evenodd;fill:#fbb2ff;fill-opacity:1;"/>
        </g>
        <g id="Shape6">
            <desc type="0" basicInfo-basicType="4" basicInfo-roundedRectRadius="12" basicInfo-polygonSides="6" basicInfo-starPoints="5" bounding="rect(-23.883,-30.4967,47.766,60.9934)" text="" font-familyName="Helvetica" font-pixelSize="20" font-bold="0" font-underline="0" font-alignment="1" strokeStyle="0" markerStart="0" markerEnd="0" shadowEnabled="0" shadowOffsetX="0" shadowOffsetY="2" shadowBlur="4" shadowOpacity="160" blurEnabled="0" blurRadius="4" transform="matrix(-0.0650513,-0.259059,0.162623,-0.0458137,30.0368,42.0053)" pers-center="0,0" pers-size="0,0" pers-start="0,0" pers-end="0,0" locked="0" mesh="" flag=""/>
            <path id="shapePath6" d="M31.5904,48.1925 C28.8514,48.9645 25.9354,46.8195 25.0774,43.4025 C24.2194,39.9855 25.7434,36.5905 28.4824,35.8185 C31.2224,35.0465 34.1384,37.1915 34.9964,40.6085 C35.8544,44.0255 34.3294,47.4215 31.5904,48.1925 Z" style="stroke:#ffa4e1;stroke-opacity:1;stroke-width:3;stroke-linejoin:miter;stroke-miterlimit:2;stroke-linecap:round;fill-rule:evenodd;fill:#ffffff;fill-opacity:1;"/>
        </g>
        <g id="Shape7">
            <desc type="0" basicInfo-basicType="4" basicInfo-roundedRectRadius="12" basicInfo-polygonSides="6" basicInfo-starPoints="5" bounding="rect(-23.8834,-30.4974,47.7667,60.9949)" text="" font-familyName="Helvetica" font-pixelSize="20" font-bold="0" font-underline="0" font-alignment="1" strokeStyle="0" markerStart="0" markerEnd="0" shadowEnabled="0" shadowOffsetX="0" shadowOffsetY="2" shadowBlur="4" shadowOpacity="160" blurEnabled="0" blurRadius="4" transform="matrix(0.167543,-0.200914,0.126123,0.117996,47.6779,42.0059)" pers-center="0,0" pers-size="0,0" pers-start="0,0" pers-end="0,0" locked="0" mesh="" flag=""/>
            <path id="shapePath7" d="M43.6764,46.8045 C41.5524,44.8165 41.6214,41.0575 43.8314,38.4075 C46.0414,35.7575 49.5554,35.2195 51.6794,37.2075 C53.8034,39.1945 53.7344,42.9545 51.5244,45.6045 C49.3144,48.2545 45.8004,48.7915 43.6764,46.8045 Z" style="stroke:#ffa4e1;stroke-opacity:1;stroke-width:3;stroke-linejoin:miter;stroke-miterlimit:2;stroke-linecap:round;fill-rule:evenodd;fill:#ffffff;fill-opacity:1;"/>
        </g>
        <g id="Shape8">
            <desc type="0" basicInfo-basicType="0" basicInfo-roundedRectRadius="12" basicInfo-polygonSides="6" basicInfo-starPoints="5" bounding="rect(-22.169,-30.4971,44.338,60.9944)" text="" font-familyName="Helvetica" font-pixelSize="20" font-bold="0" font-underline="0" font-alignment="1" strokeStyle="0" markerStart="0" markerEnd="0" shadowEnabled="0" shadowOffsetX="0" shadowOffsetY="2" shadowBlur="4" shadowOpacity="160" blurEnabled="0" blurRadius="4" transform="matrix(-0.0402724,-0.16038,0.103469,-0.0291491,31.6568,42.5342)" pers-center="0,0" pers-size="0,0" pers-start="0,0" pers-end="0,0" locked="0" mesh="" flag=""/>
            <path id="shapePath8" d="M32.5504,46.0895 C30.8074,46.5805 28.9643,45.2635 28.4323,43.1485 C28.2024,42.2335 30.9314,42.7825 31.2133,42.0054 C31.4444,41.3704 29.1943,39.9745 30.0363,39.2795 C30.9943,38.4885 34.2124,39.2544 34.7433,41.3704 C35.2744,43.4854 34.2923,45.5985 32.5504,46.0895 Z" style="stroke:none;fill-rule:evenodd;fill:#ff83ea;fill-opacity:1;"/>
        </g>
        <g id="Shape9">
            <desc type="0" basicInfo-basicType="0" basicInfo-roundedRectRadius="12" basicInfo-polygonSides="6" basicInfo-starPoints="5" bounding="rect(-14.6922,-3.18963,29.3844,6.37926)" text="" font-familyName="Helvetica" font-pixelSize="20" font-bold="0" font-underline="0" font-alignment="1" strokeStyle="0" markerStart="0" markerEnd="0" shadowEnabled="0" shadowOffsetX="0" shadowOffsetY="2" shadowBlur="4" shadowOpacity="160" blurEnabled="0" blurRadius="4" transform="matrix(-0.713302,0.237071,0.38621,1.30369,16.9345,55.1903)" pers-center="0,0" pers-size="0,0" pers-start="0,0" pers-end="0,0" locked="0" mesh="" flag=""/>
            <path id="shapePath9" d="M28.6464,55.8655 C28.6464,55.8655 9.86537,54.3725 5.6654,54.4795 C1.46437,54.5865 28.6464,55.8655 28.6464,55.8655 Z" style="stroke:#ffa4e1;stroke-opacity:1;stroke-width:1;stroke-linejoin:miter;stroke-miterlimit:2;stroke-linecap:round;fill-rule:evenodd;fill:#ff83ea;fill-opacity:1;"/>
        </g>
        <g id="Shape10">
            <desc type="0" basicInfo-basicType="0" basicInfo-roundedRectRadius="12" basicInfo-polygonSides="6" basicInfo-starPoints="5" bounding="rect(-14.6927,-3.19,29.3854,6.38002)" text="" font-familyName="Helvetica" font-pixelSize="20" font-bold="0" font-underline="0" font-alignment="1" strokeStyle="0" markerStart="0" markerEnd="0" shadowEnabled="0" shadowOffsetX="0" shadowOffsetY="2" shadowBlur="4" shadowOpacity="160" blurEnabled="0" blurRadius="4" transform="matrix(-0.71706,0.223991,0.211472,0.75951,17.8892,61.5477)" pers-center="0,0" pers-size="0,0" pers-start="0,0" pers-end="0,0" locked="0" mesh="" flag=""/>
            <path id="shapePath10" d="M29.0994,60.6795 C29.0994,60.6795 11.1734,61.8195 7.11035,62.3455 C3.04636,62.8715 29.0994,60.6795 29.0994,60.6795 Z" style="stroke:#ffa4e1;stroke-opacity:1;stroke-width:1;stroke-linejoin:miter;stroke-miterlimit:2;stroke-linecap:round;fill-rule:evenodd;fill:#ff83ea;fill-opacity:1;"/>
        </g>
        <g id="Shape11">
            <desc type="0" basicInfo-basicType="0" basicInfo-roundedRectRadius="12" basicInfo-polygonSides="6" basicInfo-starPoints="5" bounding="rect(-14.6924,-3.18935,29.3847,6.37872)" text="" font-familyName="Helvetica" font-pixelSize="20" font-bold="0" font-underline="0" font-alignment="1" strokeStyle="0" markerStart="0" markerEnd="0" shadowEnabled="0" shadowOffsetX="0" shadowOffsetY="2" shadowBlur="4" shadowOpacity="160" blurEnabled="0" blurRadius="4" transform="matrix(-0.648812,0.393387,0.3714,0.687222,19.9993,64.9774)" pers-center="0,0" pers-size="0,0" pers-start="0,0" pers-end="0,0" locked="0" mesh="" flag=""/>
            <path id="shapePath11" d="M30.7164,61.3894 C30.7164,61.3894 13.5243,66.8844 9.68638,68.3914 C5.84735,69.8974 30.7164,61.3894 30.7164,61.3894 Z" style="stroke:#ffa4e1;stroke-opacity:1;stroke-width:1;stroke-linejoin:miter;stroke-miterlimit:2;stroke-linecap:round;fill-rule:evenodd;fill:#ff83ea;fill-opacity:1;"/>
        </g>
        <g id="Shape12">
            <desc type="0" basicInfo-basicType="0" basicInfo-roundedRectRadius="12" basicInfo-polygonSides="6" basicInfo-starPoints="5" bounding="rect(-14.6927,-3.18979,29.3855,6.37959)" text="" font-familyName="Helvetica" font-pixelSize="20" font-bold="0" font-underline="0" font-alignment="1" strokeStyle="0" markerStart="0" markerEnd="0" shadowEnabled="0" shadowOffsetX="0" shadowOffsetY="2" shadowBlur="4" shadowOpacity="160" blurEnabled="0" blurRadius="4" transform="matrix(0.747593,0,0,0.791851,60.1526,52.0306)" pers-center="0,0" pers-size="0,0" pers-start="0,0" pers-end="0,0" locked="0" mesh="" flag=""/>
            <path id="shapePath12" d="M49.1684,54.5565 C49.1684,54.5565 66.6664,50.2795 70.7044,49.5665 C74.7424,48.8535 49.1684,54.5565 49.1684,54.5565 Z" style="stroke:#ffa4e1;stroke-opacity:1;stroke-width:1;stroke-linejoin:miter;stroke-miterlimit:2;stroke-linecap:round;fill-rule:evenodd;fill:#ff83ea;fill-opacity:1;"/>
        </g>
        <g id="Shape13">
            <desc type="0" basicInfo-basicType="0" basicInfo-roundedRectRadius="12" basicInfo-polygonSides="6" basicInfo-starPoints="5" bounding="rect(-14.6926,-3.18997,29.3852,6.37994)" text="" font-familyName="Helvetica" font-pixelSize="20" font-bold="0" font-underline="0" font-alignment="1" strokeStyle="0" markerStart="0" markerEnd="0" shadowEnabled="0" shadowOffsetX="0" shadowOffsetY="2" shadowBlur="4" shadowOpacity="160" blurEnabled="0" blurRadius="4" transform="matrix(0.71706,0.223991,-0.211472,0.75951,59.4324,59.7996)" pers-center="0,0" pers-size="0,0" pers-start="0,0" pers-end="0,0" locked="0" mesh="" flag=""/>
            <path id="shapePath13" d="M48.2223,58.9315 C48.2223,58.9315 66.1474,60.0715 70.2113,60.5975 C74.2743,61.1234 48.2223,58.9315 48.2223,58.9315 Z" style="stroke:#ffa4e1;stroke-opacity:1;stroke-width:1;stroke-linejoin:miter;stroke-miterlimit:2;stroke-linecap:round;fill-rule:evenodd;fill:#ff83ea;fill-opacity:1;"/>
        </g>
        <g id="Shape14">
            <desc type="0" basicInfo-basicType="0" basicInfo-roundedRectRadius="12" basicInfo-polygonSides="6" basicInfo-starPoints="5" bounding="rect(-14.6926,-3.18997,29.3852,6.37994)" text="" font-familyName="Helvetica" font-pixelSize="20" font-bold="0" font-underline="0" font-alignment="1" strokeStyle="0" markerStart="0" markerEnd="0" shadowEnabled="0" shadowOffsetX="0" shadowOffsetY="2" shadowBlur="4" shadowOpacity="160" blurEnabled="0" blurRadius="4" transform="matrix(0.71706,0.223991,-0.211472,0.75951,59.4324,59.7996)" pers-center="0,0" pers-size="0,0" pers-start="0,0" pers-end="0,0" locked="0" mesh="" flag=""/>
            <path id="shapePath14" d="M48.2223,58.9315 C48.2223,58.9315 66.1474,60.0715 70.2113,60.5975 C74.2743,61.1234 48.2223,58.9315 48.2223,58.9315 Z" style="stroke:#ffa4e1;stroke-opacity:1;stroke-width:1;stroke-linejoin:miter;stroke-miterlimit:2;stroke-linecap:round;fill-rule:evenodd;fill:#ff83ea;fill-opacity:1;"/>
        </g>
        <g id="Shape15">
            <desc type="0" basicInfo-basicType="0" basicInfo-roundedRectRadius="12" basicInfo-polygonSides="6" basicInfo-starPoints="5" bounding="rect(-14.6929,-3.18967,29.3858,6.37935)" text="" font-familyName="Helvetica" font-pixelSize="20" font-bold="0" font-underline="0" font-alignment="1" strokeStyle="0" markerStart="0" markerEnd="0" shadowEnabled="0" shadowOffsetX="0" shadowOffsetY="2" shadowBlur="4" shadowOpacity="160" blurEnabled="0" blurRadius="4" transform="matrix(0.648812,0.393387,-0.3714,0.687222,57.3219,63.2295)" pers-center="0,0" pers-size="0,0" pers-start="0,0" pers-end="0,0" locked="0" mesh="" flag=""/>
            <path id="shapePath15" d="M46.6043,59.6415 C46.6043,59.6415 63.7963,65.1365 67.6353,66.6435 C71.4743,68.1495 46.6043,59.6415 46.6043,59.6415 Z" style="stroke:#ffa4e1;stroke-opacity:1;stroke-width:1;stroke-linejoin:miter;stroke-miterlimit:2;stroke-linecap:round;fill-rule:evenodd;fill:#ff83ea;fill-opacity:1;"/>
        </g>
        <g id="Shape16">
            <desc type="0" basicInfo-basicType="0" basicInfo-roundedRectRadius="12" basicInfo-polygonSides="6" basicInfo-starPoints="5" bounding="rect(-22.1711,-30.4957,44.3421,60.9915)" text="" font-familyName="Helvetica" font-pixelSize="20" font-bold="0" font-underline="0" font-alignment="1" strokeStyle="0" markerStart="0" markerEnd="0" shadowEnabled="0" shadowOffsetX="0" shadowOffsetY="2" shadowBlur="4" shadowOpacity="160" blurEnabled="0" blurRadius="4" transform="matrix(-0.0724858,-0.148625,0.0952324,-0.0498635,46.4785,42.7491)" pers-center="0,0" pers-size="0,0" pers-start="0,0" pers-end="0,0" locked="0" mesh="" flag=""/>
            <path id="shapePath16" d="M48.0853,46.0445 C46.4814,46.8835 44.4064,45.9755 43.4504,44.0155 C43.0363,43.1665 45.8194,43.1415 45.9354,42.3235 C46.0304,41.6545 43.5404,40.7525 44.2214,39.8985 C44.9953,38.9265 48.3023,39.0135 49.2583,40.9735 C50.2144,42.9345 49.6894,45.2044 48.0853,46.0445 Z" style="stroke:none;fill-rule:evenodd;fill:#ff83ea;fill-opacity:1;"/>
        </g>
        <g id="Shape17">
            <desc type="0" basicInfo-basicType="4" basicInfo-roundedRectRadius="12" basicInfo-polygonSides="6" basicInfo-starPoints="5" bounding="rect(-11.3899,-12.4929,22.7798,24.9858)" text="" font-familyName="Helvetica" font-pixelSize="20" font-bold="0" font-underline="0" font-alignment="1" strokeStyle="0" markerStart="0" markerEnd="0" shadowEnabled="0" shadowOffsetX="0" shadowOffsetY="2" shadowBlur="4" shadowOpacity="160" blurEnabled="0" blurRadius="4" transform="matrix(0.747593,0,0,0.791851,22.2014,75.734)" pers-center="0,0" pers-size="0,0" pers-start="0,0" pers-end="0,0" locked="0" mesh="" flag=""/>
            <path id="shapePath17" d="M13.6864,75.7345 C13.6864,70.2705 17.4984,65.8415 22.2014,65.8415 C26.9044,65.8415 30.7164,70.2705 30.7164,75.7345 C30.7164,81.1975 26.9044,85.6265 22.2014,85.6265 C17.4984,85.6265 13.6864,81.1975 13.6864,75.7345 Z" style="stroke:#ffa4e1;stroke-opacity:1;stroke-width:3;stroke-linejoin:miter;stroke-miterlimit:2;stroke-linecap:round;fill-rule:evenodd;fill:#ffffff;fill-opacity:1;"/>
        </g>
        <g id="Shape18">
            <desc type="0" basicInfo-basicType="4" basicInfo-roundedRectRadius="12" basicInfo-polygonSides="6" basicInfo-starPoints="5" bounding="rect(-11.3899,-12.4929,22.7798,24.9858)" text="" font-familyName="Helvetica" font-pixelSize="20" font-bold="0" font-underline="0" font-alignment="1" strokeStyle="0" markerStart="0" markerEnd="0" shadowEnabled="0" shadowOffsetX="0" shadowOffsetY="2" shadowBlur="4" shadowOpacity="160" blurEnabled="0" blurRadius="4" transform="matrix(0.747593,0,0,0.791851,56.1933,74.872)" pers-center="0,0" pers-size="0,0" pers-start="0,0" pers-end="0,0" locked="0" mesh="" flag=""/>
            <path id="shapePath18" d="M47.6783,74.8715 C47.6783,69.4085 51.4903,64.9795 56.1933,64.9795 C60.8963,64.9795 64.7083,69.4085 64.7083,74.8715 C64.7083,80.3355 60.8963,84.7645 56.1933,84.7645 C51.4903,84.7645 47.6783,80.3355 47.6783,74.8715 Z" style="stroke:#ffa4e1;stroke-opacity:1;stroke-width:3;stroke-linejoin:miter;stroke-miterlimit:2;stroke-linecap:round;fill-rule:evenodd;fill:#ffffff;fill-opacity:1;"/>
        </g>
        <g id="Shape19">
            <desc type="0" basicInfo-basicType="4" basicInfo-roundedRectRadius="12" basicInfo-polygonSides="6" basicInfo-starPoints="5" bounding="rect(-11.3885,-12.4926,22.7771,24.9851)" text="" font-familyName="Helvetica" font-pixelSize="20" font-bold="0" font-underline="0" font-alignment="1" strokeStyle="0" markerStart="0" markerEnd="0" shadowEnabled="0" shadowOffsetX="0" shadowOffsetY="2" shadowBlur="4" shadowOpacity="160" blurEnabled="0" blurRadius="4" transform="matrix(0.153136,0,0,0.236941,60.4394,81.8045)" pers-center="0,0" pers-size="0,0" pers-start="0,0" pers-end="0,0" locked="0" mesh="" flag=""/>
            <path id="shapePath19" d="M58.6954,81.8045 C58.6954,80.1695 59.4764,78.8445 60.4394,78.8445 C61.4024,78.8445 62.1834,80.1695 62.1834,81.8045 C62.1834,83.4385 61.4024,84.7645 60.4394,84.7645 C59.4764,84.7645 58.6954,83.4385 58.6954,81.8045 Z" style="stroke:#ffa4e1;stroke-opacity:1;stroke-width:1.5;stroke-linejoin:miter;stroke-miterlimit:2;stroke-linecap:round;fill-rule:evenodd;fill:#ffffff;fill-opacity:1;"/>
        </g>
        <g id="Shape20">
            <desc type="0" basicInfo-basicType="4" basicInfo-roundedRectRadius="12" basicInfo-polygonSides="6" basicInfo-starPoints="5" bounding="rect(-11.3884,-12.4926,22.7769,24.9852)" text="" font-familyName="Helvetica" font-pixelSize="20" font-bold="0" font-underline="0" font-alignment="1" strokeStyle="0" markerStart="0" markerEnd="0" shadowEnabled="0" shadowOffsetX="0" shadowOffsetY="2" shadowBlur="4" shadowOpacity="160" blurEnabled="0" blurRadius="4" transform="matrix(0.153136,0,0,0.236941,56.1934,80.6175)" pers-center="0,0" pers-size="0,0" pers-start="0,0" pers-end="0,0" locked="0" mesh="" flag=""/>
            <path id="shapePath20" d="M54.4494,80.6175 C54.4494,78.9825 55.2304,77.6575 56.1934,77.6575 C57.1564,77.6575 57.9374,78.9825 57.9374,80.6175 C57.9374,82.2525 57.1564,83.5775 56.1934,83.5775 C55.2304,83.5775 54.4494,82.2525 54.4494,80.6175 Z" style="stroke:#ffa4e1;stroke-opacity:1;stroke-width:1.5;stroke-linejoin:miter;stroke-miterlimit:2;stroke-linecap:round;fill-rule:evenodd;fill:#ffffff;fill-opacity:1;"/>
        </g>
        <g id="Shape21">
            <desc type="0" basicInfo-basicType="4" basicInfo-roundedRectRadius="12" basicInfo-polygonSides="6" basicInfo-starPoints="5" bounding="rect(-11.3885,-12.4926,22.7771,24.9852)" text="" font-familyName="Helvetica" font-pixelSize="20" font-bold="0" font-underline="0" font-alignment="1" strokeStyle="0" markerStart="0" markerEnd="0" shadowEnabled="0" shadowOffsetX="0" shadowOffsetY="2" shadowBlur="4" shadowOpacity="160" blurEnabled="0" blurRadius="4" transform="matrix(0.153136,0,0,0.236941,51.4804,80.6175)" pers-center="0,0" pers-size="0,0" pers-start="0,0" pers-end="0,0" locked="0" mesh="" flag=""/>
            <path id="shapePath21" d="M49.7364,80.6175 C49.7364,78.9825 50.5173,77.6575 51.4804,77.6575 C52.4434,77.6575 53.2244,78.9825 53.2244,80.6175 C53.2244,82.2525 52.4434,83.5775 51.4804,83.5775 C50.5173,83.5775 49.7364,82.2525 49.7364,80.6175 Z" style="stroke:#ffa4e1;stroke-opacity:1;stroke-width:1.5;stroke-linejoin:miter;stroke-miterlimit:2;stroke-linecap:round;fill-rule:evenodd;fill:#ffffff;fill-opacity:1;"/>
        </g>
        <g id="Shape22">
            <desc type="0" basicInfo-basicType="0" basicInfo-roundedRectRadius="12" basicInfo-polygonSides="6" basicInfo-starPoints="5" bounding="rect(-11.3918,-12.4926,22.7837,24.9851)" text="" font-familyName="Helvetica" font-pixelSize="20" font-bold="0" font-underline="0" font-alignment="1" strokeStyle="0" markerStart="0" markerEnd="0" shadowEnabled="0" shadowOffsetX="0" shadowOffsetY="2" shadowBlur="4" shadowOpacity="160" blurEnabled="0" blurRadius="4" transform="matrix(0.153136,0,0,0.236941,24.8379,82.6665)" pers-center="0,0" pers-size="0,0" pers-start="0,0" pers-end="0,0" locked="0" mesh="" flag=""/>
            <path id="shapePath22" d="M23.0934,82.6665 C23.0934,81.0315 23.8744,79.7065 24.8383,79.7065 C25.8013,79.7065 26.5824,81.0315 26.5824,82.6665 C26.5824,84.3015 25.8013,85.6265 24.8383,85.6265 C23.8744,85.6265 23.0934,84.3015 23.0934,82.6665 Z" style="stroke:#ffa4e1;stroke-opacity:1;stroke-width:1.5;stroke-linejoin:miter;stroke-miterlimit:2;stroke-linecap:round;fill-rule:evenodd;fill:#ffffff;fill-opacity:1;"/>
        </g>
        <g id="Shape23">
            <desc type="0" basicInfo-basicType="4" basicInfo-roundedRectRadius="12" basicInfo-polygonSides="6" basicInfo-starPoints="5" bounding="rect(-11.3885,-12.4926,22.7771,24.9851)" text="" font-familyName="Helvetica" font-pixelSize="20" font-bold="0" font-underline="0" font-alignment="1" strokeStyle="0" markerStart="0" markerEnd="0" shadowEnabled="0" shadowOffsetX="0" shadowOffsetY="2" shadowBlur="4" shadowOpacity="160" blurEnabled="0" blurRadius="4" transform="matrix(0.153136,0,0,0.236941,20.4573,82.6665)" pers-center="0,0" pers-size="0,0" pers-start="0,0" pers-end="0,0" locked="0" mesh="" flag=""/>
            <path id="shapePath23" d="M18.7133,82.6665 C18.7133,81.0315 19.4933,79.7065 20.4574,79.7065 C21.4203,79.7065 22.2013,81.0315 22.2013,82.6665 C22.2013,84.3015 21.4203,85.6265 20.4574,85.6265 C19.4933,85.6265 18.7133,84.3015 18.7133,82.6665 Z" style="stroke:#ffa4e1;stroke-opacity:1;stroke-width:1.5;stroke-linejoin:miter;stroke-miterlimit:2;stroke-linecap:round;fill-rule:evenodd;fill:#ffffff;fill-opacity:1;"/>
        </g>
        <g id="Shape24">
            <desc type="0" basicInfo-basicType="4" basicInfo-roundedRectRadius="12" basicInfo-polygonSides="6" basicInfo-starPoints="5" bounding="rect(-11.3887,-12.4926,22.7773,24.9851)" text="" font-familyName="Helvetica" font-pixelSize="20" font-bold="0" font-underline="0" font-alignment="1" strokeStyle="0" markerStart="0" markerEnd="0" shadowEnabled="0" shadowOffsetX="0" shadowOffsetY="2" shadowBlur="4" shadowOpacity="160" blurEnabled="0" blurRadius="4" transform="matrix(0.153136,0,0,0.236941,16.4843,82.6665)" pers-center="0,0" pers-size="0,0" pers-start="0,0" pers-end="0,0" locked="0" mesh="" flag=""/>
            <path id="shapePath24" d="M14.7403,82.6665 C14.7403,81.0315 15.5213,79.7065 16.4843,79.7065 C17.4473,79.7065 18.2284,81.0315 18.2284,82.6665 C18.2284,84.3015 17.4473,85.6265 16.4843,85.6265 C15.5213,85.6265 14.7403,84.3015 14.7403,82.6665 Z" style="stroke:#ffa4e1;stroke-opacity:1;stroke-width:1.5;stroke-linejoin:miter;stroke-miterlimit:2;stroke-linecap:round;fill-rule:evenodd;fill:#ffffff;fill-opacity:1;"/>
        </g>
        <g id="Shape25">
            <desc type="0" basicInfo-basicType="4" basicInfo-roundedRectRadius="12" basicInfo-polygonSides="6" basicInfo-starPoints="5" bounding="rect(-11.3903,-12.4923,22.7806,24.9846)" text="" font-familyName="Helvetica" font-pixelSize="20" font-bold="0" font-underline="0" font-alignment="1" strokeStyle="0" markerStart="0" markerEnd="0" shadowEnabled="0" shadowOffsetX="0" shadowOffsetY="2" shadowBlur="4" shadowOpacity="160" blurEnabled="0" blurRadius="4" transform="matrix(0.614866,0,0,0.506952,13.6828,102.29)" pers-center="0,0" pers-size="0,0" pers-start="0,0" pers-end="0,0" locked="0" mesh="" flag=""/>
            <path id="shapePath25" d="M6.67932,102.29 C6.67932,98.7925 9.81532,95.9575 13.6833,95.9575 C17.5513,95.9575 20.6863,98.7925 20.6863,102.29 C20.6863,105.788 17.5513,108.623 13.6833,108.623 C9.81532,108.623 6.67932,105.788 6.67932,102.29 Z" style="stroke:#ffa4e1;stroke-opacity:1;stroke-width:3;stroke-linejoin:miter;stroke-miterlimit:2;stroke-linecap:round;fill-rule:evenodd;fill:#ffffff;fill-opacity:1;"/>
        </g>
        <g id="Shape26">
            <desc type="0" basicInfo-basicType="4" basicInfo-roundedRectRadius="12" basicInfo-polygonSides="6" basicInfo-starPoints="5" bounding="rect(-11.3903,-12.4923,22.7805,24.9846)" text="" font-familyName="Helvetica" font-pixelSize="20" font-bold="0" font-underline="0" font-alignment="1" strokeStyle="0" markerStart="0" markerEnd="0" shadowEnabled="0" shadowOffsetX="0" shadowOffsetY="2" shadowBlur="4" shadowOpacity="160" blurEnabled="0" blurRadius="4" transform="matrix(0.614866,0,0,0.506952,62.1839,102.29)" pers-center="0,0" pers-size="0,0" pers-start="0,0" pers-end="0,0" locked="0" mesh="" flag=""/>
            <path id="shapePath26" d="M55.1804,102.29 C55.1804,98.7925 58.3154,95.9575 62.1833,95.9575 C66.0514,95.9575 69.1873,98.7925 69.1873,102.29 C69.1873,105.788 66.0514,108.623 62.1833,108.623 C58.3154,108.623 55.1804,105.788 55.1804,102.29 Z" style="stroke:#ffa4e1;stroke-opacity:1;stroke-width:3;stroke-linejoin:miter;stroke-miterlimit:2;stroke-linecap:round;fill-rule:evenodd;fill:#ffffff;fill-opacity:1;"/>
        </g>
    </g>
</svg>
