<?xml version="1.0"?>
<svg version="1.1" xmlns="http://www.w3.org/2000/svg" xmlns:xlink="http://www.w3.org/1999/xlink" width="98" height="129">
    <desc iVinci="yes" version="4.4" gridStep="20" showGrid="no" snapToGrid="no" codePlatform="0"/>
    <g id="Layer1">
        <g id="Shape1">
            <desc type="0" basicInfo-basicType="1" basicInfo-roundedRectRadius="12" basicInfo-polygonSides="6" basicInfo-starPoints="5" bounding="rect(-49.5809,-70.2878,99.1617,140.576)" text="" font-familyName="Silom" font-pixelSize="34" font-bold="0" font-underline="0" font-alignment="1" strokeStyle="0" markerStart="0" markerEnd="0" shadowEnabled="0" shadowOffsetX="0" shadowOffsetY="2" shadowBlur="4" shadowOpacity="160" blurEnabled="0" blurRadius="4" transform="matrix(0.988285,0,0,0.927053,49,65.1615)" pers-center="0,0" pers-size="0,0" pers-start="0,0" pers-end="0,0" locked="0" mesh="" flag=""/>
            <path id="shapePath1" d="M-7.62939e-06,0.000907898 L98,0.000907898 L98,130.322 L-7.62939e-06,130.322 L-7.62939e-06,0.000907898 Z" style="stroke:none;fill-rule:evenodd;fill:#2c023a;fill-opacity:1;"/>
        </g>
        <g id="Shape2">
            <desc type="2" basicInfo-basicType="0" basicInfo-roundedRectRadius="12" basicInfo-polygonSides="6" basicInfo-starPoints="5" bounding="rect(-26.5,-33,53,66)" text="7" font-familyName="Snell Roundhand" font-pixelSize="130" font-bold="1" font-underline="0" font-alignment="1" strokeStyle="0" markerStart="0" markerEnd="0" shadowEnabled="0" shadowOffsetX="0" shadowOffsetY="2" shadowBlur="4" shadowOpacity="160" blurEnabled="0" blurRadius="4" transform="matrix(1,0,0,1,37.7418,38.3781)" pers-center="0,0" pers-size="0,0" pers-start="0,0" pers-end="0,0" locked="0" mesh="" flag=""/>
            <path id="shapePath2" d="M34.1812,4.07497 L28.7212,14.345 L29.2412,14.475 C30.4545,13.435 31.6245,12.5033 32.7512,11.68 C33.8778,10.8566 35.0912,10.185 36.3912,9.66497 C38.7312,8.53831 41.5045,7.97497 44.7112,7.97497 C46.6178,7.97497 48.5245,8.25664 50.4312,8.81997 C52.3378,9.38331 54.2445,10.0116 56.1512,10.705 C58.0578,11.3983 59.9428,12.0266 61.8062,12.59 C63.6695,13.1533 65.5112,13.435 67.3312,13.435 C69.7578,13.435 72.0112,12.915 74.0912,11.875 C76.1712,10.835 78.0779,9.53497 79.8112,7.97497 L80.7212,8.62497 C70.0612,22.4916 59.5962,36.38 49.3262,50.29 C39.0562,64.2 29.1545,78.4783 19.6212,93.125 L3.24118,94.295 L74.6112,14.475 L74.0912,14.215 C71.1445,16.2083 68.4362,17.8333 65.9662,19.09 C63.4962,20.3466 60.4412,20.975 56.8012,20.975 C54.8078,20.975 52.7495,20.6933 50.6262,20.13 C48.5028,19.5666 46.4012,18.9383 44.3212,18.245 C42.2412,17.5516 40.2912,16.9233 38.4712,16.36 C36.6512,15.7966 35.0045,15.515 33.5312,15.515 C30.5845,15.515 28.4828,16.1433 27.2262,17.4 C25.9695,18.6566 25.0162,20.0433 24.3662,21.56 C23.7162,23.0766 23.1528,24.4633 22.6762,25.72 C22.1995,26.9766 21.2678,27.605 19.8812,27.605 C19.4478,27.605 19.0145,27.4316 18.5812,27.085 C18.1478,26.7383 17.9312,26.305 17.9312,25.785 C17.9312,24.485 18.7762,23.1633 20.4662,21.82 C22.1562,20.4766 23.8678,19.025 25.6012,17.465 C26.0345,17.1183 26.5545,16.4033 27.1612,15.32 C27.7678,14.2366 28.4395,13.0016 29.1762,11.615 C29.9128,10.2283 30.6278,8.81997 31.3212,7.38997 C32.0145,5.95997 32.6645,4.72497 33.2712,3.68497 L34.1812,4.07497 Z" style="stroke:none;fill-rule:nonzero;fill:#fff5df;fill-opacity:1;"/>
        </g>
        <g id="Shape3">
            <desc type="2" basicInfo-basicType="0" basicInfo-roundedRectRadius="12" basicInfo-polygonSides="6" basicInfo-starPoints="5" bounding="rect(-24.5,-16.5,49,33)" text="th" font-familyName="Snell Roundhand" font-pixelSize="70" font-bold="0" font-underline="0" font-alignment="1" strokeStyle="0" markerStart="0" markerEnd="0" shadowEnabled="0" shadowOffsetX="0" shadowOffsetY="2" shadowBlur="4" shadowOpacity="160" blurEnabled="0" blurRadius="4" transform="matrix(1,0,0,1,60.2728,71.9831)" pers-center="0,0" pers-size="0,0" pers-start="0,0" pers-end="0,0" locked="0" mesh="" flag=""/>
            <path id="shapePath3" d="M55.7272,60.8612 L50.1972,68.9812 L59.4372,68.9812 L59.0172,69.8212 L49.6372,69.8212 C47.7705,72.8546 46.1022,75.4796 44.6322,77.6962 C43.1622,79.9129 41.9255,81.8262 40.9222,83.4362 C39.9189,85.0462 39.1605,86.3996 38.6472,87.4962 C38.1339,88.5929 37.8772,89.5612 37.8772,90.4012 C37.8772,91.2879 38.1805,91.9062 38.7872,92.2562 C39.3939,92.6062 40.0939,92.7812 40.8872,92.7812 C42.5672,92.7812 44.4222,92.1395 46.4522,90.8562 C48.4822,89.5729 50.5005,87.9979 52.5072,86.1312 C54.5139,84.2645 56.4272,82.2812 58.2472,80.1812 C60.0672,78.0812 61.6072,76.1912 62.8672,74.5112 L63.2872,74.7912 C61.7005,76.7979 59.9622,78.9096 58.0722,81.1262 C56.1822,83.3429 54.2339,85.3729 52.2272,87.2162 C50.2205,89.0596 48.2022,90.5879 46.1722,91.8012 C44.1422,93.0145 42.2172,93.6212 40.3972,93.6212 C38.9505,93.6212 37.7022,93.1779 36.6522,92.2912 C35.6022,91.4046 35.0772,90.1679 35.0772,88.5812 C35.0772,87.5079 35.3805,86.3062 35.9872,84.9762 C36.5939,83.6462 37.3872,82.2112 38.3672,80.6712 C39.3472,79.1312 40.4555,77.4512 41.6922,75.6312 C42.9289,73.8112 44.2005,71.8745 45.5072,69.8212 L41.7272,69.8212 L42.1472,68.9812 L46.0672,68.9812 L51.5272,60.8612 L55.7272,60.8612 M86.2403,44.6212 L61.4603,81.4412 L61.6003,81.5812 C62.5336,80.4146 63.6303,79.0729 64.8903,77.5562 C66.1503,76.0396 67.5153,74.6046 68.9853,73.2512 C70.4553,71.8979 72.007,70.7546 73.6403,69.8212 C75.2736,68.8879 76.907,68.4212 78.5403,68.4212 C81.387,68.4212 82.8103,69.8446 82.8103,72.6912 C82.8103,73.4379 82.542,74.3246 82.0053,75.3512 C81.4686,76.3779 80.792,77.4629 79.9753,78.6062 C79.1586,79.7495 78.2836,80.9045 77.3503,82.0712 C76.417,83.2379 75.542,84.3696 74.7253,85.4662 C73.9086,86.5629 73.232,87.5896 72.6953,88.5462 C72.1586,89.5029 71.8903,90.3079 71.8903,90.9612 C71.8903,91.4745 72.042,91.9062 72.3453,92.2562 C72.6486,92.6062 73.057,92.7812 73.5703,92.7812 C74.6436,92.7812 75.822,92.4429 77.1053,91.7662 C78.3886,91.0896 79.7186,90.2029 81.0953,89.1062 C82.472,88.0096 83.837,86.7846 85.1903,85.4312 C86.5436,84.0779 87.792,82.7362 88.9353,81.4062 C90.0786,80.0762 91.1053,78.8162 92.0153,77.6262 C92.9253,76.4362 93.5903,75.4679 94.0103,74.7212 L94.4303,74.8612 C93.917,75.7479 93.1936,76.8212 92.2603,78.0812 C91.327,79.3412 90.2653,80.6712 89.0753,82.0712 C87.8853,83.4712 86.602,84.8596 85.2253,86.2362 C83.8486,87.6129 82.472,88.8495 81.0953,89.9462 C79.7186,91.0429 78.3536,91.9296 77.0003,92.6062 C75.647,93.2829 74.387,93.6212 73.2203,93.6212 C72.007,93.6212 71.0153,93.2479 70.2453,92.5012 C69.4753,91.7545 69.0903,90.7279 69.0903,89.4212 C69.0903,88.4879 69.3586,87.4612 69.8953,86.3412 C70.432,85.2212 71.1086,84.0896 71.9253,82.9462 C72.742,81.8029 73.617,80.6596 74.5503,79.5162 C75.4836,78.3729 76.3586,77.2879 77.1753,76.2612 C77.992,75.2346 78.6686,74.2896 79.2053,73.4262 C79.742,72.5629 80.0103,71.8279 80.0103,71.2212 C80.0103,70.4745 79.8003,69.9612 79.3803,69.6812 C78.9603,69.4012 78.447,69.2612 77.8403,69.2612 C76.6736,69.2612 75.3786,69.6929 73.9553,70.5562 C72.532,71.4195 71.062,72.5512 69.5453,73.9512 C68.0286,75.3512 66.5236,76.9262 65.0303,78.6762 C63.537,80.4262 62.1253,82.1879 60.7953,83.9612 C59.4653,85.7346 58.2986,87.4146 57.2953,89.0012 C56.292,90.5879 55.5103,91.9412 54.9503,93.0612 L50.4003,93.0612 C52.967,89.0479 55.6036,84.9646 58.3103,80.8112 C61.017,76.6579 63.712,72.5279 66.3953,68.4212 C69.0786,64.3146 71.7036,60.2662 74.2703,56.2762 C76.837,52.2862 79.2636,48.4712 81.5503,44.8312 L86.2403,44.6212 " style="stroke:none;fill-rule:nonzero;fill:#fff5df;fill-opacity:1;"/>
        </g>
        <g id="Shape4">
            <desc type="2" basicInfo-basicType="0" basicInfo-roundedRectRadius="12" basicInfo-polygonSides="6" basicInfo-starPoints="5" bounding="rect(-41.8834,-15.4244,83.7668,30.8488)" text="CODE" font-familyName="Silom" font-pixelSize="35" font-bold="0" font-underline="0" font-alignment="1" strokeStyle="0" markerStart="0" markerEnd="0" shadowEnabled="0" shadowOffsetX="0" shadowOffsetY="2" shadowBlur="4" shadowOpacity="160" blurEnabled="0" blurRadius="4" transform="matrix(1,0,0,1,48.1398,115.797)" pers-center="0,0" pers-size="0,0" pers-start="0,0" pers-end="0,0" locked="0" mesh="" flag=""/>
            <path id="shapePath4" d="M23.3417,121.093 C23.1083,124.989 21.1717,126.938 17.5317,126.938 L11.6867,126.938 C10.1,126.938 8.72918,126.366 7.57418,125.223 C6.41917,124.079 5.84167,122.703 5.84167,121.093 L5.84167,106.533 C5.84167,104.946 6.40751,103.575 7.53918,102.42 C8.67084,101.265 10.0533,100.688 11.6867,100.688 L17.5317,100.688 C21.195,100.688 23.1317,102.636 23.3417,106.533 L20.4367,106.533 C20.2033,104.573 19.235,103.593 17.5317,103.593 L14.5917,103.593 C13.7983,103.593 13.1158,103.879 12.5442,104.45 C11.9725,105.022 11.6867,105.716 11.6867,106.533 L11.6867,121.093 C11.6867,121.886 11.9725,122.574 12.5442,123.158 C13.1158,123.741 13.7983,124.033 14.5917,124.033 L17.5317,124.033 C19.2583,124.033 20.2267,123.053 20.4367,121.093 L23.3417,121.093 M35.0304,100.688 L40.8754,100.688 C42.4621,100.688 43.8271,101.265 44.9704,102.42 C46.1138,103.575 46.6854,104.946 46.6854,106.533 L46.6854,121.093 C46.6854,122.679 46.1138,124.05 44.9704,125.205 C43.8271,126.36 42.4621,126.938 40.8754,126.938 L35.0304,126.938 C33.4438,126.938 32.0729,126.366 30.9179,125.223 C29.7629,124.079 29.1854,122.703 29.1854,121.093 L29.1854,106.533 C29.1854,104.923 29.7629,103.546 30.9179,102.403 C32.0729,101.259 33.4438,100.688 35.0304,100.688 M35.0304,106.533 L35.0304,121.093 C35.0304,121.886 35.3163,122.574 35.8879,123.158 C36.4596,123.741 37.1421,124.033 37.9354,124.033 C38.7521,124.033 39.4463,123.741 40.0179,123.158 C40.5896,122.574 40.8754,121.886 40.8754,121.093 L40.8754,106.533 C40.8754,105.716 40.5896,105.022 40.0179,104.45 C39.4463,103.879 38.7521,103.593 37.9354,103.593 C37.1421,103.593 36.4596,103.879 35.8879,104.45 C35.3163,105.022 35.0304,105.716 35.0304,106.533 M52.5292,126.938 L52.5292,100.688 L64.2192,100.688 C65.8058,100.688 67.1708,101.265 68.3142,102.42 C69.4575,103.575 70.0292,104.946 70.0292,106.533 L70.0292,121.093 C70.0292,122.679 69.4575,124.05 68.3142,125.205 C67.1708,126.36 65.8058,126.938 64.2192,126.938 L52.5292,126.938 M58.3742,124.033 L61.2792,124.033 C62.0958,124.033 62.79,123.741 63.3617,123.158 C63.9333,122.574 64.2192,121.886 64.2192,121.093 L64.2192,106.533 C64.2192,105.716 63.9333,105.022 63.3617,104.45 C62.79,103.879 62.0958,103.593 61.2792,103.593 L58.3742,103.593 L58.3742,124.033 M75.8729,126.938 L75.8729,100.688 L90.4679,100.688 L90.4679,103.593 L81.7179,103.593 L81.7179,112.343 L87.5629,112.343 L87.5629,115.283 L81.7179,115.283 L81.7179,124.033 L90.4679,124.033 L90.4679,126.938 L75.8729,126.938 " style="stroke:none;fill-rule:nonzero;fill:#fff5df;fill-opacity:1;"/>
        </g>
        <g id="Shape5">
            <desc type="0" basicInfo-basicType="1" basicInfo-roundedRectRadius="12" basicInfo-polygonSides="6" basicInfo-starPoints="5" bounding="rect(-47.4998,-1.99979,94.9997,3.99957)" text="" font-familyName="Silom" font-pixelSize="33" font-bold="0" font-underline="0" font-alignment="1" strokeStyle="0" markerStart="0" markerEnd="0" shadowEnabled="0" shadowOffsetX="0" shadowOffsetY="2" shadowBlur="4" shadowOpacity="160" blurEnabled="0" blurRadius="4" transform="matrix(0.927362,0,0,0.455299,48.4923,97.5026)" pers-center="0,0" pers-size="0,0" pers-start="0,0" pers-end="0,0" locked="0" mesh="" flag=""/>
            <path id="shapePath5" d="M4.44271,96.5921 L92.5418,96.5921 L92.5418,98.4131 L4.44271,98.4131 L4.44271,96.5921 Z" style="stroke:none;fill-rule:evenodd;fill:#fff5df;fill-opacity:1;"/>
        </g>
    </g>
</svg>
